<?xml version="1.0" encoding="UTF-8" standalone="no"?>
<!-- Created with Inkscape (http://www.inkscape.org/) -->

<svg
   version="1.1"
   id="svg1"
   width="585.33331"
   height="513.33331"
   viewBox="0 0 585.33331 513.33331"
   sodipodi:docname="sigma2.svg"
   inkscape:version="1.3.2 (091e20e, 2023-11-25, custom)"
   xmlns:inkscape="http://www.inkscape.org/namespaces/inkscape"
   xmlns:sodipodi="http://sodipodi.sourceforge.net/DTD/sodipodi-0.dtd"
   xmlns="http://www.w3.org/2000/svg"
   xmlns:svg="http://www.w3.org/2000/svg">
  <defs
     id="defs1" />
  <sodipodi:namedview
     id="namedview1"
     pagecolor="#ffffff"
     bordercolor="#000000"
     borderopacity="0.25"
     inkscape:showpageshadow="2"
     inkscape:pageopacity="0.0"
     inkscape:pagecheckerboard="0"
     inkscape:deskcolor="#d1d1d1"
     inkscape:zoom="2.0108201"
     inkscape:cx="292.66666"
     inkscape:cy="256.86037"
     inkscape:window-width="2560"
     inkscape:window-height="1494"
     inkscape:window-x="-11"
     inkscape:window-y="-11"
     inkscape:window-maximized="1"
     inkscape:current-layer="g1">
    <inkscape:page
       x="0"
       y="0"
       inkscape:label="1"
       id="page1"
       width="585.33331"
       height="513.33331"
       margin="0"
       bleed="0" />
  </sodipodi:namedview>
  <g
     id="g1"
     inkscape:groupmode="layer"
     inkscape:label="1">
    <path
       id="path1"
       d="M 0,0 H 975 V 825 H 0 Z"
       style="fill:#ffffff;fill-opacity:1;fill-rule:nonzero;stroke:none"
       transform="matrix(0.66666667,0,0,0.66666667,-14.666573,-35.375)" />
    <path
       id="path2"
       d="M 127,734 H 882 V 62 H 127 Z"
       style="fill:#ffffff;fill-opacity:1;fill-rule:nonzero;stroke:none"
       transform="matrix(0.66666667,0,0,0.66666667,-14.666573,-35.375)" />
    <path
       id="path3"
       d="M 127,734 V 62"
       style="fill:none;stroke:#262626;stroke-width:1;stroke-linecap:butt;stroke-linejoin:round;stroke-miterlimit:10;stroke-dasharray:none;stroke-opacity:0.14902"
       transform="matrix(0.66666667,0,0,0.66666667,-14.666573,-35.375)" />
    <path
       id="path4"
       d="M 210.88889,734 V 62"
       style="fill:none;stroke:#262626;stroke-width:1;stroke-linecap:butt;stroke-linejoin:round;stroke-miterlimit:10;stroke-dasharray:none;stroke-opacity:0.14902"
       transform="matrix(0.66666667,0,0,0.66666667,-14.666573,-35.375)" />
    <path
       id="path5"
       d="M 294.77777,734 V 62"
       style="fill:none;stroke:#262626;stroke-width:1;stroke-linecap:butt;stroke-linejoin:round;stroke-miterlimit:10;stroke-dasharray:none;stroke-opacity:0.14902"
       transform="matrix(0.66666667,0,0,0.66666667,-14.666573,-35.375)" />
    <path
       id="path6"
       d="M 378.66666,734 V 62"
       style="fill:none;stroke:#262626;stroke-width:1;stroke-linecap:butt;stroke-linejoin:round;stroke-miterlimit:10;stroke-dasharray:none;stroke-opacity:0.14902"
       transform="matrix(0.66666667,0,0,0.66666667,-14.666573,-35.375)" />
    <path
       id="path7"
       d="M 462.55554,734 V 62"
       style="fill:none;stroke:#262626;stroke-width:1;stroke-linecap:butt;stroke-linejoin:round;stroke-miterlimit:10;stroke-dasharray:none;stroke-opacity:0.14902"
       transform="matrix(0.66666667,0,0,0.66666667,-14.666573,-35.375)" />
    <path
       id="path8"
       d="M 546.44446,734 V 62"
       style="fill:none;stroke:#262626;stroke-width:1;stroke-linecap:butt;stroke-linejoin:round;stroke-miterlimit:10;stroke-dasharray:none;stroke-opacity:0.14902"
       transform="matrix(0.66666667,0,0,0.66666667,-14.666573,-35.375)" />
    <path
       id="path9"
       d="M 630.33331,734 V 62"
       style="fill:none;stroke:#262626;stroke-width:1;stroke-linecap:butt;stroke-linejoin:round;stroke-miterlimit:10;stroke-dasharray:none;stroke-opacity:0.14902"
       transform="matrix(0.66666667,0,0,0.66666667,-14.666573,-35.375)" />
    <path
       id="path10"
       d="M 714.22223,734 V 62"
       style="fill:none;stroke:#262626;stroke-width:1;stroke-linecap:butt;stroke-linejoin:round;stroke-miterlimit:10;stroke-dasharray:none;stroke-opacity:0.14902"
       transform="matrix(0.66666667,0,0,0.66666667,-14.666573,-35.375)" />
    <path
       id="path11"
       d="M 798.11108,734 V 62"
       style="fill:none;stroke:#262626;stroke-width:1;stroke-linecap:butt;stroke-linejoin:round;stroke-miterlimit:10;stroke-dasharray:none;stroke-opacity:0.14902"
       transform="matrix(0.66666667,0,0,0.66666667,-14.666573,-35.375)" />
    <path
       id="path12"
       d="M 882,734 V 62"
       style="fill:none;stroke:#262626;stroke-width:1;stroke-linecap:butt;stroke-linejoin:round;stroke-miterlimit:10;stroke-dasharray:none;stroke-opacity:0.14902"
       transform="matrix(0.66666667,0,0,0.66666667,-14.666573,-35.375)" />
    <path
       id="path13"
       d="M 882,734 H 127"
       style="fill:none;stroke:#262626;stroke-width:1;stroke-linecap:butt;stroke-linejoin:round;stroke-miterlimit:10;stroke-dasharray:none;stroke-opacity:0.14902"
       transform="matrix(0.66666667,0,0,0.66666667,-14.666573,-35.375)" />
    <path
       id="path14"
       d="M 882,678 H 127"
       style="fill:none;stroke:#262626;stroke-width:1;stroke-linecap:butt;stroke-linejoin:round;stroke-miterlimit:10;stroke-dasharray:none;stroke-opacity:0.14902"
       transform="matrix(0.66666667,0,0,0.66666667,-14.666573,-35.375)" />
    <path
       id="path15"
       d="M 882,622 H 127"
       style="fill:none;stroke:#262626;stroke-width:1;stroke-linecap:butt;stroke-linejoin:round;stroke-miterlimit:10;stroke-dasharray:none;stroke-opacity:0.14902"
       transform="matrix(0.66666667,0,0,0.66666667,-14.666573,-35.375)" />
    <path
       id="path16"
       d="M 882,566 H 127"
       style="fill:none;stroke:#262626;stroke-width:1;stroke-linecap:butt;stroke-linejoin:round;stroke-miterlimit:10;stroke-dasharray:none;stroke-opacity:0.14902"
       transform="matrix(0.66666667,0,0,0.66666667,-14.666573,-35.375)" />
    <path
       id="path17"
       d="M 882,510 H 127"
       style="fill:none;stroke:#262626;stroke-width:1;stroke-linecap:butt;stroke-linejoin:round;stroke-miterlimit:10;stroke-dasharray:none;stroke-opacity:0.14902"
       transform="matrix(0.66666667,0,0,0.66666667,-14.666573,-35.375)" />
    <path
       id="path18"
       d="M 882,454 H 127"
       style="fill:none;stroke:#262626;stroke-width:1;stroke-linecap:butt;stroke-linejoin:round;stroke-miterlimit:10;stroke-dasharray:none;stroke-opacity:0.14902"
       transform="matrix(0.66666667,0,0,0.66666667,-14.666573,-35.375)" />
    <path
       id="path19"
       d="M 882,398 H 127"
       style="fill:none;stroke:#262626;stroke-width:1;stroke-linecap:butt;stroke-linejoin:round;stroke-miterlimit:10;stroke-dasharray:none;stroke-opacity:0.14902"
       transform="matrix(0.66666667,0,0,0.66666667,-14.666573,-35.375)" />
    <path
       id="path20"
       d="M 882,342 H 127"
       style="fill:none;stroke:#262626;stroke-width:1;stroke-linecap:butt;stroke-linejoin:round;stroke-miterlimit:10;stroke-dasharray:none;stroke-opacity:0.14902"
       transform="matrix(0.66666667,0,0,0.66666667,-14.666573,-35.375)" />
    <path
       id="path21"
       d="M 882,286 H 127"
       style="fill:none;stroke:#262626;stroke-width:1;stroke-linecap:butt;stroke-linejoin:round;stroke-miterlimit:10;stroke-dasharray:none;stroke-opacity:0.14902"
       transform="matrix(0.66666667,0,0,0.66666667,-14.666573,-35.375)" />
    <path
       id="path22"
       d="M 882,230 H 127"
       style="fill:none;stroke:#262626;stroke-width:1;stroke-linecap:butt;stroke-linejoin:round;stroke-miterlimit:10;stroke-dasharray:none;stroke-opacity:0.14902"
       transform="matrix(0.66666667,0,0,0.66666667,-14.666573,-35.375)" />
    <path
       id="path23"
       d="M 882,174 H 127"
       style="fill:none;stroke:#262626;stroke-width:1;stroke-linecap:butt;stroke-linejoin:round;stroke-miterlimit:10;stroke-dasharray:none;stroke-opacity:0.14902"
       transform="matrix(0.66666667,0,0,0.66666667,-14.666573,-35.375)" />
    <path
       id="path24"
       d="M 882,118 H 127"
       style="fill:none;stroke:#262626;stroke-width:1;stroke-linecap:butt;stroke-linejoin:round;stroke-miterlimit:10;stroke-dasharray:none;stroke-opacity:0.14902"
       transform="matrix(0.66666667,0,0,0.66666667,-14.666573,-35.375)" />
    <path
       id="path25"
       d="M 882,62 H 127"
       style="fill:none;stroke:#262626;stroke-width:1;stroke-linecap:butt;stroke-linejoin:round;stroke-miterlimit:10;stroke-dasharray:none;stroke-opacity:0.14902"
       transform="matrix(0.66666667,0,0,0.66666667,-14.666573,-35.375)" />
    <path
       id="path26"
       d="M 127,734 H 882"
       style="fill:none;stroke:#262626;stroke-width:1;stroke-linecap:square;stroke-linejoin:round;stroke-miterlimit:10;stroke-dasharray:none;stroke-opacity:1"
       transform="matrix(0.66666667,0,0,0.66666667,-14.666573,-35.375)" />
    <path
       id="path27"
       d="M 127,62 H 882"
       style="fill:none;stroke:#262626;stroke-width:1;stroke-linecap:square;stroke-linejoin:round;stroke-miterlimit:10;stroke-dasharray:none;stroke-opacity:1"
       transform="matrix(0.66666667,0,0,0.66666667,-14.666573,-35.375)" />
    <path
       id="path28"
       d="m 127,734 v -7.54999"
       style="fill:none;stroke:#262626;stroke-width:1;stroke-linecap:square;stroke-linejoin:round;stroke-miterlimit:10;stroke-dasharray:none;stroke-opacity:1"
       transform="matrix(0.66666667,0,0,0.66666667,-14.666573,-35.375)" />
    <path
       id="path29"
       d="m 210.88889,734 v -7.54999"
       style="fill:none;stroke:#262626;stroke-width:1;stroke-linecap:square;stroke-linejoin:round;stroke-miterlimit:10;stroke-dasharray:none;stroke-opacity:1"
       transform="matrix(0.66666667,0,0,0.66666667,-14.666573,-35.375)" />
    <path
       id="path30"
       d="m 294.77777,734 v -7.54999"
       style="fill:none;stroke:#262626;stroke-width:1;stroke-linecap:square;stroke-linejoin:round;stroke-miterlimit:10;stroke-dasharray:none;stroke-opacity:1"
       transform="matrix(0.66666667,0,0,0.66666667,-14.666573,-35.375)" />
    <path
       id="path31"
       d="m 378.66666,734 v -7.54999"
       style="fill:none;stroke:#262626;stroke-width:1;stroke-linecap:square;stroke-linejoin:round;stroke-miterlimit:10;stroke-dasharray:none;stroke-opacity:1"
       transform="matrix(0.66666667,0,0,0.66666667,-14.666573,-35.375)" />
    <path
       id="path32"
       d="m 462.55554,734 v -7.54999"
       style="fill:none;stroke:#262626;stroke-width:1;stroke-linecap:square;stroke-linejoin:round;stroke-miterlimit:10;stroke-dasharray:none;stroke-opacity:1"
       transform="matrix(0.66666667,0,0,0.66666667,-14.666573,-35.375)" />
    <path
       id="path33"
       d="m 546.44446,734 v -7.54999"
       style="fill:none;stroke:#262626;stroke-width:1;stroke-linecap:square;stroke-linejoin:round;stroke-miterlimit:10;stroke-dasharray:none;stroke-opacity:1"
       transform="matrix(0.66666667,0,0,0.66666667,-14.666573,-35.375)" />
    <path
       id="path34"
       d="m 630.33331,734 v -7.54999"
       style="fill:none;stroke:#262626;stroke-width:1;stroke-linecap:square;stroke-linejoin:round;stroke-miterlimit:10;stroke-dasharray:none;stroke-opacity:1"
       transform="matrix(0.66666667,0,0,0.66666667,-14.666573,-35.375)" />
    <path
       id="path35"
       d="m 714.22223,734 v -7.54999"
       style="fill:none;stroke:#262626;stroke-width:1;stroke-linecap:square;stroke-linejoin:round;stroke-miterlimit:10;stroke-dasharray:none;stroke-opacity:1"
       transform="matrix(0.66666667,0,0,0.66666667,-14.666573,-35.375)" />
    <path
       id="path36"
       d="m 798.11108,734 v -7.54999"
       style="fill:none;stroke:#262626;stroke-width:1;stroke-linecap:square;stroke-linejoin:round;stroke-miterlimit:10;stroke-dasharray:none;stroke-opacity:1"
       transform="matrix(0.66666667,0,0,0.66666667,-14.666573,-35.375)" />
    <path
       id="path37"
       d="m 882,734 v -7.54999"
       style="fill:none;stroke:#262626;stroke-width:1;stroke-linecap:square;stroke-linejoin:round;stroke-miterlimit:10;stroke-dasharray:none;stroke-opacity:1"
       transform="matrix(0.66666667,0,0,0.66666667,-14.666573,-35.375)" />
    <path
       id="path38"
       d="m 127,62 v 7.550003"
       style="fill:none;stroke:#262626;stroke-width:1;stroke-linecap:square;stroke-linejoin:round;stroke-miterlimit:10;stroke-dasharray:none;stroke-opacity:1"
       transform="matrix(0.66666667,0,0,0.66666667,-14.666573,-35.375)" />
    <path
       id="path39"
       d="m 210.88889,62 v 7.550003"
       style="fill:none;stroke:#262626;stroke-width:1;stroke-linecap:square;stroke-linejoin:round;stroke-miterlimit:10;stroke-dasharray:none;stroke-opacity:1"
       transform="matrix(0.66666667,0,0,0.66666667,-14.666573,-35.375)" />
    <path
       id="path40"
       d="m 294.77777,62 v 7.550003"
       style="fill:none;stroke:#262626;stroke-width:1;stroke-linecap:square;stroke-linejoin:round;stroke-miterlimit:10;stroke-dasharray:none;stroke-opacity:1"
       transform="matrix(0.66666667,0,0,0.66666667,-14.666573,-35.375)" />
    <path
       id="path41"
       d="m 378.66666,62 v 7.550003"
       style="fill:none;stroke:#262626;stroke-width:1;stroke-linecap:square;stroke-linejoin:round;stroke-miterlimit:10;stroke-dasharray:none;stroke-opacity:1"
       transform="matrix(0.66666667,0,0,0.66666667,-14.666573,-35.375)" />
    <path
       id="path42"
       d="m 462.55554,62 v 7.550003"
       style="fill:none;stroke:#262626;stroke-width:1;stroke-linecap:square;stroke-linejoin:round;stroke-miterlimit:10;stroke-dasharray:none;stroke-opacity:1"
       transform="matrix(0.66666667,0,0,0.66666667,-14.666573,-35.375)" />
    <path
       id="path43"
       d="m 546.44446,62 v 7.550003"
       style="fill:none;stroke:#262626;stroke-width:1;stroke-linecap:square;stroke-linejoin:round;stroke-miterlimit:10;stroke-dasharray:none;stroke-opacity:1"
       transform="matrix(0.66666667,0,0,0.66666667,-14.666573,-35.375)" />
    <path
       id="path44"
       d="m 630.33331,62 v 7.550003"
       style="fill:none;stroke:#262626;stroke-width:1;stroke-linecap:square;stroke-linejoin:round;stroke-miterlimit:10;stroke-dasharray:none;stroke-opacity:1"
       transform="matrix(0.66666667,0,0,0.66666667,-14.666573,-35.375)" />
    <path
       id="path45"
       d="m 714.22223,62 v 7.550003"
       style="fill:none;stroke:#262626;stroke-width:1;stroke-linecap:square;stroke-linejoin:round;stroke-miterlimit:10;stroke-dasharray:none;stroke-opacity:1"
       transform="matrix(0.66666667,0,0,0.66666667,-14.666573,-35.375)" />
    <path
       id="path46"
       d="m 798.11108,62 v 7.550003"
       style="fill:none;stroke:#262626;stroke-width:1;stroke-linecap:square;stroke-linejoin:round;stroke-miterlimit:10;stroke-dasharray:none;stroke-opacity:1"
       transform="matrix(0.66666667,0,0,0.66666667,-14.666573,-35.375)" />
    <path
       id="path47"
       d="m 882,62 v 7.550003"
       style="fill:none;stroke:#262626;stroke-width:1;stroke-linecap:square;stroke-linejoin:round;stroke-miterlimit:10;stroke-dasharray:none;stroke-opacity:1"
       transform="matrix(0.66666667,0,0,0.66666667,-14.666573,-35.375)" />
    <text
       id="text47"
       xml:space="preserve"
       transform="matrix(0.66666667,0,0,0.66666667,62.000094,477.69165)"><tspan
         style="font-variant:normal;font-weight:normal;font-size:28px;font-family:'Times New Roman';writing-mode:lr-tb;fill:#262626;fill-opacity:1;fill-rule:nonzero;stroke:none"
         x="0 9.3240004"
         y="0"
         sodipodi:role="line"
         id="tspan47">-2</tspan></text>
    <text
       id="text48"
       xml:space="preserve"
       transform="matrix(0.66666667,0,0,0.66666667,110.92602,477.69165)"><tspan
         style="font-variant:normal;font-weight:normal;font-size:28px;font-family:'Times New Roman';writing-mode:lr-tb;fill:#262626;fill-opacity:1;fill-rule:nonzero;stroke:none"
         x="0 9.3240004 23.323999 30.323999"
         y="0"
         sodipodi:role="line"
         id="tspan48">-1.5</tspan></text>
    <text
       id="text49"
       xml:space="preserve"
       transform="matrix(0.66666667,0,0,0.66666667,173.85194,477.69165)"><tspan
         style="font-variant:normal;font-weight:normal;font-size:28px;font-family:'Times New Roman';writing-mode:lr-tb;fill:#262626;fill-opacity:1;fill-rule:nonzero;stroke:none"
         x="0 9.3240004"
         y="0"
         sodipodi:role="line"
         id="tspan49">-1</tspan></text>
    <text
       id="text50"
       xml:space="preserve"
       transform="matrix(0.66666667,0,0,0.66666667,222.77787,477.69165)"><tspan
         style="font-variant:normal;font-weight:normal;font-size:28px;font-family:'Times New Roman';writing-mode:lr-tb;fill:#262626;fill-opacity:1;fill-rule:nonzero;stroke:none"
         x="0 9.3240004 23.323999 30.323999"
         y="0"
         sodipodi:role="line"
         id="tspan50">-0.5</tspan></text>
    <text
       id="text51"
       xml:space="preserve"
       transform="matrix(0.66666667,0,0,0.66666667,289.03712,477.69165)"><tspan
         style="font-variant:normal;font-weight:normal;font-size:28px;font-family:'Times New Roman';writing-mode:lr-tb;fill:#262626;fill-opacity:1;fill-rule:nonzero;stroke:none"
         x="0"
         y="0"
         id="tspan51">0</tspan></text>
    <text
       id="text52"
       xml:space="preserve"
       transform="matrix(0.66666667,0,0,0.66666667,337.96307,477.69165)"><tspan
         style="font-variant:normal;font-weight:normal;font-size:28px;font-family:'Times New Roman';writing-mode:lr-tb;fill:#262626;fill-opacity:1;fill-rule:nonzero;stroke:none"
         x="0 14 21"
         y="0"
         sodipodi:role="line"
         id="tspan52">0.5</tspan></text>
    <text
       id="text53"
       xml:space="preserve"
       transform="matrix(0.66666667,0,0,0.66666667,400.88897,477.69165)"><tspan
         style="font-variant:normal;font-weight:normal;font-size:28px;font-family:'Times New Roman';writing-mode:lr-tb;fill:#262626;fill-opacity:1;fill-rule:nonzero;stroke:none"
         x="0"
         y="0"
         id="tspan53">1</tspan></text>
    <text
       id="text54"
       xml:space="preserve"
       transform="matrix(0.66666667,0,0,0.66666667,449.81491,477.69165)"><tspan
         style="font-variant:normal;font-weight:normal;font-size:28px;font-family:'Times New Roman';writing-mode:lr-tb;fill:#262626;fill-opacity:1;fill-rule:nonzero;stroke:none"
         x="0 14 21"
         y="0"
         sodipodi:role="line"
         id="tspan54">1.5</tspan></text>
    <text
       id="text55"
       xml:space="preserve"
       transform="matrix(0.66666667,0,0,0.66666667,512.74082,477.69165)"><tspan
         style="font-variant:normal;font-weight:normal;font-size:28px;font-family:'Times New Roman';writing-mode:lr-tb;fill:#262626;fill-opacity:1;fill-rule:nonzero;stroke:none"
         x="0"
         y="0"
         id="tspan55">2</tspan></text>
    <text
       id="text56"
       xml:space="preserve"
       transform="matrix(0.66666667,0,0,0.66666667,561.66676,477.69165)"><tspan
         style="font-variant:normal;font-weight:normal;font-size:28px;font-family:'Times New Roman';writing-mode:lr-tb;fill:#262626;fill-opacity:1;fill-rule:nonzero;stroke:none"
         x="0 14 21"
         y="0"
         sodipodi:role="line"
         id="tspan56">2.5</tspan></text>
    <path
       id="path56"
       d="m -1.0061837,7.7572017 c -0.234375,0 -0.3515625,-0.1757813 -0.3515625,-0.515625 0.082031,-0.5800782 0.2519531,-0.8671875 0.51562497,-0.8671875 0.84375,0 1.4296875,-0.082031 1.7578125,-0.234375 C 1.2438163,5.9993892 1.5016288,5.6126704 1.6891288,4.9915767 l 4.5,-17.9999997 c 0.1992187,-0.498047 0.3046875,-1.136719 0.3046875,-1.921875 0,-1.136719 -0.3925782,-1.710938 -1.171875,-1.710938 -0.84375,0 -1.4707032,0.503906 -1.875,1.5 -0.3925782,0.984375 -0.7734375,2.244141 -1.1484375,3.773438 0,0.175781 -0.1171875,0.257812 -0.3515625,0.257812 h -0.46875 c -0.064453,0 -0.1347657,-0.04687 -0.2109375,-0.140625 -0.082031,-0.105469 -0.1171875,-0.199219 -0.1171875,-0.28125 0.2929687,-1.154297 0.5742187,-2.132812 0.84375,-2.929687 0.2636718,-0.808594 0.6796875,-1.546875 1.2421875,-2.203125 0.5625,-0.667969 1.265625,-1.007813 2.109375,-1.007813 0.9199218,0 1.7226562,0.257813 2.4140625,0.773438 0.6855468,0.515625 1.1308593,1.21289 1.3359375,2.085937 0.7148437,-0.84375 1.5234372,-1.529297 2.4140622,-2.0625 0.890625,-0.527344 1.804688,-0.796875 2.742188,-0.796875 1.107422,0 2.074219,0.298828 2.90625,0.890625 0.826172,0.597656 1.441406,1.382813 1.851562,2.367188 0.421875,0.972656 0.632813,2.009765 0.632813,3.117187 0,1.7226564 -0.439453,3.5039064 -1.3125,5.3437502 -0.878906,1.828125 -2.074219,3.3515625 -3.585938,4.5703125 -1.5,1.21874996 -3.111328,1.82812496 -4.8281247,1.82812496 -0.7851563,0 -1.4882813,-0.22265625 -2.109375,-0.65625 C 7.1793631,-0.66272021 6.6871756,-1.2427983 6.3297538,-1.9459233 L 4.5250663,5.1556392 C 4.443035,5.5423579 4.4078788,5.7708735 4.4078788,5.8353267 c 0,0.3574218 0.8730468,0.5390625 2.625,0.5390625 0.28125,0 0.421875,0.1640625 0.421875,0.4921875 -0.09375,0.3574218 -0.1757813,0.5917968 -0.234375,0.703125 -0.064453,0.1230468 -0.2226563,0.1875 -0.46875,0.1875 z m 10.96875,-8.36718754 c 0.9199217,0 1.7812497,-0.375 2.5781247,-1.12499996 0.796875,-0.7617188 1.441407,-1.6230469 1.945313,-2.578125 0.357422,-0.7148438 0.691406,-1.59375 1.007812,-2.625 0.328125,-1.0429688 0.609375,-2.15625 0.84375,-3.3281252 0.234375,-1.171875 0.351563,-2.097656 0.351563,-2.789062 0,-0.609375 -0.08789,-1.177735 -0.257813,-1.710938 -0.158203,-0.527344 -0.421875,-0.972656 -0.796875,-1.335937 -0.375,-0.357422 -0.867187,-0.539063 -1.476562,-0.539063 -0.972656,0 -1.892578,0.351563 -2.765625,1.054688 -0.861328,0.691406 -1.6406252,1.546875 -2.3437502,2.578125 v 0.140625 l -2.203125,8.8124997 c 0.1699218,0.9550781 0.515625,1.7695312 1.03125,2.4375 0.5273437,0.67382809 1.2246093,1.00781246 2.0859375,1.00781246 z m 0,0"
       style="fill:#262626;fill-opacity:1;fill-rule:nonzero;stroke:none"
       aria-label="p"
       transform="matrix(0.66666667,0,0,0.66666667,261.29188,504.75822)" />
    <path
       id="path57"
       d="m 0.72428502,5.4389043 v -0.984375 c 0.63867188,0 1.16015628,-0.058594 1.57031248,-0.1640625 0.4042969,-0.1113281 0.609375,-0.3515625 0.609375,-0.7265625 v -13.5 c 0,-0.5156253 -0.1816406,-0.8320313 -0.5390625,-0.9609373 -0.3632812,-0.123047 -0.9082031,-0.1875 -1.64062498,-0.1875 v -0.984375 l 4.14843748,-0.304688 v 1.734375 c 0.4980469,-0.5625 1.0839844,-0.990234 1.7578125,-1.289062 0.6855469,-0.292969 1.4121094,-0.445313 2.1796875,-0.445313 1.1074219,0 2.0976565,0.298828 2.9765625,0.890625 0.890625,0.597657 1.582031,1.382813 2.085938,2.3671878 0.498046,0.9726562 0.75,1.9921875 0.75,3.0703125 0,1.125 -0.28125,2.1796875 -0.84375,3.1640625 -0.550782,0.9726562 -1.300782,1.7460937 -2.25,2.32031249 -0.955079,0.57421875 -2.0039067,0.8671875 -3.1406255,0.8671875 -1.359375,0 -2.5078125,-0.54492188 -3.4453125,-1.64062499 v 4.8984375 c 0,0.375 0.1992188,0.6152344 0.609375,0.7265625 0.421875,0.1054687 0.9492188,0.1640625 1.59375,0.1640625 v 0.984375 z m 4.21874998,-8.15625 c 0.328125,0.65625 0.7792969,1.2070312 1.359375,1.640625 0.5917969,0.43945311 1.2304688,0.65624999 1.921875,0.65624999 0.65625,0 1.2246094,-0.16992188 1.7109375,-0.515625 0.4980465,-0.33984379 0.9140625,-0.80273439 1.2421875,-1.38281249 0.339844,-0.5917969 0.591797,-1.2070313 0.75,-1.8515625 0.169922,-0.6386719 0.257813,-1.265625 0.257813,-1.875 0,-0.75 -0.140625,-1.5527344 -0.421875,-2.4140625 -0.269532,-0.8730469 -0.673829,-1.6054688 -1.21875,-2.2031248 -0.5507817,-0.609375 -1.2128911,-0.914063 -1.992188,-0.914063 -0.7675781,0 -1.4707031,0.199219 -2.109375,0.585938 -0.6269531,0.392578 -1.125,0.925781 -1.5,1.5937498 z m 0,0"
       style="fill:#262626;fill-opacity:1;fill-rule:nonzero;stroke:none"
       aria-label="p"
       transform="matrix(0.66666667,0,0,0.66666667,274.70855,495.0811)" />
    <path
       id="path58"
       d="m 6.984661,0.30609179 c -1.1425781,0 -2.1738281,-0.29296875 -3.09375,-0.8671875 C 2.9651298,-1.1528926 2.2385673,-1.9321895 1.7112235,-2.9048457 c -0.515625,-0.984375 -0.77343748,-2.0273438 -0.77343748,-3.140625 0,-1.1074219 0.25781248,-2.1621094 0.77343748,-3.1640625 0.5273438,-1.0136718 1.2539063,-1.8281248 2.1796875,-2.4374998 0.9199219,-0.609375 1.9511719,-0.914063 3.09375,-0.914063 1.0898438,0 2.0859375,0.222657 2.9765625,0.65625 0.9023435,0.421875 1.3593755,1.125 1.3593755,2.1093753 0,0.3632812 -0.134766,0.6738281 -0.398438,0.9375 -0.269531,0.2695312 -0.585937,0.3984375 -0.9609375,0.3984375 -0.375,0 -0.6972656,-0.1289063 -0.9609375,-0.3984375 -0.2519531,-0.2636719 -0.375,-0.5742188 -0.375,-0.9375 0,-0.3281253 0.099609,-0.6093753 0.3046875,-0.8437503 0.2167969,-0.246093 0.4804688,-0.404297 0.796875,-0.46875 -0.65625,-0.421875 -1.5644531,-0.632812 -2.71875,-0.632812 -0.890625,0 -1.6113281,0.298828 -2.15625,0.890625 -0.5507812,0.597656 -0.9316406,1.3300779 -1.1484375,2.2031248 -0.2226562,0.8789062 -0.328125,1.7460937 -0.328125,2.6015625 0,0.9082031 0.1289063,1.78125 0.3984375,2.625 0.2636719,0.84375 0.6914063,1.5410156 1.2890625,2.0859375 0.5917969,0.55078124 1.3417969,0.82031249 2.25,0.82031249 0.890625,0 1.640625,-0.26367188 2.25,-0.79687499 0.621094,-0.5449219 1.054688,-1.2539063 1.289063,-2.1328125 0,-0.1054688 0.07031,-0.1640625 0.210937,-0.1640625 h 0.351563 c 0.04687,0 0.09375,0.023437 0.140625,0.070312 0.04687,0.046875 0.07031,0.1054687 0.07031,0.1640625 v 0.09375 c -0.28125,1.1132812 -0.84375,1.9863281 -1.6875,2.62499999 -0.8320312,0.64453125 -1.8164062,0.9609375 -2.953125,0.9609375 z m 0,0"
       style="fill:#262626;fill-opacity:1;fill-rule:nonzero;stroke:none"
       aria-label="c"
       transform="matrix(0.66666667,0,0,0.66666667,285.59747,495.0811)" />
    <path
       id="path59"
       d="m 6.9855155,0.30609179 c -1.1425781,0 -2.1738281,-0.29296875 -3.09375,-0.8671875 C 2.9659843,-1.1528926 2.2394218,-1.9321895 1.712078,-2.9048457 1.196453,-3.8892207 0.93864052,-4.9321895 0.93864052,-6.0454707 c 0,-1.1074219 0.25781248,-2.1621094 0.77343748,-3.1640625 0.5273438,-1.0136718 1.2539063,-1.8281248 2.1796875,-2.4374998 0.9199219,-0.609375 1.9511719,-0.914063 3.09375,-0.914063 1.0898438,0 2.0859375,0.222657 2.9765625,0.65625 0.902344,0.421875 1.359375,1.125 1.359375,2.1093753 0,0.3632812 -0.134766,0.6738281 -0.398437,0.9375 -0.269532,0.2695312 -0.585938,0.3984375 -0.960938,0.3984375 -0.375,0 -0.6972656,-0.1289063 -0.9609375,-0.3984375 -0.2519531,-0.2636719 -0.375,-0.5742188 -0.375,-0.9375 0,-0.3281253 0.099609,-0.6093753 0.3046875,-0.8437503 0.2167969,-0.246093 0.4804688,-0.404297 0.796875,-0.46875 -0.65625,-0.421875 -1.5644531,-0.632812 -2.71875,-0.632812 -0.890625,0 -1.6113281,0.298828 -2.15625,0.890625 -0.5507812,0.597656 -0.9316406,1.3300779 -1.1484375,2.2031248 -0.2226562,0.8789062 -0.328125,1.7460937 -0.328125,2.6015625 0,0.9082031 0.1289063,1.78125 0.3984375,2.625 0.2636719,0.84375 0.6914063,1.5410156 1.2890625,2.0859375 0.5917969,0.55078124 1.3417969,0.82031249 2.25,0.82031249 0.890625,0 1.640625,-0.26367188 2.25,-0.79687499 0.6210935,-0.5449219 1.0546875,-1.2539063 1.2890625,-2.1328125 0,-0.1054688 0.07031,-0.1640625 0.210938,-0.1640625 h 0.351562 c 0.04687,0 0.09375,0.023437 0.140625,0.070312 0.04687,0.046875 0.07031,0.1054687 0.07031,0.1640625 v 0.09375 c -0.28125,1.1132812 -0.84375,1.9863281 -1.6875005,2.62499999 -0.8320312,0.64453125 -1.8164062,0.9609375 -2.953125,0.9609375 z m 0,0"
       style="fill:#262626;fill-opacity:1;fill-rule:nonzero;stroke:none"
       aria-label="c"
       transform="matrix(0.66666667,0,0,0.66666667,293.89377,495.0811)" />
    <path
       id="path60"
       d="m 2.2500419,9.2103267 c 0,-0.082031 0.011719,-0.1347657 0.046875,-0.1640625 L 16.195354,-29.508423 c 0.04687,-0.152344 0.128907,-0.269532 0.257813,-0.351563 0.140625,-0.09375 0.292969,-0.140625 0.46875,-0.140625 0.234375,0 0.421875,0.07031 0.5625,0.210938 0.152344,0.140625 0.234375,0.339843 0.234375,0.585937 v 0.164063 L 3.8203544,9.5150142 c -0.1582031,0.328125 -0.4160156,0.4921878 -0.7734375,0.4921878 -0.2226563,0 -0.4101563,-0.082032 -0.5625,-0.2343753 -0.1582031,-0.1582032 -0.234375,-0.3457032 -0.234375,-0.5625 z m 0,0"
       style="fill:#262626;fill-opacity:1;fill-rule:nonzero;stroke:none"
       aria-label="/"
       transform="matrix(0.66666667,0,0,0.66666667,303.52341,504.75822)" />
    <path
       id="path61"
       d="M 12.396465,9.9134517 C 10.908184,8.7415767 9.6308403,7.3939204 8.5527153,5.8822017 7.486309,4.3646235 6.6132621,2.747436 5.9277153,1.0306392 5.236309,-0.68615771 4.720684,-2.4849858 4.3808403,-4.3599858 c -0.328125,-1.875 -0.4921875,-3.7558594 -0.4921875,-5.6484372 0,-1.904297 0.1640625,-3.796875 0.4921875,-5.671875 0.3398437,-1.875 0.8554687,-3.679688 1.546875,-5.414063 0.703125,-1.734375 1.59375,-3.351562 2.671875,-4.851562 1.0898437,-1.511719 2.3554687,-2.841797 3.7968747,-3.984375 0,-0.04687 0.07031,-0.07031 0.210938,-0.07031 h 0.351562 c 0.07617,0 0.146485,0.04102 0.210938,0.117188 0.07617,0.06445 0.117187,0.140625 0.117187,0.234375 0,0.111328 -0.03516,0.199218 -0.09375,0.257812 -1.300781,1.265625 -2.384765,2.636719 -3.2578122,4.101563 -0.8613282,1.453125 -1.5585938,3.011718 -2.0859375,4.664062 -0.515625,1.640625 -0.890625,3.345703 -1.125,5.109375 -0.234375,1.769531 -0.3515625,3.603516 -0.3515625,5.507813 0,8.4843747 2.2617187,14.9296872 6.7968752,19.3359372 0.07617,0.076172 0.117187,0.1875 0.117187,0.328125 0,0.058594 -0.04101,0.1289062 -0.117187,0.2109375 -0.06445,0.09375 -0.134766,0.1406253 -0.210938,0.1406253 h -0.351562 c -0.140625,0 -0.210938,-0.035157 -0.210938,-0.09375 z m 0,0"
       style="fill:#262626;fill-opacity:1;fill-rule:nonzero;stroke:none"
       aria-label="("
       transform="matrix(0.66666667,0,0,0.66666667,316.85678,504.75822)" />
    <path
       id="path62"
       d="M 1.0303154,7.7572017 V 6.3743892 c 0.9199219,0 1.6699219,-0.082031 2.25,-0.234375 C 3.8721123,5.981811 4.1709404,5.6302485 4.1709404,5.0853267 V -14.203736 c 0,-0.732422 -0.2695313,-1.183594 -0.796875,-1.359375 -0.515625,-0.1875 -1.3007813,-0.28125 -2.34375,-0.28125 v -1.40625 l 5.9296875,-0.421875 v 2.484375 c 0.7148437,-0.808594 1.5585937,-1.429687 2.53125,-1.851562 0.9843751,-0.421875 2.0214841,-0.632813 3.1171871,-0.632813 1.558594,0 2.976563,0.433594 4.242188,1.289063 1.265625,0.84375 2.25,1.96289 2.953125,3.351562 0.714844,1.376953 1.078125,2.847656 1.078125,4.4062502 0,1.6113281 -0.398438,3.1113281 -1.195313,4.5 -0.785156,1.3945312 -1.851562,2.5019531 -3.210937,3.32812496 -1.359375,0.82617188 -2.853516,1.2421875 -4.476563,1.2421875 -1.939453,0 -3.5800777,-0.78515625 -4.9218746,-2.36718746 v 7.0078125 c 0,0.5449218 0.2929687,0.8964843 0.890625,1.0546875 0.5917969,0.1523437 1.3359375,0.234375 2.2265626,0.234375 v 1.3828125 z m 6.046875,-11.6484375 c 0.46875,0.9550781 1.1132812,1.7460937 1.9453125,2.3671875 0.8261719,0.60937496 1.7402341,0.91406246 2.7421871,0.91406246 0.919922,0 1.734375,-0.24023437 2.4375,-0.72656246 0.714844,-0.4980469 1.3125,-1.1601563 1.78125,-1.9921875 0.480469,-0.84375 0.84375,-1.7167969 1.078125,-2.625 0.234375,-0.9199219 0.351563,-1.8105469 0.351563,-2.671875 0,-1.078125 -0.199219,-2.2324222 -0.585938,-3.4687502 -0.392578,-1.248047 -0.978515,-2.296875 -1.757812,-3.140625 -0.785156,-0.855469 -1.734375,-1.289062 -2.859375,-1.289062 -1.078125,0 -2.074219,0.28125 -2.9765626,0.84375 -0.9082031,0.550781 -1.6289063,1.300781 -2.15625,2.25 z m 0,0"
       style="fill:#262626;fill-opacity:1;fill-rule:nonzero;stroke:none"
       aria-label="p"
       transform="matrix(0.66666667,0,0,0.66666667,327.22719,504.75822)" />
    <path
       id="path63"
       d="m 3.3529473,-2.2037358 c 0,-0.609375 0.2167968,-1.125 0.65625,-1.546875 0.4511718,-0.4335938 0.9726562,-0.65625 1.5703125,-0.65625 0.3574218,0 0.7089843,0.1054687 1.0546875,0.3046875 0.3574218,0.1875 0.6328125,0.4628906 0.8203125,0.8203125 0.1992187,0.3457031 0.3046875,0.703125 0.3046875,1.078125 0,0.5800781 -0.2226563,1.0957031 -0.65625,1.54687496 -0.421875,0.43945313 -0.9316407,0.656250005 -1.5234375,0.656250005 -0.5976563,0 -1.1191407,-0.216796875 -1.5703125,-0.656250005 -0.4394532,-0.45117186 -0.65625,-0.96679686 -0.65625,-1.54687496 z m 0,0"
       style="fill:#262626;fill-opacity:1;fill-rule:nonzero;stroke:none"
       aria-label="."
       transform="matrix(0.66666667,0,0,0.66666667,342.04205,504.75822)" />
    <path
       id="path64"
       d="m 4.3121148,-4.7584233 v -8.8359377 c 0,-0.714844 -0.1113282,-1.230469 -0.328125,-1.546875 -0.2050782,-0.328125 -0.5097657,-0.521484 -0.9140625,-0.585937 -0.4101563,-0.07617 -1.03125,-0.117188 -1.875,-0.117188 v -1.40625 l 6.046875,-0.421875 v 12.9140627 c 0,1.03125 0.070312,1.8398437 0.2109375,2.4140625 0.1523437,0.5800781 0.4746093,1.0195312 0.9609375,1.3125 0.4980468,0.28124996 1.2773437,0.42187496 2.3437497,0.42187496 1.435547,0 2.578125,-0.59179686 3.421875,-1.78124996 0.84375,-1.2011719 1.265625,-2.5664063 1.265625,-4.1015625 v -7.1015627 c 0,-0.714844 -0.111328,-1.230469 -0.328125,-1.546875 -0.222656,-0.328125 -0.533203,-0.521484 -0.9375,-0.585937 -0.392578,-0.07617 -1.007812,-0.117188 -1.851562,-0.117188 v -1.40625 l 6.023437,-0.421875 v 14.0390627 c 0,0.703125 0.105469,1.21875 0.328125,1.546875 0.216797,0.3164062 0.527344,0.5097656 0.9375,0.5859375 0.404297,0.064453 1.03125,0.09375 1.875,0.09375 V -6.10835e-4 L 15.562115,0.44470166 V -2.9302983 c -0.486328,1.0019531 -1.171875,1.8164062 -2.0625,2.43749996 -0.890625,0.62109375 -1.869141,0.9375 -2.929688,0.9375 -1.9218747,0 -3.4453122,-0.41015625 -4.5703122,-1.21875 -1.125,-0.80859376 -1.6875,-2.13867186 -1.6875,-3.98437496 z m 0,0"
       style="fill:#262626;fill-opacity:1;fill-rule:nonzero;stroke:none"
       aria-label="u"
       transform="matrix(0.66666667,0,0,0.66666667,349.44948,504.75822)" />
    <path
       id="path65"
       d="m 3.3534966,-2.2037358 c 0,-0.609375 0.2167969,-1.125 0.65625,-1.546875 0.4511719,-0.4335938 0.9726563,-0.65625 1.5703125,-0.65625 0.3574219,0 0.7089844,0.1054687 1.0546875,0.3046875 0.3574219,0.1875 0.6328125,0.4628906 0.8203125,0.8203125 0.1992188,0.3457031 0.3046875,0.703125 0.3046875,1.078125 0,0.5800781 -0.2226562,1.0957031 -0.65625,1.54687496 -0.421875,0.43945313 -0.9316406,0.656250005 -1.5234375,0.656250005 -0.5976562,0 -1.1191406,-0.216796875 -1.5703125,-0.656250005 -0.4394531,-0.45117186 -0.65625,-0.96679686 -0.65625,-1.54687496 z m 0,0"
       style="fill:#262626;fill-opacity:1;fill-rule:nonzero;stroke:none"
       aria-label="."
       transform="matrix(0.66666667,0,0,0.66666667,364.26434,504.75822)" />
    <path
       id="path66"
       d="m 2.6017266,10.007202 c -0.234375,0 -0.3515625,-0.1171878 -0.3515625,-0.3515628 0,-0.1289063 0.023437,-0.2109375 0.070312,-0.2578125 4.5585938,-4.453125 6.84375,-10.921875 6.84375,-19.4062497 0,-8.466797 -2.25,-14.90625 -6.75,-19.3125 -0.1113281,-0.05859 -0.1640625,-0.169922 -0.1640625,-0.328125 0,-0.09375 0.029297,-0.169922 0.09375,-0.234375 0.076172,-0.07617 0.1640625,-0.117188 0.2578125,-0.117188 h 0.375 c 0.076172,0 0.140625,0.02344 0.1875,0.07031 1.921875,1.517578 3.515625,3.351562 4.78125,5.507812 1.2773438,2.15625 2.2148439,4.464844 2.8125009,6.914063 0.591797,2.455078 0.890625,4.957031 0.890625,7.5 0,1.8925778 -0.164064,3.7499997 -0.492189,5.5781247 -0.316406,1.828125 -0.820311,3.63281246 -1.5234369,5.41406246 -0.6914057,1.78125304 -1.570312,3.42187804 -2.648437,4.92187804 -1.0664062,1.5 -2.3378906,2.8359375 -3.8203125,4.0078125 -0.046875,0.058594 -0.1113281,0.09375 -0.1875,0.09375 z m 0,0"
       style="fill:#262626;fill-opacity:1;fill-rule:nonzero;stroke:none"
       aria-label=")"
       transform="matrix(0.66666667,0,0,0.66666667,371.67177,504.75822)" />
    <path
       id="path67"
       d="M 127,734 V 62"
       style="fill:none;stroke:#262626;stroke-width:1;stroke-linecap:square;stroke-linejoin:round;stroke-miterlimit:10;stroke-dasharray:none;stroke-opacity:1"
       transform="matrix(0.66666667,0,0,0.66666667,-14.666573,-35.375)" />
    <path
       id="path68"
       d="M 882,734 V 62"
       style="fill:none;stroke:#262626;stroke-width:1;stroke-linecap:square;stroke-linejoin:round;stroke-miterlimit:10;stroke-dasharray:none;stroke-opacity:1"
       transform="matrix(0.66666667,0,0,0.66666667,-14.666573,-35.375)" />
    <path
       id="path69"
       d="m 127,734 h 7.54999"
       style="fill:none;stroke:#262626;stroke-width:1;stroke-linecap:square;stroke-linejoin:round;stroke-miterlimit:10;stroke-dasharray:none;stroke-opacity:1"
       transform="matrix(0.66666667,0,0,0.66666667,-14.666573,-35.375)" />
    <path
       id="path70"
       d="m 127,678 h 7.54999"
       style="fill:none;stroke:#262626;stroke-width:1;stroke-linecap:square;stroke-linejoin:round;stroke-miterlimit:10;stroke-dasharray:none;stroke-opacity:1"
       transform="matrix(0.66666667,0,0,0.66666667,-14.666573,-35.375)" />
    <path
       id="path71"
       d="m 127,622 h 7.54999"
       style="fill:none;stroke:#262626;stroke-width:1;stroke-linecap:square;stroke-linejoin:round;stroke-miterlimit:10;stroke-dasharray:none;stroke-opacity:1"
       transform="matrix(0.66666667,0,0,0.66666667,-14.666573,-35.375)" />
    <path
       id="path72"
       d="m 127,566 h 7.54999"
       style="fill:none;stroke:#262626;stroke-width:1;stroke-linecap:square;stroke-linejoin:round;stroke-miterlimit:10;stroke-dasharray:none;stroke-opacity:1"
       transform="matrix(0.66666667,0,0,0.66666667,-14.666573,-35.375)" />
    <path
       id="path73"
       d="m 127,510 h 7.54999"
       style="fill:none;stroke:#262626;stroke-width:1;stroke-linecap:square;stroke-linejoin:round;stroke-miterlimit:10;stroke-dasharray:none;stroke-opacity:1"
       transform="matrix(0.66666667,0,0,0.66666667,-14.666573,-35.375)" />
    <path
       id="path74"
       d="m 127,454 h 7.54999"
       style="fill:none;stroke:#262626;stroke-width:1;stroke-linecap:square;stroke-linejoin:round;stroke-miterlimit:10;stroke-dasharray:none;stroke-opacity:1"
       transform="matrix(0.66666667,0,0,0.66666667,-14.666573,-35.375)" />
    <path
       id="path75"
       d="m 127,398 h 7.54999"
       style="fill:none;stroke:#262626;stroke-width:1;stroke-linecap:square;stroke-linejoin:round;stroke-miterlimit:10;stroke-dasharray:none;stroke-opacity:1"
       transform="matrix(0.66666667,0,0,0.66666667,-14.666573,-35.375)" />
    <path
       id="path76"
       d="m 127,342 h 7.54999"
       style="fill:none;stroke:#262626;stroke-width:1;stroke-linecap:square;stroke-linejoin:round;stroke-miterlimit:10;stroke-dasharray:none;stroke-opacity:1"
       transform="matrix(0.66666667,0,0,0.66666667,-14.666573,-35.375)" />
    <path
       id="path77"
       d="m 127,286 h 7.54999"
       style="fill:none;stroke:#262626;stroke-width:1;stroke-linecap:square;stroke-linejoin:round;stroke-miterlimit:10;stroke-dasharray:none;stroke-opacity:1"
       transform="matrix(0.66666667,0,0,0.66666667,-14.666573,-35.375)" />
    <path
       id="path78"
       d="m 127,230 h 7.54999"
       style="fill:none;stroke:#262626;stroke-width:1;stroke-linecap:square;stroke-linejoin:round;stroke-miterlimit:10;stroke-dasharray:none;stroke-opacity:1"
       transform="matrix(0.66666667,0,0,0.66666667,-14.666573,-35.375)" />
    <path
       id="path79"
       d="m 127,174 h 7.54999"
       style="fill:none;stroke:#262626;stroke-width:1;stroke-linecap:square;stroke-linejoin:round;stroke-miterlimit:10;stroke-dasharray:none;stroke-opacity:1"
       transform="matrix(0.66666667,0,0,0.66666667,-14.666573,-35.375)" />
    <path
       id="path80"
       d="m 127,118 h 7.54999"
       style="fill:none;stroke:#262626;stroke-width:1;stroke-linecap:square;stroke-linejoin:round;stroke-miterlimit:10;stroke-dasharray:none;stroke-opacity:1"
       transform="matrix(0.66666667,0,0,0.66666667,-14.666573,-35.375)" />
    <path
       id="path81"
       d="m 127,62 h 7.54999"
       style="fill:none;stroke:#262626;stroke-width:1;stroke-linecap:square;stroke-linejoin:round;stroke-miterlimit:10;stroke-dasharray:none;stroke-opacity:1"
       transform="matrix(0.66666667,0,0,0.66666667,-14.666573,-35.375)" />
    <path
       id="path82"
       d="m 882,734 h -7.54999"
       style="fill:none;stroke:#262626;stroke-width:1;stroke-linecap:square;stroke-linejoin:round;stroke-miterlimit:10;stroke-dasharray:none;stroke-opacity:1"
       transform="matrix(0.66666667,0,0,0.66666667,-14.666573,-35.375)" />
    <path
       id="path83"
       d="m 882,678 h -7.54999"
       style="fill:none;stroke:#262626;stroke-width:1;stroke-linecap:square;stroke-linejoin:round;stroke-miterlimit:10;stroke-dasharray:none;stroke-opacity:1"
       transform="matrix(0.66666667,0,0,0.66666667,-14.666573,-35.375)" />
    <path
       id="path84"
       d="m 882,622 h -7.54999"
       style="fill:none;stroke:#262626;stroke-width:1;stroke-linecap:square;stroke-linejoin:round;stroke-miterlimit:10;stroke-dasharray:none;stroke-opacity:1"
       transform="matrix(0.66666667,0,0,0.66666667,-14.666573,-35.375)" />
    <path
       id="path85"
       d="m 882,566 h -7.54999"
       style="fill:none;stroke:#262626;stroke-width:1;stroke-linecap:square;stroke-linejoin:round;stroke-miterlimit:10;stroke-dasharray:none;stroke-opacity:1"
       transform="matrix(0.66666667,0,0,0.66666667,-14.666573,-35.375)" />
    <path
       id="path86"
       d="m 882,510 h -7.54999"
       style="fill:none;stroke:#262626;stroke-width:1;stroke-linecap:square;stroke-linejoin:round;stroke-miterlimit:10;stroke-dasharray:none;stroke-opacity:1"
       transform="matrix(0.66666667,0,0,0.66666667,-14.666573,-35.375)" />
    <path
       id="path87"
       d="m 882,454 h -7.54999"
       style="fill:none;stroke:#262626;stroke-width:1;stroke-linecap:square;stroke-linejoin:round;stroke-miterlimit:10;stroke-dasharray:none;stroke-opacity:1"
       transform="matrix(0.66666667,0,0,0.66666667,-14.666573,-35.375)" />
    <path
       id="path88"
       d="m 882,398 h -7.54999"
       style="fill:none;stroke:#262626;stroke-width:1;stroke-linecap:square;stroke-linejoin:round;stroke-miterlimit:10;stroke-dasharray:none;stroke-opacity:1"
       transform="matrix(0.66666667,0,0,0.66666667,-14.666573,-35.375)" />
    <path
       id="path89"
       d="m 882,342 h -7.54999"
       style="fill:none;stroke:#262626;stroke-width:1;stroke-linecap:square;stroke-linejoin:round;stroke-miterlimit:10;stroke-dasharray:none;stroke-opacity:1"
       transform="matrix(0.66666667,0,0,0.66666667,-14.666573,-35.375)" />
    <path
       id="path90"
       d="m 882,286 h -7.54999"
       style="fill:none;stroke:#262626;stroke-width:1;stroke-linecap:square;stroke-linejoin:round;stroke-miterlimit:10;stroke-dasharray:none;stroke-opacity:1"
       transform="matrix(0.66666667,0,0,0.66666667,-14.666573,-35.375)" />
    <path
       id="path91"
       d="m 882,230 h -7.54999"
       style="fill:none;stroke:#262626;stroke-width:1;stroke-linecap:square;stroke-linejoin:round;stroke-miterlimit:10;stroke-dasharray:none;stroke-opacity:1"
       transform="matrix(0.66666667,0,0,0.66666667,-14.666573,-35.375)" />
    <path
       id="path92"
       d="m 882,174 h -7.54999"
       style="fill:none;stroke:#262626;stroke-width:1;stroke-linecap:square;stroke-linejoin:round;stroke-miterlimit:10;stroke-dasharray:none;stroke-opacity:1"
       transform="matrix(0.66666667,0,0,0.66666667,-14.666573,-35.375)" />
    <path
       id="path93"
       d="m 882,118 h -7.54999"
       style="fill:none;stroke:#262626;stroke-width:1;stroke-linecap:square;stroke-linejoin:round;stroke-miterlimit:10;stroke-dasharray:none;stroke-opacity:1"
       transform="matrix(0.66666667,0,0,0.66666667,-14.666573,-35.375)" />
    <path
       id="path94"
       d="m 882,62 h -7.54999"
       style="fill:none;stroke:#262626;stroke-width:1;stroke-linecap:square;stroke-linejoin:round;stroke-miterlimit:10;stroke-dasharray:none;stroke-opacity:1"
       transform="matrix(0.66666667,0,0,0.66666667,-14.666573,-35.375)" />
    <text
       id="text94"
       xml:space="preserve"
       transform="matrix(0.66666667,0,0,0.66666667,47.600095,460.625)"><tspan
         style="font-variant:normal;font-weight:normal;font-size:28px;font-family:'Times New Roman';writing-mode:lr-tb;fill:#262626;fill-opacity:1;fill-rule:nonzero;stroke:none"
         x="0 9.3240004"
         y="0"
         sodipodi:role="line"
         id="tspan94">-3</tspan></text>
    <text
       id="text95"
       xml:space="preserve"
       transform="matrix(0.66666667,0,0,0.66666667,33.600095,423.29167)"><tspan
         style="font-variant:normal;font-weight:normal;font-size:28px;font-family:'Times New Roman';writing-mode:lr-tb;fill:#262626;fill-opacity:1;fill-rule:nonzero;stroke:none"
         x="0 9.3240004 23.323999 30.323999"
         y="0"
         sodipodi:role="line"
         id="tspan95">-2.5</tspan></text>
    <text
       id="text96"
       xml:space="preserve"
       transform="matrix(0.66666667,0,0,0.66666667,47.600095,385.95833)"><tspan
         style="font-variant:normal;font-weight:normal;font-size:28px;font-family:'Times New Roman';writing-mode:lr-tb;fill:#262626;fill-opacity:1;fill-rule:nonzero;stroke:none"
         x="0 9.3240004"
         y="0"
         sodipodi:role="line"
         id="tspan96">-2</tspan></text>
    <text
       id="text97"
       xml:space="preserve"
       transform="matrix(0.66666667,0,0,0.66666667,33.600095,348.625)"><tspan
         style="font-variant:normal;font-weight:normal;font-size:28px;font-family:'Times New Roman';writing-mode:lr-tb;fill:#262626;fill-opacity:1;fill-rule:nonzero;stroke:none"
         x="0 9.3240004 23.323999 30.323999"
         y="0"
         sodipodi:role="line"
         id="tspan97">-1.5</tspan></text>
    <text
       id="text98"
       xml:space="preserve"
       transform="matrix(0.66666667,0,0,0.66666667,47.600095,311.29167)"><tspan
         style="font-variant:normal;font-weight:normal;font-size:28px;font-family:'Times New Roman';writing-mode:lr-tb;fill:#262626;fill-opacity:1;fill-rule:nonzero;stroke:none"
         x="0 9.3240004"
         y="0"
         sodipodi:role="line"
         id="tspan98">-1</tspan></text>
    <text
       id="text99"
       xml:space="preserve"
       transform="matrix(0.66666667,0,0,0.66666667,33.600095,273.95833)"><tspan
         style="font-variant:normal;font-weight:normal;font-size:28px;font-family:'Times New Roman';writing-mode:lr-tb;fill:#262626;fill-opacity:1;fill-rule:nonzero;stroke:none"
         x="0 9.3240004 23.323999 30.323999"
         y="0"
         sodipodi:role="line"
         id="tspan99">-0.5</tspan></text>
    <text
       id="text100"
       xml:space="preserve"
       transform="matrix(0.66666667,0,0,0.66666667,54.266762,236.625)"><tspan
         style="font-variant:normal;font-weight:normal;font-size:28px;font-family:'Times New Roman';writing-mode:lr-tb;fill:#262626;fill-opacity:1;fill-rule:nonzero;stroke:none"
         x="0"
         y="0"
         id="tspan100">0</tspan></text>
    <text
       id="text101"
       xml:space="preserve"
       transform="matrix(0.66666667,0,0,0.66666667,40.266762,199.29167)"><tspan
         style="font-variant:normal;font-weight:normal;font-size:28px;font-family:'Times New Roman';writing-mode:lr-tb;fill:#262626;fill-opacity:1;fill-rule:nonzero;stroke:none"
         x="0 14 21"
         y="0"
         sodipodi:role="line"
         id="tspan101">0.5</tspan></text>
    <text
       id="text102"
       xml:space="preserve"
       transform="matrix(0.66666667,0,0,0.66666667,54.266762,161.95833)"><tspan
         style="font-variant:normal;font-weight:normal;font-size:28px;font-family:'Times New Roman';writing-mode:lr-tb;fill:#262626;fill-opacity:1;fill-rule:nonzero;stroke:none"
         x="0"
         y="0"
         id="tspan102">1</tspan></text>
    <text
       id="text103"
       xml:space="preserve"
       transform="matrix(0.66666667,0,0,0.66666667,40.266762,124.625)"><tspan
         style="font-variant:normal;font-weight:normal;font-size:28px;font-family:'Times New Roman';writing-mode:lr-tb;fill:#262626;fill-opacity:1;fill-rule:nonzero;stroke:none"
         x="0 14 21"
         y="0"
         sodipodi:role="line"
         id="tspan103">1.5</tspan></text>
    <text
       id="text104"
       xml:space="preserve"
       transform="matrix(0.66666667,0,0,0.66666667,54.266762,87.291667)"><tspan
         style="font-variant:normal;font-weight:normal;font-size:28px;font-family:'Times New Roman';writing-mode:lr-tb;fill:#262626;fill-opacity:1;fill-rule:nonzero;stroke:none"
         x="0"
         y="0"
         id="tspan104">2</tspan></text>
    <text
       id="text105"
       xml:space="preserve"
       transform="matrix(0.66666667,0,0,0.66666667,40.266762,49.958333)"><tspan
         style="font-variant:normal;font-weight:normal;font-size:28px;font-family:'Times New Roman';writing-mode:lr-tb;fill:#262626;fill-opacity:1;fill-rule:nonzero;stroke:none"
         x="0 14 21"
         y="0"
         sodipodi:role="line"
         id="tspan105">2.5</tspan></text>
    <text
       id="text106"
       xml:space="preserve"
       transform="matrix(0.66666667,0,0,0.66666667,54.266762,12.625)"><tspan
         style="font-variant:normal;font-weight:normal;font-size:28px;font-family:'Times New Roman';writing-mode:lr-tb;fill:#262626;fill-opacity:1;fill-rule:nonzero;stroke:none"
         x="0"
         y="0"
         id="tspan106">3</tspan></text>
    <path
       id="path106"
       d="m 5.8839724,7.2421796 c 0.09375,-0.5800781 0.2636719,-0.8671875 0.515625,-0.8671875 0.9667969,1e-7 1.7226563,-0.082031 2.2734375,-0.2343749 0.5625,-0.1582031 0.9257813,-0.5390624 1.1015626,-1.1484374 L 11.485535,-1.8046951 C 9.9679571,-0.30469521 8.4445195,0.44530473 6.9152227,0.44530466 5.2394414,0.44530459 3.9210821,-0.18750796 2.9542852,-1.453133 1.9992072,-2.718758 1.5245979,-4.2187581 1.5245979,-5.9531331 c 10e-8,-1.6992187 0.4335939,-3.4687499 1.3125003,-5.2968749 0.890625,-1.839844 2.0859376,-3.375 3.5859377,-4.59375 1.5,-1.21875 3.1230469,-1.828125 4.8750001,-1.828125 0.796875,0 1.523437,0.246094 2.179687,0.726563 0.65625,0.46875 1.148438,1.101562 1.476563,1.898438 0.152344,-0.310547 0.585937,-0.826172 1.289062,-1.546875 0.714844,-0.714844 1.22461,-1.078125 1.523438,-1.078125 0.292969,0 0.445312,0.164062 0.445312,0.492187 L 12.610535,5.1562424 c -0.08203,0.3867188 -0.117188,0.6152344 -0.117188,0.6796875 0,0.3574219 0.873047,0.5390625 2.625,0.5390626 0.123047,0 0.222657,0.046875 0.304688,0.140625 0.07617,0.1054688 0.117187,0.2226563 0.117187,0.3515625 -0.09375,0.3574219 -0.175781,0.5917969 -0.234375,0.703125 -0.06445,0.1230469 -0.222656,0.1875 -0.46875,0.1875 l -8.5546871,-4e-7 c -0.2695313,0 -0.3984375,-0.1757812 -0.3984375,-0.515625 z m 1.1015628,-7.85156243 c 0.9375,4e-8 1.8515625,-0.35156243 2.7421876,-1.05468737 0.9023442,-0.7148437 1.6875002,-1.5585937 2.3437502,-2.5312499 l 2.25,-8.9999999 c -0.158203,-0.9375 -0.503906,-1.740234 -1.03125,-2.414063 -0.533203,-0.685546 -1.230468,-1.03125 -2.085937,-1.03125 -0.908203,0 -1.7519532,0.369141 -2.5312502,1.101563 -0.7675781,0.738281 -1.4179688,1.605468 -1.9453126,2.601562 -0.5332031,1.078125 -1.0312501,2.548828 -1.5000002,4.4062501 -0.46875,1.8632812 -0.7031251,3.3046875 -0.7031251,4.3359375 -1e-7,0.9257812 0.1933593,1.7519531 0.5859374,2.484375 0.3867187,0.73828125 1.0136718,1.10156253 1.8749999,1.10156257 z m 0,0"
       style="fill:#262626;fill-opacity:1;fill-rule:nonzero;stroke:none"
       aria-label="q"
       transform="matrix(-2.8333333e-8,-0.66666667,0.66666667,-2.8333333e-8,20.000005,290.05546)" />
    <path
       id="path107"
       d="m 0.72515957,5.4395078 4e-8,-0.984375 C 1.3638315,4.4551329 1.8853159,4.3965391 2.2954721,4.2910704 2.699769,4.1797423 2.9048471,3.9395079 2.9048472,3.5645079 l 5e-7,-13.5 c 0,-0.5156249 -0.1816406,-0.8320309 -0.5390624,-0.9609379 -0.3632813,-0.123046 -0.9082032,-0.1875 -1.64062503,-0.1875 l 5e-8,-0.984375 4.14843748,-0.304687 v 1.734375 c 0.4980469,-0.5625 1.0839844,-0.990234 1.7578125,-1.289062 0.6855469,-0.292969 1.4121094,-0.445313 2.1796875,-0.445313 1.1074219,0 2.0976562,0.298828 2.9765622,0.890625 0.890625,0.597657 1.582031,1.382813 2.085938,2.3671879 0.498047,0.9726563 0.75,1.9921875 0.75,3.0703125 0,1.125 -0.281251,2.1796875 -0.843751,3.1640625 -0.550781,0.9726562 -1.300781,1.7460937 -2.25,2.3203124 -0.955078,0.57421871 -2.003906,0.86718742 -3.1406247,0.86718737 -1.359375,-6e-8 -2.5078125,-0.54492198 -3.4453124,-1.64062517 l -2e-7,4.8984375 c -1e-7,0.375 0.1992187,0.6152344 0.6093749,0.7265625 0.421875,0.1054688 0.9492188,0.1640626 1.59375,0.1640626 v 0.984375 z M 4.9439099,-2.716742 c 0.328125,0.65625 0.7792968,1.2070313 1.3593749,1.6406251 0.5917969,0.43945313 1.2304688,0.65625003 1.921875,0.65625006 0.65625,3e-8 1.2246094,-0.16992182 1.7109375,-0.51562492 0.4980467,-0.33984374 0.9140627,-0.80273434 1.2421877,-1.38281244 0.339844,-0.5917969 0.591797,-1.2070312 0.75,-1.8515625 0.169922,-0.6386718 0.257813,-1.265625 0.257813,-1.875 0,-0.75 -0.140625,-1.5527343 -0.421875,-2.4140625 -0.269532,-0.8730469 -0.673828,-1.6054688 -1.21875,-2.2031248 -0.5507815,-0.609375 -1.2128908,-0.914063 -1.9921877,-0.914063 -0.7675781,0 -1.4707031,0.199219 -2.109375,0.585938 -0.6269532,0.392578 -1.1250001,0.925781 -1.5000001,1.5937495 z m 0,0"
       style="fill:#262626;fill-opacity:1;fill-rule:nonzero;stroke:none"
       aria-label="p"
       transform="matrix(-2.8333333e-8,-0.66666667,0.66666667,-2.8333333e-8,10.32288,277.19438)" />
    <path
       id="path108"
       d="m 6.9855358,0.3066963 c -1.1425781,-4e-8 -2.1738281,-0.29296884 -3.09375,-0.86718763 C 2.9660046,-1.1522882 2.2394421,-1.9315851 1.7120984,-2.9042414 1.1964735,-3.8886164 0.93866101,-4.9315852 0.93866106,-6.0448665 c 5e-8,-1.1074218 0.25781264,-2.1621093 0.77343764,-3.1640624 0.5273438,-1.0136721 1.2539063,-1.8281251 2.1796876,-2.4375001 0.9199219,-0.609375 1.9511719,-0.914062 3.09375,-0.914062 1.0898438,0 2.0859375,0.222656 2.9765625,0.65625 0.9023442,0.421875 1.3593752,1.125 1.3593752,2.109375 0,0.3632812 -0.134766,0.6738281 -0.398438,0.9375 -0.269531,0.2695312 -0.585937,0.3984374 -0.9609373,0.3984374 -0.375,0 -0.6972657,-0.1289062 -0.9609375,-0.3984375 -0.2519531,-0.2636719 -0.375,-0.5742188 -0.375,-0.9375 0,-0.3281249 0.099609,-0.6093749 0.3046876,-0.8437499 0.2167968,-0.246094 0.4804687,-0.404297 0.796875,-0.46875 -0.65625,-0.421875 -1.5644531,-0.632813 -2.71875,-0.632813 -0.890625,0 -1.6113281,0.298828 -2.15625,0.890625 -0.5507813,0.597656 -0.9316407,1.3300783 -1.1484376,2.2031252 -0.2226563,0.8789062 -0.3281251,1.7460937 -0.3281251,2.6015625 -10e-8,0.9082031 0.1289061,1.78125 0.3984373,2.625 0.2636719,0.84375 0.6914062,1.5410156 1.2890625,2.0859375 0.5917968,0.5507813 1.3417968,0.82031258 2.2499999,0.82031262 0.890625,4e-8 1.640625,-0.26367181 2.2500001,-0.79687492 0.6210941,-0.5449218 1.0546871,-1.2539062 1.2890621,-2.1328124 0,-0.1054688 0.07031,-0.1640625 0.210938,-0.1640625 h 0.351562 c 0.04687,0 0.09375,0.023437 0.140625,0.070312 0.04687,0.046875 0.07031,0.1054688 0.07031,0.1640625 v 0.09375 c -0.28125,1.1132812 -0.84375,1.9863281 -1.6875002,2.62499993 -0.8320312,0.64453121 -1.8164063,0.96093742 -2.953125,0.96093737 z m 0,0"
       style="fill:#262626;fill-opacity:1;fill-rule:nonzero;stroke:none"
       aria-label="c"
       transform="matrix(-2.8333333e-8,-0.66666667,0.66666667,-2.8333333e-8,10.32288,266.30546)" />
    <path
       id="path109"
       d="M 6.9863903,0.30669683 C 5.8438122,0.30669679 4.8125622,0.01372799 3.8926403,-0.5604908 2.9668591,-1.1522877 2.2402966,-1.9315846 1.7129529,-2.9042409 1.197328,-3.8886159 0.93951551,-4.9315847 0.93951556,-6.0448659 c 5e-8,-1.1074219 0.25781264,-2.1621094 0.77343764,-3.1640625 0.5273438,-1.0136716 1.2539063,-1.8281246 2.1796876,-2.4374996 0.9199219,-0.609375 1.9511719,-0.914063 3.09375,-0.914063 1.0898438,0 2.0859375,0.222657 2.9765625,0.65625 0.9023437,0.421875 1.3593747,1.125001 1.3593747,2.1093755 0,0.3632813 -0.134765,0.6738281 -0.398437,0.9375 -0.269532,0.2695312 -0.585938,0.3984375 -0.9609378,0.3984375 -0.375,-10e-8 -0.6972657,-0.1289063 -0.9609375,-0.3984376 -0.2519531,-0.2636719 -0.375,-0.5742187 -0.375,-0.9375 0,-0.3281254 0.099609,-0.6093754 0.3046876,-0.8437504 0.2167968,-0.246093 0.4804687,-0.404296 0.796875,-0.46875 -0.65625,-0.421875 -1.5644531,-0.632812 -2.71875,-0.632812 -0.890625,0 -1.6113281,0.298828 -2.15625,0.890625 -0.5507813,0.597656 -0.9316407,1.3300778 -1.1484376,2.2031247 -0.2226563,0.8789062 -0.3281251,1.7460937 -0.3281251,2.6015625 -10e-8,0.9082031 0.1289061,1.78125 0.3984373,2.625 0.2636719,0.84375 0.6914062,1.5410157 1.2890625,2.0859376 0.5917968,0.55078123 1.3417968,0.82031251 2.2499999,0.82031255 0.890625,4e-8 1.640625,-0.26367181 2.2500001,-0.79687495 0.6210936,-0.5449218 1.0546876,-1.2539062 1.2890626,-2.1328124 0,-0.1054688 0.07031,-0.1640625 0.210937,-0.1640625 h 0.351563 c 0.04687,0 0.09375,0.023437 0.140625,0.070312 0.04687,0.046875 0.07031,0.1054688 0.07031,0.1640625 v 0.09375 c -0.28125,1.1132813 -0.84375,1.9863281 -1.6874997,2.62499996 -0.8320312,0.64453121 -1.8164063,0.96093742 -2.953125,0.96093737 z m 0,0"
       style="fill:#262626;fill-opacity:1;fill-rule:nonzero;stroke:none"
       aria-label="c"
       transform="matrix(-2.8333333e-8,-0.66666667,0.66666667,-2.8333333e-8,10.322879,258.00916)" />
    <path
       id="path110"
       d="m 2.2509157,9.2109321 c 0,-0.082031 0.011719,-0.1347656 0.046875,-0.1640625 L 16.19623,-29.507817 c 0.04687,-0.152344 0.128906,-0.269532 0.257812,-0.351563 0.140625,-0.09375 0.292969,-0.140625 0.46875,-0.140625 0.234375,0 0.421875,0.07031 0.5625,0.210938 0.152344,0.140625 0.234375,0.339844 0.234375,0.585937 v 0.164063 L 3.8212282,9.5156197 C 3.663025,9.8437447 3.4052125,10.007807 3.0477906,10.007807 c -0.2226562,0 -0.4101562,-0.082031 -0.5625,-0.2343749 C 2.3270875,9.615229 2.2509157,9.427729 2.2509157,9.2109321 Z m 0,0"
       style="fill:#262626;fill-opacity:1;fill-rule:nonzero;stroke:none"
       aria-label="/"
       transform="matrix(-2.8333333e-8,-0.66666667,0.66666667,-2.8333333e-8,20.000004,248.37952)" />
    <path
       id="path111"
       d="M 12.397339,9.9140584 C 10.909058,8.7421833 9.6317141,7.394527 8.5535892,5.8828082 7.487183,4.3652301 6.6141362,2.7480425 5.9285894,1.0312456 5.2371832,-0.68555128 4.7215583,-2.4843794 4.3817146,-4.3593794 4.0535897,-6.2343795 3.8895273,-8.1152388 3.8895274,-10.007817 c 0,-1.904297 0.1640626,-3.796875 0.4921877,-5.671875 0.3398438,-1.875 0.8554689,-3.679687 1.5468752,-5.414062 0.7031251,-1.734375 1.5937502,-3.351563 2.6718752,-4.851563 1.0898439,-1.511718 2.3554685,-2.841797 3.7968755,-3.984375 0,-0.04687 0.07031,-0.07031 0.210937,-0.07031 h 0.351563 c 0.07617,0 0.146484,0.04102 0.210937,0.117187 0.07617,0.06445 0.117188,0.140625 0.117188,0.234375 0,0.111329 -0.03516,0.199219 -0.09375,0.257813 -1.300782,1.265625 -2.384766,2.636719 -3.257813,4.101562 -0.8613282,1.453125 -1.5585939,3.011719 -2.0859377,4.664063 -0.5156251,1.640625 -0.8906251,3.345703 -1.1250002,5.109375 -0.2343751,1.769531 -0.3515627,3.603515 -0.3515627,5.507812 -4e-7,8.4843751 2.2617181,14.9296877 6.7968746,19.3359379 0.07617,0.076172 0.117187,0.1875 0.117187,0.328125 0,0.058594 -0.04102,0.1289063 -0.117187,0.2109375 -0.06445,0.09375 -0.134766,0.1406246 -0.210938,0.1406246 h -0.351562 c -0.140625,0 -0.210938,-0.035156 -0.210938,-0.09375 z m 0,0"
       style="fill:#262626;fill-opacity:1;fill-rule:nonzero;stroke:none"
       aria-label="("
       transform="matrix(-2.8333333e-8,-0.66666667,0.66666667,-2.8333333e-8,20.000003,235.04614)" />
    <path
       id="path112"
       d="m 1.0311892,7.7578086 1e-7,-1.3828125 c 0.9199219,0 1.6699219,-0.082031 2.25,-0.2343749 0.5917969,-0.1582031 0.890625,-0.5097656 0.890625,-1.0546875 l 9e-7,-19.2890627 c 0,-0.732422 -0.2695312,-1.183594 -0.796875,-1.359375 -0.515625,-0.1875 -1.3007812,-0.28125 -2.34375,-0.28125 l 1e-7,-1.40625 5.9296875,-0.421875 -10e-8,2.484375 c 0.7148438,-0.808593 1.5585938,-1.429687 2.5312501,-1.851562 0.9843752,-0.421875 2.0214842,-0.632812 3.1171872,-0.632812 1.558594,0 2.976563,0.433593 4.242188,1.289062 1.265625,0.84375 2.25,1.962891 2.953125,3.351563 0.714843,1.376953 1.078124,2.847656 1.078124,4.4062499 0,1.6113281 -0.398437,3.1113281 -1.195312,4.5 -0.785157,1.3945312 -1.851563,2.501953 -3.210938,3.32812484 -1.359375,0.82617181 -2.853516,1.24218738 -4.476562,1.24218731 -1.939454,-9e-8 -3.5800785,-0.78515641 -4.9218754,-2.36718775 l -3e-7,7.0078125 c 0,0.5449219 0.2929688,0.8964844 0.890625,1.0546876 0.5917969,0.1523438 1.3359375,0.234375 2.2265627,0.2343751 V 7.757809 Z M 7.0780647,-3.8906287 c 0.46875,0.9550782 1.1132812,1.7460938 1.9453124,2.3671876 0.8261719,0.60937506 1.7402339,0.91406259 2.7421879,0.91406264 0.919921,4e-8 1.734375,-0.2402343 2.4375,-0.72656244 0.714843,-0.4980468 1.3125,-1.1601562 1.78125,-1.9921874 0.480468,-0.84375 0.84375,-1.7167968 1.078125,-2.6249999 0.234375,-0.9199219 0.351562,-1.8105469 0.351562,-2.671875 0,-1.078125 -0.199218,-2.2324218 -0.585937,-3.4687498 -0.392578,-1.248047 -0.978515,-2.296875 -1.757812,-3.140625 -0.785157,-0.855469 -1.734375,-1.289063 -2.859375,-1.289063 -1.078125,0 -2.074219,0.28125 -2.9765628,0.84375 -0.9082031,0.550781 -1.6289063,1.300781 -2.1562501,2.25 z m 0,0"
       style="fill:#262626;fill-opacity:1;fill-rule:nonzero;stroke:none"
       aria-label="p"
       transform="matrix(-2.8333333e-8,-0.66666667,0.66666667,-2.8333333e-8,20.000003,224.67574)" />
    <path
       id="path113"
       d="m 3.3538215,-2.2031279 c 10e-8,-0.609375 0.216797,-1.125 0.6562501,-1.5468749 0.4511719,-0.4335938 0.9726563,-0.65625 1.5703125,-0.65625 0.3574219,0 0.7089844,0.1054688 1.0546875,0.3046876 0.3574219,0.1875 0.6328125,0.4628906 0.8203125,0.8203125 0.1992187,0.3457031 0.3046874,0.703125 0.3046874,1.078125 0,0.5800781 -0.2226563,1.0957031 -0.65625,1.54687498 C 6.6819464,-0.21679961 6.1721808,-2.7564827e-6 5.5803839,-2.781634e-6 4.9827277,-2.8070344e-6 4.4612433,-0.2167997 4.0100715,-0.65625285 3.5706184,-1.1074247 3.3538215,-1.6230498 3.3538215,-2.2031279 Z m 0,0"
       style="fill:#262626;fill-opacity:1;fill-rule:nonzero;stroke:none"
       aria-label="."
       transform="matrix(-2.8333333e-8,-0.66666667,0.66666667,-2.8333333e-8,20.000002,209.86088)" />
    <path
       id="path114"
       d="m 4.3129891,-4.7578149 4e-7,-8.8359371 c 0,-0.714844 -0.1113281,-1.230469 -0.3281249,-1.546875 -0.2050781,-0.328125 -0.5097656,-0.521485 -0.9140625,-0.585938 -0.4101562,-0.07617 -1.03125,-0.117187 -1.875,-0.117187 l 10e-8,-1.40625 6.046875,-0.421875 -6e-7,12.9140623 c 0,1.03125 0.070312,1.8398437 0.2109374,2.4140625 0.1523438,0.5800781 0.4746094,1.0195312 0.9609375,1.3125 0.4980468,0.28125003 1.2773437,0.42187507 2.3437495,0.42187511 1.435547,6e-8 2.578125,-0.59179681 3.421876,-1.78124981 0.84375,-1.2011719 1.265625,-2.5664062 1.265625,-4.1015625 v -7.1015626 c 0,-0.714844 -0.111328,-1.230469 -0.328125,-1.546875 -0.222656,-0.328125 -0.533203,-0.521484 -0.9375,-0.585937 -0.392578,-0.07617 -1.007812,-0.117188 -1.851562,-0.117188 v -1.40625 l 6.023437,-0.421875 v 14.0390627 c 0,0.703125 0.105468,1.21875 0.328125,1.546875 0.216796,0.3164063 0.527343,0.5097657 0.9375,0.5859376 0.404296,0.064453 1.031249,0.09375 1.874999,0.09375 V -1.7331379e-6 L 15.562989,0.44531061 V -2.9296894 c -0.486328,1.0019531 -1.171875,1.8164062 -2.0625,2.43749993 C 12.609864,0.12890424 11.631348,0.44531045 10.570801,0.4453104 8.6489264,0.44531032 7.1254889,0.03515401 6.000489,-0.77343979 4.875489,-1.5820336 4.3129891,-2.9121117 4.3129891,-4.7578149 Z m 0,0"
       style="fill:#262626;fill-opacity:1;fill-rule:nonzero;stroke:none"
       aria-label="u"
       transform="matrix(-2.8333333e-8,-0.66666667,0.66666667,-2.8333333e-8,20.000002,202.45345)" />
    <path
       id="path115"
       d="m 3.3543709,-2.2031265 c 0,-0.609375 0.2167969,-1.125 0.6562501,-1.5468749 0.4511719,-0.4335938 0.9726562,-0.65625 1.5703125,-0.65625 0.3574219,1e-7 0.7089844,0.1054688 1.0546875,0.3046876 0.3574219,0.1875 0.6328125,0.4628906 0.8203125,0.8203125 0.1992187,0.3457031 0.3046874,0.703125 0.3046874,1.078125 0,0.5800782 -0.2226563,1.0957031 -0.6562501,1.546875 C 6.6824958,-0.21679819 6.1727302,-1.3397883e-6 5.5809333,-1.3649397e-6 4.9832771,-1.3903401e-6 4.4617927,-0.21679829 4.0106208,-0.65625143 3.5711677,-1.1074233 3.3543709,-1.6230483 3.3543709,-2.2031265 Z m 0,0"
       style="fill:#262626;fill-opacity:1;fill-rule:nonzero;stroke:none"
       aria-label="."
       transform="matrix(-2.8333333e-8,-0.66666667,0.66666667,-2.8333333e-8,20.000001,187.63859)" />
    <path
       id="path116"
       d="m 2.6026004,10.007811 c -0.234375,0 -0.3515625,-0.117187 -0.3515625,-0.351562 0,-0.1289063 0.023437,-0.2109375 0.070312,-0.2578125 4.558594,-4.4531248 6.8437505,-10.9218747 6.8437508,-19.4062495 4e-7,-8.466797 -2.2499993,-14.90625 -6.7499991,-19.312501 -0.1113282,-0.05859 -0.1640625,-0.169921 -0.1640625,-0.328125 0,-0.09375 0.029297,-0.169921 0.09375,-0.234375 0.076172,-0.07617 0.1640625,-0.117187 0.2578125,-0.117187 h 0.375 c 0.076172,0 0.140625,0.02344 0.1875,0.07031 1.9218749,1.517578 3.5156248,3.351562 4.7812497,5.507812 1.2773437,2.15625 2.2148437,4.464844 2.8125007,6.914063 0.591796,2.455078 0.890624,4.957031 0.890624,7.5 0,1.892578 -0.164062,3.7499999 -0.492187,5.5781248 -0.316407,1.828125 -0.820313,3.63281251 -1.5234387,5.41406248 C 8.9424444,2.7656243 8.0635381,4.4062492 6.9854131,5.9062492 5.9190067,7.4062491 4.6475223,8.7421866 3.1651004,9.9140615 c -0.046875,0.058594 -0.1113281,0.093749 -0.1875,0.093749 z m 0,0"
       style="fill:#262626;fill-opacity:1;fill-rule:nonzero;stroke:none"
       aria-label=")"
       transform="matrix(-2.8333333e-8,-0.66666667,0.66666667,-2.8333333e-8,20.000001,180.23116)" />
    <path
       id="path117"
       d="m 668.39386,734.08014 2.30707,-1.5401 4.20495,-2.80701 4.20496,-2.80707 4.20496,-2.807 4.20495,-2.80701 4.20496,-2.80701 4.20495,-2.807 4.20496,-2.80707 4.20496,-2.80701 4.20495,-2.807 4.20496,-2.80701 4.20495,-2.80701 4.20496,-2.80701 4.20496,-2.807 4.20495,-2.80701 4.20496,-2.80707 4.20495,-2.807 4.20496,-2.80701 4.20496,-2.80701 4.20495,-2.807 4.20496,-2.80707 4.20495,-2.80701 4.20496,-2.80701 4.20496,-2.807 4.20495,-2.80701 4.20496,-2.80707 4.20496,-2.807 4.20495,-2.80701 4.20496,-2.80701 4.20495,-2.807 4.20496,-2.80707 4.20496,-2.80701 4.20495,-2.80701 4.20496,-2.807 4.20495,-2.80701 4.20496,-2.80701 4.20496,-2.807 4.20501,-2.80707 4.2049,-2.80701 4.20495,-2.807 4.20496,-2.80701 4.20496,-2.80707 4.20501,-2.80701 4.2049,-2.807 4.20495,-2.80701 4.20502,-2.80701 4.2049,-2.807 4.20501,-2.80701 4.2049,-2.80707 4.20495,-2.80701 4.20502,-2.807 1.14124,-0.76184"
       style="fill:none;stroke:#fc8002;stroke-width:3;stroke-linecap:butt;stroke-linejoin:round;stroke-miterlimit:10;stroke-dasharray:none;stroke-opacity:1"
       transform="matrix(0.66666667,0,0,0.66666667,-14.666573,-35.375)" />
    <path
       id="path118"
       d="M 220.53058,734 V 62"
       style="fill:none;stroke:#fc8002;stroke-width:3;stroke-linecap:butt;stroke-linejoin:round;stroke-miterlimit:10;stroke-dasharray:none;stroke-opacity:1"
       transform="matrix(0.66666667,0,0,0.66666667,-14.666573,-35.375)" />
    <path
       id="path119"
       d="m 641.96442,61.919888 3.50677,13.538974 4.20496,16.234711 4.20495,16.234707 4.20496,16.23474 4.20496,16.23472 4.20495,16.23471 4.20496,16.23471 4.20495,16.23471 4.20496,16.23472 4.20496,16.23471 4.20495,16.23472 4.20496,16.23472 4.20495,16.23471 4.20496,16.23471 4.20496,16.23471 4.20495,16.23471 4.20496,16.23474 4.20495,16.23472 4.20496,16.23471 4.20496,16.23471 4.20495,16.23471 4.20496,16.23471 4.20495,16.23471 4.20496,16.23471 4.20496,16.23474 4.20495,16.23471 4.20496,16.23471 4.20495,16.23474 4.20496,16.23468 4.20496,16.23474 4.20495,16.23469 4.20496,16.23474 4.20496,16.23468 4.20495,16.23474 4.20496,16.23474 4.20495,16.23468 4.20496,16.23474 4.20496,16.23468 4.20495,16.23474 4.20496,16.23468 4.20495,16.23474 2.39136,9.23267"
       style="fill:none;stroke:#fc8002;stroke-width:3;stroke-linecap:butt;stroke-linejoin:round;stroke-miterlimit:10;stroke-dasharray:none;stroke-opacity:1"
       transform="matrix(0.66666667,0,0,0.66666667,-14.666573,-35.375)" />
    <path
       id="path120"
       d="M 127,652.24365 H 882"
       style="fill:none;stroke:#fc8002;stroke-width:3;stroke-linecap:butt;stroke-linejoin:round;stroke-miterlimit:10;stroke-dasharray:none;stroke-opacity:1"
       transform="matrix(0.66666667,0,0,0.66666667,-14.666573,-35.375)" />
    <path
       id="path121"
       d="m 235.87056,61.919888 1.7198,1.782474 4.20496,4.3582 4.20497,4.358231 4.20494,4.358207 4.20496,4.358208 4.20495,4.3582 4.20496,4.358231 4.20495,4.3582 4.20499,4.358208 4.20493,4.358203 4.20495,4.35823 4.20496,4.3582 4.20499,4.35821 4.20495,4.3582 4.20496,4.35823 4.20492,4.35821 4.20499,4.3582 4.20493,4.35823 4.20498,4.3582 4.20496,4.3582 4.20492,4.35822 4.20499,4.35823 4.20493,4.3582 4.20498,4.3582 4.20496,4.3582 4.20495,4.35824 4.20496,4.3582 4.20496,4.3582 4.20495,4.35822 4.20496,4.3582 4.20495,4.35823 4.20496,4.3582 4.20496,4.35822 4.20495,4.3582 4.20496,4.35821 4.20495,4.35822 4.20496,4.35821 4.20496,4.3582 4.20495,4.35822 4.20496,4.3582 4.20496,4.35821 4.20495,4.35822 4.20496,4.35821 4.20495,4.3582 4.20496,4.35822 4.20496,4.3582 4.20495,4.35821 4.20496,4.35822 4.20495,4.35821 4.20496,4.35822 4.20496,4.35822 4.20495,4.35821 4.20496,4.35819 4.20495,4.35821 4.20496,4.35822 4.20496,4.35821 4.20498,4.35822 4.20496,4.35821 4.20495,4.35819 4.20496,4.35821 4.20496,4.35822 4.20495,4.35821 4.20496,4.35822 4.20496,4.35821 4.20495,4.35822 4.20496,4.35818 4.20492,4.35822 4.20496,4.35821 4.20495,4.35822 4.20496,4.35821 4.20496,4.35822 4.20495,4.35822 4.20496,4.35818 4.20502,4.35822 4.20495,4.35821 4.2049,4.35822 4.20495,4.35821 4.20502,4.35822 4.2049,4.35818 4.20501,4.35822 4.20496,4.35821 4.20495,4.35822 4.20496,4.35821 4.20496,4.35822 4.20495,4.35821 4.20496,4.35819 4.20495,4.35821 4.20496,4.35822 4.20496,4.35821 4.20495,4.35822 4.20496,4.35822 4.20496,4.35818 4.20495,4.35822 4.20496,4.35821 4.20495,4.35822 4.20496,4.35821 4.20496,4.35822 4.20495,4.35818 4.20496,4.35822 4.20495,4.35821 4.20496,4.35822 4.20496,4.35821 4.20495,4.35822 4.20496,4.35821 4.20495,4.35822 4.20496,4.35821 4.20496,4.35822 4.20495,4.35815 4.20496,4.35828 4.20495,4.35815 4.20496,4.35822 4.20496,4.35822 4.20495,4.35821 4.20496,4.35822 4.20495,4.35821 4.20496,4.35822 4.20496,4.35821 4.20495,4.35822 4.20496,4.35821 4.20495,4.35822 4.20496,4.35821 4.20496,4.35822 4.20495,4.35815 4.20496,4.35822 4.20495,4.35821 4.20496,4.35822 4.20496,4.35821 4.20495,4.35822 4.20496,4.35821 4.20496,4.35822 4.20495,4.35822 4.20496,4.35821 4.20495,4.35822 4.20496,4.35815 4.20496,4.35828 4.20495,4.35815 4.20496,4.35822 4.20495,4.35821 4.20496,4.35822 4.20496,4.35821 4.20501,4.35822 4.2049,4.35821 4.20495,4.35822 4.20496,4.35821 4.20496,4.35822 4.20501,4.35821 4.2049,4.35822 4.20495,4.35821 4.20502,4.35816 4.2049,4.35828 4.20501,4.35815 4.2049,4.35822 4.20495,4.35821 4.20502,4.35822 1.14124,1.18286"
       style="fill:none;stroke:#fc8002;stroke-width:3;stroke-linecap:butt;stroke-linejoin:round;stroke-miterlimit:10;stroke-dasharray:none;stroke-opacity:1"
       transform="matrix(0.66666667,0,0,0.66666667,-14.666573,-35.375)" />
    <path
       id="path122"
       d="m 126.90999,278.41916 1.35148,0.96832 4.20498,3.01276 4.20495,3.01272 4.20496,3.01273 4.20494,3.01276 4.20497,3.01275 4.20496,3.01273 4.20495,3.01272 4.20497,3.01276 4.20494,3.01273 4.20496,3.01275 4.20496,3.01273 4.20497,3.01275 4.20495,3.01273 4.20494,3.01276 4.20496,3.01272 4.20497,3.01276 4.20496,3.01272 4.20495,3.01276 4.20494,3.01273 4.20496,3.01275 4.20497,3.01273 4.20496,3.01276 4.20495,3.01272 4.20495,3.01273 4.20497,3.01275 4.20495,3.01273 4.20496,3.01276 4.20497,3.01272 4.20494,3.01276 4.20496,3.01272 4.20495,3.01276 4.20496,3.01273 4.20495,3.01275 4.20499,3.01273 4.20493,3.01275 4.20495,3.01273 4.20496,3.01276 4.20499,3.01272 4.20495,3.01276 4.20496,3.01272 4.20492,3.01276 4.20499,3.01273 4.20493,3.01275 4.20498,3.01273 4.20496,3.01276 4.20492,3.01272 4.20499,3.01273 4.20493,3.01275 4.20498,3.01273 4.20496,3.01276 4.20495,3.01272 4.20496,3.01276 4.20496,3.01272 4.20495,3.01276 4.20496,3.01273 4.20495,3.01275 4.20496,3.01273 4.20496,3.01275 4.20495,3.01273 4.20496,3.01276 4.20495,3.01272 4.20496,3.01276 4.20496,3.01272 4.20495,3.01276 4.20496,3.01273 4.20496,3.01275 4.20495,3.01273 4.20496,3.01276 4.20495,3.01272 4.20496,3.01273 4.20496,3.01275 4.20495,3.01273 4.20496,3.01276 4.20495,3.01272 4.20496,3.01276 4.20496,3.01272 4.20495,3.01276 4.20496,3.01273 4.20495,3.01275 4.20496,3.01276 4.20496,3.01269 4.20498,3.01276 4.20496,3.01276 4.20495,3.01275 4.20496,3.0127 4.20496,3.01275 4.20495,3.01276 4.20496,3.01276 4.20496,3.01269 4.20495,3.01276 4.20496,3.01275 4.20492,3.0127 4.20496,3.01276 4.20495,3.01275 4.20496,3.01276 4.20496,3.01276 4.20495,3.01269 4.20496,3.01276 4.20502,3.01275 4.20495,3.0127 4.2049,3.01276 4.20495,3.01275 4.20502,3.01276 4.2049,3.01269 4.20501,3.01276 4.20496,3.01276 4.20495,3.01275 4.20496,3.0127 4.20496,3.01275 4.20495,3.01276 4.20496,3.01276 4.20495,3.01269 4.20496,3.01276 4.20496,3.01275 4.20495,3.01276 4.20496,3.0127 4.20496,3.01275 4.20495,3.01276 4.20496,3.01269 4.20495,3.01276 4.20496,3.01276 4.20496,3.01269 4.20495,3.01276 4.20496,3.01276 4.20495,3.01275 4.20496,3.01276 4.20496,3.01269 4.20495,3.01276 4.20496,3.01276 4.20495,3.01275 4.20496,3.0127 4.20496,3.01275 4.20495,3.01276 4.20496,3.01276 4.20495,3.01269 4.20496,3.01276 4.20496,3.01275 4.20495,3.0127 4.20496,3.01276 4.20495,3.01275 4.20496,3.01276 4.20496,3.01269 4.20495,3.01276 4.20496,3.01276 4.20495,3.01275 4.20496,3.01276 4.20496,3.01269 4.20495,3.01276 4.20496,3.0127 4.20495,3.01275 3.88233,2.78162"
       style="fill:none;stroke:#fc8002;stroke-width:3;stroke-linecap:butt;stroke-linejoin:round;stroke-miterlimit:10;stroke-dasharray:none;stroke-opacity:1"
       transform="matrix(0.66666667,0,0,0.66666667,-14.666573,-35.375)" />
    <path
       id="path123"
       d="m 126.90999,170.21614 1.35148,1.40076 4.20498,4.35821 4.20495,4.3582 4.20496,4.35822 4.20494,4.3582 4.20497,4.35821 4.20496,4.3582 4.20495,4.35823 4.20497,4.3582 4.20494,4.35822 4.20496,4.3582 4.20496,4.35822 4.20497,4.35821 4.20495,4.35822 4.20494,4.3582 4.20496,4.35821 4.20497,4.3582 4.20496,4.35823 4.20495,4.3582 4.20494,4.35822 4.20496,4.3582 4.20497,4.35821 4.20496,4.35822 4.20495,4.35821 4.20495,4.35822 4.20497,4.35818 4.20495,4.35825 4.20496,4.35818 4.20497,4.35822 4.20494,4.35821 4.20496,4.35822 4.20495,4.35822 4.20496,4.35818 4.20495,4.35822 4.20499,4.35821 4.20493,4.35822 4.20495,4.35821 4.20496,4.35822 4.20499,4.35818 4.20495,4.35822 4.20496,4.35821 4.20492,4.35822 4.20499,4.35821 4.20493,4.35822 4.20498,4.35821 4.20496,4.35819 4.20492,4.35821 4.20499,4.35822 4.20493,4.35821 4.20498,4.35822 4.20496,4.35822 4.20495,4.35821 4.20496,4.35819 4.20496,4.35821 4.20495,4.35822 4.20496,4.35821 4.20495,4.35822 4.20496,4.35821 4.20496,4.35822 4.20495,4.35818 4.20496,4.35822 4.20495,4.35821 4.20496,4.35822 4.20496,4.35821 4.20495,4.35822 4.20496,4.35818 4.20496,4.35822 4.20495,4.35821 4.20496,4.35822 4.20495,4.35822 4.20496,4.35821 4.20496,4.35822 4.20495,4.35818 4.20496,4.35822 4.20495,4.35821 4.20496,4.35822 4.20496,4.35821 4.20495,4.35822 4.20496,4.35818 4.20495,4.35822 4.20496,4.35821 4.20496,4.35822 4.20498,4.35821 4.20496,4.35822 4.20495,4.35821 4.20496,4.35822 4.20496,4.35821 4.20495,4.35822 4.20496,4.35815 4.20496,4.35822 4.20495,4.35821 4.20496,4.35822 4.20492,4.35822 4.20496,4.35821 4.20495,4.35822 4.20496,4.35821 4.20496,4.35822 4.20495,4.35821 4.20496,4.35822 4.20502,4.35821 4.20495,4.35822 4.2049,4.35821 4.20495,4.35822 4.20502,4.35815 4.2049,4.35822 4.20501,4.35821 4.20496,4.35822 4.20495,4.35821 4.20496,4.35822 4.20496,4.35822 4.20495,4.35821 4.20496,4.35822 4.20495,4.35821 4.20496,4.35822 4.20496,4.35821 4.20495,4.35816 4.20496,4.35821 4.20496,4.35828 4.20495,4.35815 4.20496,4.35822 4.20495,4.35821 4.20496,4.35822 4.20496,4.35821 4.20495,4.35822 4.20496,4.35821 4.20495,4.35822 4.20496,4.35821 4.20496,4.35816 4.20495,4.35828 4.20496,4.35821 0.24511,0.25403"
       style="fill:none;stroke:#fc8002;stroke-width:3;stroke-linecap:butt;stroke-linejoin:round;stroke-miterlimit:10;stroke-dasharray:none;stroke-opacity:1"
       transform="matrix(0.66666667,0,0,0.66666667,-14.666573,-35.375)" />
    <path
       id="path124"
       d="M 790.98608,734 V 62"
       style="fill:none;stroke:#fc8002;stroke-width:3;stroke-linecap:butt;stroke-linejoin:round;stroke-miterlimit:10;stroke-dasharray:none;stroke-opacity:1"
       transform="matrix(0.66666667,0,0,0.66666667,-14.666573,-35.375)" />
    <path
       id="path125"
       d="m 126.90999,255.84579 1.35148,1.05259 4.20498,3.2749 4.20495,3.2749 4.20496,3.2749 4.20494,3.27491 4.20497,3.2749 4.20496,3.27487 4.20495,3.2749 4.20497,3.2749 4.20494,3.27491 4.20496,3.2749 4.20496,3.2749 4.20497,3.2749 4.20495,3.27491 4.20494,3.2749 4.20496,3.2749 4.20497,3.2749 4.20496,3.27491 4.20495,3.2749 4.20494,3.2749 4.20496,3.2749 4.20497,3.27491 4.20496,3.2749 4.20495,3.27487 4.20495,3.2749 4.20497,3.2749 4.20495,3.27491 4.20496,3.2749 4.20497,3.2749 4.20494,3.2749 4.20496,3.27491 4.20495,3.2749 4.20496,3.2749 4.20495,3.2749 4.20499,3.27491 4.20493,3.2749 4.20495,3.2749 4.20496,3.2749 4.20499,3.2749 4.20495,3.27488 4.20496,3.2749 4.20492,3.2749 4.20499,3.2749 4.20493,3.27491 4.20498,3.2749 4.20496,3.2749 4.20492,3.2749 4.20499,3.27491 4.20493,3.2749 4.20498,3.2749 4.20496,3.2749 4.20495,3.2749 4.20496,3.27491 4.20496,3.2749 4.20495,3.2749 4.20496,3.2749 4.20495,3.27488 4.20496,3.2749 4.20496,3.2749 4.20495,3.2749 4.20496,3.27491 4.20495,3.2749 4.20496,3.2749 4.20496,3.2749 4.20495,3.2749 4.20496,3.27491 4.20496,3.2749 4.20495,3.2749 4.20496,3.2749 4.20495,3.27491 4.20496,3.2749 4.20496,3.27487 4.20495,3.2749 4.20496,3.2749 4.20495,3.27491 4.20496,3.2749 4.20496,3.2749 4.20495,3.2749 4.20496,3.27494 4.20495,3.27484 4.20496,3.2749 4.20496,3.2749 4.20498,3.27491 4.20496,3.2749 4.20495,3.2749 4.20496,3.2749 4.20496,3.2749 4.20495,3.27491 4.20496,3.2749 4.20496,3.2749 4.20495,3.2749 4.20496,3.27491 4.20492,3.2749 4.20496,3.2749 4.20495,3.2749 4.20496,3.27491 4.20496,3.2749 4.20495,3.2749 4.20496,3.2749 4.20502,3.27491 4.20495,3.2749 4.2049,3.2749 4.20495,3.2749 4.20502,3.2749 4.2049,3.27491 4.20501,3.2749 4.20496,3.2749 4.20495,3.2749 4.20496,3.27491 4.20496,3.2749 4.20495,3.27484 4.20496,3.27496 4.20495,3.27484 4.20496,3.27491 4.20496,3.27496 4.20495,3.2749 4.20496,3.27484 4.20496,3.27491 4.20495,3.2749 4.20496,3.2749 4.20495,3.2749 4.20496,3.27491 4.20496,3.2749 4.20495,3.2749 4.20496,3.2749 4.20495,3.27491 4.20496,3.2749 4.20496,3.2749 4.20495,3.2749 4.20496,3.2749 4.20495,3.27491 4.20496,3.2749 4.20496,3.2749 4.20495,3.2749 4.20496,3.27491 4.20495,3.2749 4.20496,3.2749 4.20496,3.2749 4.20495,3.27491 4.20496,3.2749 4.20495,3.2749 4.20496,3.27484 4.20496,3.27497 4.20495,3.2749 4.20496,3.27484 4.20495,3.2749 2.98041,2.32123"
       style="fill:none;stroke:#fc8002;stroke-width:3;stroke-linecap:butt;stroke-linejoin:round;stroke-miterlimit:10;stroke-dasharray:none;stroke-opacity:1"
       transform="matrix(0.66666667,0,0,0.66666667,-14.666573,-35.375)" />
    <path
       id="path126"
       d="m 168.57719,61.919888 1.73386,1.111858 4.20496,2.696457 4.20497,2.696457 4.20495,2.69648 4.20494,2.696456 4.20496,2.696488 4.20497,2.696457 4.20496,2.696457 4.20495,2.696487 4.20494,2.696457 4.20496,2.696457 4.20497,2.69648 4.20496,2.696457 4.20495,2.696457 4.20495,2.696477 4.20497,2.69646 4.20495,2.69649 4.20496,2.69645 4.20497,2.69646 4.20494,2.69649 4.20496,2.69645 4.20495,2.69646 4.20496,2.69648 4.20495,2.69646 4.20499,2.69646 4.20493,2.69648 4.20495,2.69645 4.20496,2.69646 4.20499,2.69649 4.20495,2.69645 4.20496,2.69649 4.20492,2.69646 4.20499,2.69645 4.20493,2.69648 4.20498,2.69647 4.20496,2.69644 4.20492,2.69649 4.20499,2.69645 4.20493,2.69646 4.20498,2.69649 4.20496,2.69646 4.20495,2.69648 4.20496,2.69646 4.20496,2.69647 4.20495,2.69646 4.20496,2.69647 4.20495,2.69646 4.20496,2.69646 4.20496,2.69647 4.20495,2.69647 4.20496,2.69647 4.20495,2.69646 4.20496,2.69647 4.20496,2.69647 4.20495,2.69646 4.20496,2.69647 4.20496,2.69647 4.20495,2.69646 4.20496,2.69646 4.20495,2.69647 4.20496,2.69647 4.20496,2.69647 4.20495,2.69646 4.20496,2.69647 4.20495,2.69648 4.20496,2.69645 4.20496,2.69648 4.20495,2.69647 4.20496,2.69645 4.20495,2.69646 4.20496,2.69647 4.20496,2.69648 4.20498,2.69647 4.20496,2.69644 4.20495,2.69647 4.20496,2.69647 4.20496,2.69648 4.20495,2.69647 4.20496,2.69647 4.20496,2.69647 4.20495,2.69644 4.20496,2.69648 4.20492,2.69647 4.20496,2.69647 4.20495,2.69644 4.20496,2.69647 4.20496,2.69648 4.20495,2.69647 4.20496,2.69647 4.20502,2.69647 4.20495,2.69644 4.2049,2.69648 4.20495,2.69647 4.20502,2.69647 4.2049,2.69647 4.20501,2.69644 4.20496,2.69648 4.20495,2.69647 4.20496,2.69647 4.20496,2.69647 4.20495,2.69648 4.20496,2.69644 4.20495,2.69647 4.20496,2.69647 4.20496,2.69647 4.20495,2.69648 4.20496,2.69644 4.20496,2.69647 4.20495,2.69647 4.20496,2.69647 4.20495,2.69648 4.20496,2.69647 4.20496,2.69644 4.20495,2.69647 4.20496,2.69647 4.20495,2.69648 4.20496,2.69647 4.20496,2.69644 4.20495,2.69647 4.20496,2.69647 4.20495,2.69648 4.20496,2.69647 4.20496,2.69647 4.20495,2.69644 4.20496,2.69648 4.20495,2.69647 4.20496,2.69647 4.20496,2.69647 4.20495,2.69644 4.20496,2.69648 4.20495,2.69647 4.20496,2.69647 4.20496,2.69647 4.20495,2.69647 4.20496,2.69645 4.20495,2.69647 4.20496,2.69647 4.20496,2.69647 4.20495,2.69647 4.20496,2.69645 4.20495,2.69647 4.20496,2.69647 4.20496,2.69647 4.20495,2.69647 4.20496,2.69648 4.20496,2.69644 4.20495,2.69647 4.20496,2.69647 4.20495,2.69648 4.20496,2.69647 4.20496,2.69644 4.20495,2.69647 4.20496,2.69647 4.20495,2.69648 4.20496,2.69647 4.20496,2.69647 4.20501,2.69644 4.2049,2.69647 4.20495,2.69648 4.20496,2.69647 4.20496,2.69647 4.20501,2.69644 4.2049,2.69647 4.20495,2.69648 4.20502,2.69647 4.2049,2.69647 4.20501,2.69644 4.2049,2.6965 4.20495,2.69648 4.20502,2.69647 1.14124,0.73181"
       style="fill:none;stroke:#fc8002;stroke-width:3;stroke-linecap:butt;stroke-linejoin:round;stroke-miterlimit:10;stroke-dasharray:none;stroke-opacity:1"
       transform="matrix(0.66666667,0,0,0.66666667,-14.666573,-35.375)" />
    <path
       id="path127"
       d="m 648.6662,652.24365 h 142.31988 v -14.97326 l -10e-4,-0.004 L 345.06583,175.09511 220.53074,95.235851 V 267.24921 l 238.7579,247.45969 29.69055,23.12359 159.68717,114.41156 z"
       style="fill:#fabc71;fill-opacity:0.701961;fill-rule:nonzero;stroke:none"
       transform="matrix(0.66666667,0,0,0.66666667,-14.666573,-35.375)" />
    <path
       id="path128"
       d="m 501.57675,545.46716 149.02536,106.77277 64.85614,6e-5 62.92572,-6e-5 9.2e-4,-2.7973 -3.1e-4,-21.77075 -431.51239,-447.23932 -113.7404,-72.93718 3e-5,78.761 2e-5,91.56869 227.35253,235.63868 z"
       style="fill:#93d0eb;fill-opacity:0.6;fill-rule:nonzero;stroke:none"
       transform="matrix(0.66666667,0,0,0.66666667,-14.666573,-35.375)" />
    <path
       id="path129"
       d="m 258.19946,298.87421 204.66138,212.12048 63.78326,49.6756 127.80603,91.56964 59.58527,6e-5 39.28125,-6e-5 5.5e-4,-3.35004 -10e-4,-40.33142 -402.84775,-417.52995 -92.26883,-59.16831 v 77.33776 89.67624 z"
       style="fill:#4294f9;fill-opacity:0.6;fill-rule:nonzero;stroke:none"
       transform="matrix(0.66666667,0,0,0.66666667,-14.666573,-35.375)" />
    <path
       id="path130"
       d="m 378.05359,399.51505 96.16965,99.67465 159.23983,124.01904 V 564.47858 517.17865 L 378.05356,252.46045 v 72.26019 z"
       style="fill:#4f6cdd;fill-opacity:0.6;fill-rule:nonzero;stroke:none"
       transform="matrix(0.66666667,0,0,0.66666667,-14.666573,-35.375)" />
    <path
       id="path131"
       d="M 866,225 V 78 H 580 v 147 z"
       style="fill:#ffffff;fill-opacity:1;fill-rule:nonzero;stroke:none"
       transform="matrix(0.66666667,0,0,0.66666667,-14.666573,-35.375)" />
    <text
       id="text131"
       xml:space="preserve"
       transform="matrix(0.66666667,0,0,0.66666667,418.91806,37.269028)"><tspan
         style="font-variant:normal;font-weight:normal;font-size:30px;font-family:'Times New Roman';writing-mode:lr-tb;fill:#000000;fill-opacity:1;fill-rule:nonzero;stroke:none"
         x="0 21.66 34.950001 43.259998 56.549999 66.540001 89.849998 98.160004 113.16 121.47 133.14 141.45 149.75999 163.05 170.55 192.21001"
         y="0"
         sodipodi:role="line"
         id="tspan131">Deterministic AF</tspan></text>
    <path
       id="path132"
       d="M 645.88483,110.6944 V 85.237694 H 585.9895 V 110.6944 Z"
       style="fill:#fabc71;fill-opacity:0.701961;fill-rule:nonzero;stroke:none"
       transform="matrix(0.66666667,0,0,0.66666667,-14.666573,-35.375)" />
    <path
       id="path133"
       d="m 3.704937,-4.2421875 c 0,0.6738281 0.1171875,1.3007812 0.3515625,1.875 0.2460937,0.5800781 0.6152344,1.0488281 1.1015625,1.40625 0.4980469,0.34570313 1.078125,0.515625 1.734375,0.515625 0.4511719,0 0.9257812,-0.09375 1.4296875,-0.28125 0.515625,-0.19921875 0.9902344,-0.421875 1.4296875,-0.65625 0.433594,-0.234375 0.65625,-0.3515625 0.65625,-0.3515625 0.105469,0 0.193359,0.064453 0.257812,0.1875 0.05859,0.1113281 0.09375,0.2285156 0.09375,0.3515625 0,0.1113281 -0.02344,0.1757813 -0.07031,0.1875 -1.2539063,0.890625 -2.5253906,1.3359375 -3.8203125,1.3359375 -1.0488281,0 -2.0039063,-0.24609375 -2.859375,-0.7265625 -0.84375,-0.49804688 -1.5,-1.1835937 -1.96875,-2.0625 C 1.5838432,-3.3339844 1.361187,-4.2949219 1.361187,-5.34375 c 0,-1.03125 0.1992187,-2.015625 0.609375,-2.953125 0.421875,-0.9375 0.9960937,-1.746094 1.734375,-2.4375 0.75,-0.703125 1.59375,-1.242188 2.53125,-1.617188 0.9375,-0.386718 1.921875,-0.585937 2.953125,-0.585937 h 1.6875 c 0.310547,0 0.46875,0.152344 0.46875,0.445312 0,0.175782 -0.06445,0.322266 -0.1875,0.445313 -0.111328,0.111328 -0.246094,0.164062 -0.398438,0.164062 H 9.1189995 c -0.796875,0 -1.5234375,0.181641 -2.1796875,0.539063 -0.6445313,0.345703 -1.1835938,0.832031 -1.6171875,1.453125 -0.4394531,0.6269531 -0.7851563,1.3359375 -1.03125,2.1328125 h 5.296875 c 0.140625,0 0.2460937,0.041016 0.328125,0.1171875 0.09375,0.082031 0.1406245,0.1816406 0.1406245,0.3046875 0,0.1757813 -0.058593,0.3222656 -0.164062,0.4453125 -0.1113281,0.1113281 -0.2519531,0.1640625 -0.421875,0.1640625 H 4.0096245 c -0.2050781,1.03125 -0.3046875,1.8632813 -0.3046875,2.484375 z m 0,0"
       style="fill:#000000;fill-opacity:1;fill-rule:nonzero;stroke:none"
       aria-label="0"
       transform="matrix(0.66666667,0,0,0.66666667,418.66676,60.625)" />
    <text
       id="text133"
       xml:space="preserve"
       transform="matrix(0.66666667,0,0,0.66666667,432.33343,60.625)"><tspan
         style="font-variant:normal;font-weight:normal;font-size:30px;font-family:'Times New Roman';writing-mode:lr-tb;fill:#000000;fill-opacity:1;fill-rule:nonzero;stroke:none"
         x="0 16.889999 24.389999 39.389999 46.889999 61.889999"
         y="0"
         sodipodi:role="line"
         id="tspan133">= 0.32</tspan></text>
    <path
       id="path134"
       d="M 645.88483,145.88455 V 120.42784 H 585.9895 v 25.45671 z"
       style="fill:#93d0eb;fill-opacity:0.6;fill-rule:nonzero;stroke:none"
       transform="matrix(0.66666667,0,0,0.66666667,-14.666573,-35.375)" />
    <path
       id="path135"
       d="m 3.704937,-4.2421875 c 0,0.6738281 0.1171875,1.3007812 0.3515625,1.875 0.2460937,0.5800781 0.6152344,1.0488281 1.1015625,1.40625 0.4980469,0.34570313 1.078125,0.515625 1.734375,0.515625 0.4511719,0 0.9257812,-0.09375 1.4296875,-0.28125 0.515625,-0.19921875 0.9902344,-0.421875 1.4296875,-0.65625 0.433594,-0.234375 0.65625,-0.3515625 0.65625,-0.3515625 0.105469,0 0.193359,0.064453 0.257812,0.1875 0.05859,0.1113281 0.09375,0.2285156 0.09375,0.3515625 0,0.1113281 -0.02344,0.1757813 -0.07031,0.1875 -1.2539063,0.890625 -2.5253906,1.3359375 -3.8203125,1.3359375 -1.0488281,0 -2.0039063,-0.24609375 -2.859375,-0.7265625 -0.84375,-0.49804688 -1.5,-1.1835937 -1.96875,-2.0625 C 1.5838432,-3.3339844 1.361187,-4.2949219 1.361187,-5.34375 c 0,-1.03125 0.1992187,-2.015625 0.609375,-2.953125 0.421875,-0.9375 0.9960937,-1.746094 1.734375,-2.4375 0.75,-0.703125 1.59375,-1.242188 2.53125,-1.617188 0.9375,-0.386718 1.921875,-0.585937 2.953125,-0.585937 h 1.6875 c 0.310547,0 0.46875,0.152344 0.46875,0.445312 0,0.175782 -0.06445,0.322266 -0.1875,0.445313 -0.111328,0.111328 -0.246094,0.164062 -0.398438,0.164062 H 9.1189995 c -0.796875,0 -1.5234375,0.181641 -2.1796875,0.539063 -0.6445313,0.345703 -1.1835938,0.832031 -1.6171875,1.453125 -0.4394531,0.6269531 -0.7851563,1.3359375 -1.03125,2.1328125 h 5.296875 c 0.140625,0 0.2460937,0.041016 0.328125,0.1171875 0.09375,0.082031 0.1406245,0.1816406 0.1406245,0.3046875 0,0.1757813 -0.058593,0.3222656 -0.164062,0.4453125 -0.1113281,0.1113281 -0.2519531,0.1640625 -0.421875,0.1640625 H 4.0096245 c -0.2050781,1.03125 -0.3046875,1.8632813 -0.3046875,2.484375 z m 0,0"
       style="fill:#000000;fill-opacity:1;fill-rule:nonzero;stroke:none"
       aria-label="0"
       transform="matrix(0.66666667,0,0,0.66666667,418.66676,84.625)" />
    <text
       id="text135"
       xml:space="preserve"
       transform="matrix(0.66666667,0,0,0.66666667,432.33343,84.625)"><tspan
         style="font-variant:normal;font-weight:normal;font-size:30px;font-family:'Times New Roman';writing-mode:lr-tb;fill:#000000;fill-opacity:1;fill-rule:nonzero;stroke:none"
         x="0 16.889999 24.389999 39.389999 46.889999 61.889999"
         y="0"
         sodipodi:role="line"
         id="tspan135">= 0.05</tspan></text>
    <path
       id="path136"
       d="M 645.88483,181.57385 V 156.11714 H 585.9895 v 25.45671 z"
       style="fill:#4294f9;fill-opacity:0.6;fill-rule:nonzero;stroke:none"
       transform="matrix(0.66666667,0,0,0.66666667,-14.666573,-35.375)" />
    <path
       id="path137"
       d="m 3.704937,-4.2421875 c 0,0.6738281 0.1171875,1.3007812 0.3515625,1.875 0.2460937,0.5800781 0.6152344,1.0488281 1.1015625,1.40625 0.4980469,0.34570313 1.078125,0.515625 1.734375,0.515625 0.4511719,0 0.9257812,-0.09375 1.4296875,-0.28125 0.515625,-0.19921875 0.9902344,-0.421875 1.4296875,-0.65625 0.433594,-0.234375 0.65625,-0.3515625 0.65625,-0.3515625 0.105469,0 0.193359,0.064453 0.257812,0.1875 0.05859,0.1113281 0.09375,0.2285156 0.09375,0.3515625 0,0.1113281 -0.02344,0.1757813 -0.07031,0.1875 -1.2539063,0.890625 -2.5253906,1.3359375 -3.8203125,1.3359375 -1.0488281,0 -2.0039063,-0.24609375 -2.859375,-0.7265625 -0.84375,-0.49804688 -1.5,-1.1835937 -1.96875,-2.0625 C 1.5838432,-3.3339844 1.361187,-4.2949219 1.361187,-5.34375 c 0,-1.03125 0.1992187,-2.015625 0.609375,-2.953125 0.421875,-0.9375 0.9960937,-1.746094 1.734375,-2.4375 0.75,-0.703125 1.59375,-1.242188 2.53125,-1.617188 0.9375,-0.386718 1.921875,-0.585937 2.953125,-0.585937 h 1.6875 c 0.310547,0 0.46875,0.152344 0.46875,0.445312 0,0.175782 -0.06445,0.322266 -0.1875,0.445313 -0.111328,0.111328 -0.246094,0.164062 -0.398438,0.164062 H 9.1189995 c -0.796875,0 -1.5234375,0.181641 -2.1796875,0.539063 -0.6445313,0.345703 -1.1835938,0.832031 -1.6171875,1.453125 -0.4394531,0.6269531 -0.7851563,1.3359375 -1.03125,2.1328125 h 5.296875 c 0.140625,0 0.2460937,0.041016 0.328125,0.1171875 0.09375,0.082031 0.1406245,0.1816406 0.1406245,0.3046875 0,0.1757813 -0.058593,0.3222656 -0.164062,0.4453125 -0.1113281,0.1113281 -0.2519531,0.1640625 -0.421875,0.1640625 H 4.0096245 c -0.2050781,1.03125 -0.3046875,1.8632813 -0.3046875,2.484375 z m 0,0"
       style="fill:#000000;fill-opacity:1;fill-rule:nonzero;stroke:none"
       aria-label="0"
       transform="matrix(0.66666667,0,0,0.66666667,418.66676,108.625)" />
    <text
       id="text137"
       xml:space="preserve"
       transform="matrix(0.66666667,0,0,0.66666667,432.33343,108.625)"><tspan
         style="font-variant:normal;font-weight:normal;font-size:30px;font-family:'Times New Roman';writing-mode:lr-tb;fill:#000000;fill-opacity:1;fill-rule:nonzero;stroke:none"
         x="0 16.889999 24.389999 39.389999 46.889999 61.889999 76.889999"
         y="0"
         sodipodi:role="line"
         id="tspan137">= 0.003</tspan></text>
    <path
       id="path138"
       d="M 645.88483,217.26315 V 191.80646 H 585.9895 v 25.45669 z"
       style="fill:#4f6cdd;fill-opacity:0.6;fill-rule:nonzero;stroke:none"
       transform="matrix(0.66666667,0,0,0.66666667,-14.666573,-35.375)" />
    <path
       id="path139"
       d="M 580,225 V 78 h 286 v 147 z"
       style="fill:none;stroke:#262626;stroke-width:1;stroke-linecap:butt;stroke-linejoin:miter;stroke-miterlimit:10;stroke-dasharray:none;stroke-opacity:1"
       transform="matrix(0.66666667,0,0,0.66666667,-14.666573,-35.375)" />
  </g>
</svg>
