<?xml version="1.0" encoding="UTF-8" standalone="no"?>
<!-- Created with Inkscape (http://www.inkscape.org/) -->

<svg
   version="1.1"
   id="svg1"
   width="577.33331"
   height="508"
   viewBox="0 0 577.33331 508"
   sodipodi:docname="Grid_Radial.svg"
   inkscape:version="1.3.2 (091e20e, 2023-11-25, custom)"
   xmlns:inkscape="http://www.inkscape.org/namespaces/inkscape"
   xmlns:sodipodi="http://sodipodi.sourceforge.net/DTD/sodipodi-0.dtd"
   xmlns:xlink="http://www.w3.org/1999/xlink"
   xmlns="http://www.w3.org/2000/svg"
   xmlns:svg="http://www.w3.org/2000/svg">
  <defs
     id="defs1">
    <rect
       x="213.26205"
       y="90.825592"
       width="13.356705"
       height="23.15162"
       id="rect123" />
    <linearGradient
       id="swatch123"
       inkscape:swatch="solid">
      <stop
         style="stop-color:#ffffff;stop-opacity:1;"
         offset="0"
         id="stop123" />
    </linearGradient>
    <linearGradient
       id="swatch116"
       inkscape:swatch="solid">
      <stop
         style="stop-color:#000000;stop-opacity:1;"
         offset="0"
         id="stop116" />
    </linearGradient>
    <rect
       x="213.26205"
       y="90.825592"
       width="13.356705"
       height="23.151621"
       id="rect123-4" />
    <rect
       x="213.26205"
       y="90.825592"
       width="13.356705"
       height="23.151621"
       id="rect123-0" />
    <rect
       x="213.26205"
       y="90.825592"
       width="13.356705"
       height="23.151621"
       id="rect123-02" />
    <rect
       x="213.26205"
       y="90.825592"
       width="13.356705"
       height="23.151621"
       id="rect123-5" />
    <rect
       x="213.26205"
       y="90.825592"
       width="13.356705"
       height="23.151621"
       id="rect123-1" />
    <rect
       x="213.26205"
       y="90.825592"
       width="13.356705"
       height="23.151621"
       id="rect123-06" />
    <rect
       x="213.26205"
       y="90.825592"
       width="13.356705"
       height="23.151621"
       id="rect123-01" />
    <symbol
       id="g126">
      <circle
         style="fill:none;fill-opacity:1;stroke:#000000;stroke-opacity:1"
         id="path123-6"
         cx="261.55609"
         cy="214.48598"
         r="10.685364" />
      <text
         xml:space="preserve"
         id="text123-9"
         style="font-style:normal;font-variant:normal;font-weight:normal;font-stretch:normal;font-size:16px;font-family:'Times New Roman';-inkscape-font-specification:'Times New Roman, Normal';font-variant-ligatures:normal;font-variant-caps:normal;font-variant-numeric:normal;font-variant-east-asian:normal;white-space:pre;shape-inside:url(#rect123-0);shape-padding:1.78089;display:inline;fill:#000000;fill-opacity:0.901961;stroke:#000000;stroke-opacity:1"
         transform="translate(42.060913,112.97503)"><tspan
           x="215.04297"
           y="106.80936"
           id="tspan1">2</tspan></text>
    </symbol>
    <symbol
       id="g127">
      <circle
         style="fill:none;fill-opacity:1;stroke:#000000;stroke-opacity:1"
         id="path123-1"
         cx="384.69632"
         cy="334.97153"
         r="10.685364" />
      <text
         xml:space="preserve"
         id="text123-8"
         style="font-style:normal;font-variant:normal;font-weight:normal;font-stretch:normal;font-size:16px;font-family:'Times New Roman';-inkscape-font-specification:'Times New Roman, Normal';font-variant-ligatures:normal;font-variant-caps:normal;font-variant-numeric:normal;font-variant-east-asian:normal;white-space:pre;shape-inside:url(#rect123-5);shape-padding:1.78089;display:inline;fill:#010102;fill-opacity:0.901961;stroke:#000000;stroke-opacity:1"
         transform="translate(165.20115,233.46057)"><tspan
           x="215.04297"
           y="106.80936"
           id="tspan2">3</tspan></text>
    </symbol>
    <symbol
       id="g128">
      <circle
         style="fill:none;fill-opacity:1;stroke:#000000;stroke-opacity:1"
         id="path123-27"
         cx="454.59641"
         cy="375.04163"
         r="10.685364" />
      <text
         xml:space="preserve"
         id="text123-96"
         style="font-style:normal;font-variant:normal;font-weight:normal;font-stretch:normal;font-size:16px;font-family:'Times New Roman';-inkscape-font-specification:'Times New Roman, Normal';font-variant-ligatures:normal;font-variant-caps:normal;font-variant-numeric:normal;font-variant-east-asian:normal;white-space:pre;shape-inside:url(#rect123-1);shape-padding:1.78089;display:inline;fill:#010101;fill-opacity:0.901961;stroke:#000000;stroke-opacity:1"
         transform="translate(235.10123,273.53069)"><tspan
           x="215.04297"
           y="106.80936"
           id="tspan3">4</tspan></text>
    </symbol>
    <symbol
       id="g129">
      <circle
         style="fill:none;fill-opacity:1;stroke:#000000;stroke-opacity:1"
         id="path123-2"
         cx="498.64548"
         cy="388.18625"
         r="10.685364" />
      <text
         xml:space="preserve"
         id="text123-70"
         style="font-style:normal;font-variant:normal;font-weight:normal;font-stretch:normal;font-size:16px;font-family:'Times New Roman';-inkscape-font-specification:'Times New Roman, Normal';font-variant-ligatures:normal;font-variant-caps:normal;font-variant-numeric:normal;font-variant-east-asian:normal;white-space:pre;shape-inside:url(#rect123-02);shape-padding:1.78089;display:inline;fill:#020203;fill-opacity:0.901961;stroke:#000000;stroke-opacity:1"
         transform="translate(279.15031,286.6753)"><tspan
           x="215.04297"
           y="106.80936"
           id="tspan4">5</tspan></text>
    </symbol>
    <symbol
       id="g130">
      <circle
         style="fill:none;fill-opacity:1;stroke:#000000;stroke-opacity:1"
         id="path123-73"
         cx="536.4071"
         cy="365.48596"
         r="10.685364" />
      <text
         xml:space="preserve"
         id="text123-3"
         style="font-style:normal;font-variant:normal;font-weight:normal;font-stretch:normal;font-size:16px;font-family:'Times New Roman';-inkscape-font-specification:'Times New Roman, Normal';font-variant-ligatures:normal;font-variant-caps:normal;font-variant-numeric:normal;font-variant-east-asian:normal;white-space:pre;shape-inside:url(#rect123-06);shape-padding:1.78089;display:inline;fill:#020203;fill-opacity:0.901961;stroke:#000000;stroke-opacity:1"
         transform="translate(316.91193,263.97503)"><tspan
           x="215.04297"
           y="106.80936"
           id="tspan5">6</tspan></text>
    </symbol>
    <symbol
       id="g131">
      <circle
         style="fill:none;fill-opacity:1;stroke:#000000;stroke-opacity:1"
         id="path123-0"
         cx="406.47195"
         cy="197.46231"
         r="10.685364" />
      <text
         xml:space="preserve"
         id="text123-80"
         style="font-style:normal;font-variant:normal;font-weight:normal;font-stretch:normal;font-size:16px;font-family:'Times New Roman';-inkscape-font-specification:'Times New Roman, Normal';font-variant-ligatures:normal;font-variant-caps:normal;font-variant-numeric:normal;font-variant-east-asian:normal;white-space:pre;shape-inside:url(#rect123-01);shape-padding:1.78089;display:inline;fill:#000001;fill-opacity:0.901961;stroke:#000000;stroke-opacity:1"
         transform="translate(186.97678,95.951367)"><tspan
           x="215.04297"
           y="106.80936"
           id="tspan6">7</tspan></text>
    </symbol>
    <symbol
       id="g132">
      <circle
         style="fill:none;fill-opacity:1;stroke:#000000;stroke-opacity:1"
         id="path123-7"
         cx="260.22043"
         cy="37.287029"
         r="10.685364" />
      <text
         xml:space="preserve"
         id="text123-7"
         style="font-style:normal;font-variant:normal;font-weight:normal;font-stretch:normal;font-size:16px;font-family:'Times New Roman';-inkscape-font-specification:'Times New Roman, Normal';font-variant-ligatures:normal;font-variant-caps:normal;font-variant-numeric:normal;font-variant-east-asian:normal;white-space:pre;shape-inside:url(#rect123-4);shape-padding:1.78089;fill:#010102;fill-opacity:0.901961;stroke:#000000;stroke-opacity:1"
         transform="translate(40.725243,-64.223918)"><tspan
           x="215.04297"
           y="106.80936"
           id="tspan7">8</tspan></text>
    </symbol>
    <symbol
       id="g134">
      <circle
         style="fill:#303030;fill-opacity:0;stroke:#000000;stroke-opacity:1"
         id="circle133"
         cx="222.1665"
         cy="83.702019"
         r="10.685364" />
      <text
         xml:space="preserve"
         id="text133"
         style="white-space:pre;shape-inside:url(#rect123);shape-padding:1.78089;fill:#020203;fill-opacity:0.901961;stroke:#000000;stroke-opacity:1"
         transform="translate(2.6713373,-17.808939)"><tspan
           x="215.04297"
           y="106.80936"
           id="tspan9"><tspan
             style="font-size:16px;font-family:'Times New Roman';-inkscape-font-specification:'Times New Roman, Normal'"
             id="tspan8">1</tspan></tspan></text>
    </symbol>
  </defs>
  <sodipodi:namedview
     id="namedview1"
     pagecolor="#ffffff"
     bordercolor="#000000"
     borderopacity="0.25"
     inkscape:showpageshadow="2"
     inkscape:pageopacity="0.0"
     inkscape:pagecheckerboard="0"
     inkscape:deskcolor="#d1d1d1"
     inkscape:zoom="2.246063"
     inkscape:cx="288.72743"
     inkscape:cy="254"
     inkscape:window-width="2560"
     inkscape:window-height="1351"
     inkscape:window-x="-9"
     inkscape:window-y="78"
     inkscape:window-maximized="1"
     inkscape:current-layer="g1">
    <inkscape:page
       x="0"
       y="0"
       inkscape:label="1"
       id="page1"
       width="577.33331"
       height="508"
       margin="0"
       bleed="0" />
  </sodipodi:namedview>
  <g
     id="g1"
     inkscape:groupmode="layer"
     inkscape:label="1">
    <path
       id="path1"
       d="M 0,0 H 812 V 687 H 0 Z"
       style="fill:#ffffff;fill-opacity:1;fill-rule:nonzero;stroke:none"
       transform="matrix(0.80000002,0,0,0.79999997,-15.199903,-40.266118)" />
    <path
       id="path2"
       d="M 106,611 H 735 V 52 H 106 Z"
       style="fill:#ffffff;fill-opacity:1;fill-rule:nonzero;stroke:none"
       transform="matrix(0.80000002,0,0,0.79999997,-15.199903,-40.266118)" />
    <path
       id="path3"
       d="M 106,611 V 51.999992"
       style="fill:none;stroke:#262626;stroke-width:0.833333;stroke-linecap:butt;stroke-linejoin:round;stroke-miterlimit:10;stroke-dasharray:none;stroke-opacity:0.14902"
       transform="matrix(0.80000002,0,0,0.79999997,-15.199903,-40.266118)" />
    <path
       id="path4"
       d="M 184.625,611 V 51.999992"
       style="fill:none;stroke:#262626;stroke-width:0.833333;stroke-linecap:butt;stroke-linejoin:round;stroke-miterlimit:10;stroke-dasharray:none;stroke-opacity:0.14902"
       transform="matrix(0.80000002,0,0,0.79999997,-15.199903,-40.266118)" />
    <path
       id="path5"
       d="M 263.25,611 V 51.999992"
       style="fill:none;stroke:#262626;stroke-width:0.833333;stroke-linecap:butt;stroke-linejoin:round;stroke-miterlimit:10;stroke-dasharray:none;stroke-opacity:0.14902"
       transform="matrix(0.80000002,0,0,0.79999997,-15.199903,-40.266118)" />
    <path
       id="path6"
       d="M 341.875,611 V 51.999992"
       style="fill:none;stroke:#262626;stroke-width:0.833333;stroke-linecap:butt;stroke-linejoin:round;stroke-miterlimit:10;stroke-dasharray:none;stroke-opacity:0.14902"
       transform="matrix(0.80000002,0,0,0.79999997,-15.199903,-40.266118)" />
    <path
       id="path7"
       d="M 420.5,611 V 51.999992"
       style="fill:none;stroke:#262626;stroke-width:0.833333;stroke-linecap:butt;stroke-linejoin:round;stroke-miterlimit:10;stroke-dasharray:none;stroke-opacity:0.14902"
       transform="matrix(0.80000002,0,0,0.79999997,-15.199903,-40.266118)" />
    <path
       id="path8"
       d="M 499.125,611 V 51.999992"
       style="fill:none;stroke:#262626;stroke-width:0.833333;stroke-linecap:butt;stroke-linejoin:round;stroke-miterlimit:10;stroke-dasharray:none;stroke-opacity:0.14902"
       transform="matrix(0.80000002,0,0,0.79999997,-15.199903,-40.266118)" />
    <path
       id="path9"
       d="M 577.75,611 V 51.999992"
       style="fill:none;stroke:#262626;stroke-width:0.833333;stroke-linecap:butt;stroke-linejoin:round;stroke-miterlimit:10;stroke-dasharray:none;stroke-opacity:0.14902"
       transform="matrix(0.80000002,0,0,0.79999997,-15.199903,-40.266118)" />
    <path
       id="path10"
       d="M 656.375,611 V 51.999992"
       style="fill:none;stroke:#262626;stroke-width:0.833333;stroke-linecap:butt;stroke-linejoin:round;stroke-miterlimit:10;stroke-dasharray:none;stroke-opacity:0.14902"
       transform="matrix(0.80000002,0,0,0.79999997,-15.199903,-40.266118)" />
    <path
       id="path11"
       d="M 735,611 V 51.999992"
       style="fill:none;stroke:#262626;stroke-width:0.833333;stroke-linecap:butt;stroke-linejoin:round;stroke-miterlimit:10;stroke-dasharray:none;stroke-opacity:0.14902"
       transform="matrix(0.80000002,0,0,0.79999997,-15.199903,-40.266118)" />
    <path
       id="path12"
       d="M 735,585.59088 H 106"
       style="fill:none;stroke:#262626;stroke-width:0.833333;stroke-linecap:butt;stroke-linejoin:round;stroke-miterlimit:10;stroke-dasharray:none;stroke-opacity:0.14902"
       transform="matrix(0.80000002,0,0,0.79999997,-15.199903,-40.266118)" />
    <path
       id="path13"
       d="M 735,522.06818 H 106"
       style="fill:none;stroke:#262626;stroke-width:0.833333;stroke-linecap:butt;stroke-linejoin:round;stroke-miterlimit:10;stroke-dasharray:none;stroke-opacity:0.14902"
       transform="matrix(0.80000002,0,0,0.79999997,-15.199903,-40.266118)" />
    <path
       id="path14"
       d="M 735,458.54544 H 106"
       style="fill:none;stroke:#262626;stroke-width:0.833333;stroke-linecap:butt;stroke-linejoin:round;stroke-miterlimit:10;stroke-dasharray:none;stroke-opacity:0.14902"
       transform="matrix(0.80000002,0,0,0.79999997,-15.199903,-40.266118)" />
    <path
       id="path15"
       d="M 735,395.02274 H 106"
       style="fill:none;stroke:#262626;stroke-width:0.833333;stroke-linecap:butt;stroke-linejoin:round;stroke-miterlimit:10;stroke-dasharray:none;stroke-opacity:0.14902"
       transform="matrix(0.80000002,0,0,0.79999997,-15.199903,-40.266118)" />
    <path
       id="path16"
       d="M 735,331.5 H 106"
       style="fill:none;stroke:#262626;stroke-width:0.833333;stroke-linecap:butt;stroke-linejoin:round;stroke-miterlimit:10;stroke-dasharray:none;stroke-opacity:0.14902"
       transform="matrix(0.80000002,0,0,0.79999997,-15.199903,-40.266118)" />
    <path
       id="path17"
       d="M 735,267.97726 H 106"
       style="fill:none;stroke:#262626;stroke-width:0.833333;stroke-linecap:butt;stroke-linejoin:round;stroke-miterlimit:10;stroke-dasharray:none;stroke-opacity:0.14902"
       transform="matrix(0.80000002,0,0,0.79999997,-15.199903,-40.266118)" />
    <path
       id="path18"
       d="M 735,204.45454 H 106"
       style="fill:none;stroke:#262626;stroke-width:0.833333;stroke-linecap:butt;stroke-linejoin:round;stroke-miterlimit:10;stroke-dasharray:none;stroke-opacity:0.14902"
       transform="matrix(0.80000002,0,0,0.79999997,-15.199903,-40.266118)" />
    <path
       id="path19"
       d="M 735,140.93182 H 106"
       style="fill:none;stroke:#262626;stroke-width:0.833333;stroke-linecap:butt;stroke-linejoin:round;stroke-miterlimit:10;stroke-dasharray:none;stroke-opacity:0.14902"
       transform="matrix(0.80000002,0,0,0.79999997,-15.199903,-40.266118)" />
    <path
       id="path20"
       d="M 735,77.409088 H 106"
       style="fill:none;stroke:#262626;stroke-width:0.833333;stroke-linecap:butt;stroke-linejoin:round;stroke-miterlimit:10;stroke-dasharray:none;stroke-opacity:0.14902"
       transform="matrix(0.80000002,0,0,0.79999997,-15.199903,-40.266118)" />
    <path
       id="path21"
       d="M 106,611 H 735"
       style="fill:none;stroke:#262626;stroke-width:0.833333;stroke-linecap:square;stroke-linejoin:round;stroke-miterlimit:10;stroke-dasharray:none;stroke-opacity:1"
       transform="matrix(0.80000002,0,0,0.79999997,-15.199903,-40.266118)" />
    <path
       id="path22"
       d="M 106,51.999992 H 735"
       style="fill:none;stroke:#262626;stroke-width:0.833333;stroke-linecap:square;stroke-linejoin:round;stroke-miterlimit:10;stroke-dasharray:none;stroke-opacity:1"
       transform="matrix(0.80000002,0,0,0.79999997,-15.199903,-40.266118)" />
    <path
       id="path23"
       d="m 106,611 v -6.28998"
       style="fill:none;stroke:#262626;stroke-width:0.833333;stroke-linecap:square;stroke-linejoin:round;stroke-miterlimit:10;stroke-dasharray:none;stroke-opacity:1"
       transform="matrix(0.80000002,0,0,0.79999997,-15.199903,-40.266118)" />
    <path
       id="path24"
       d="m 184.625,611 v -6.28998"
       style="fill:none;stroke:#262626;stroke-width:0.833333;stroke-linecap:square;stroke-linejoin:round;stroke-miterlimit:10;stroke-dasharray:none;stroke-opacity:1"
       transform="matrix(0.80000002,0,0,0.79999997,-15.199903,-40.266118)" />
    <path
       id="path25"
       d="m 263.25,611 v -6.28998"
       style="fill:none;stroke:#262626;stroke-width:0.833333;stroke-linecap:square;stroke-linejoin:round;stroke-miterlimit:10;stroke-dasharray:none;stroke-opacity:1"
       transform="matrix(0.80000002,0,0,0.79999997,-15.199903,-40.266118)" />
    <path
       id="path26"
       d="m 341.875,611 v -6.28998"
       style="fill:none;stroke:#262626;stroke-width:0.833333;stroke-linecap:square;stroke-linejoin:round;stroke-miterlimit:10;stroke-dasharray:none;stroke-opacity:1"
       transform="matrix(0.80000002,0,0,0.79999997,-15.199903,-40.266118)" />
    <path
       id="path27"
       d="m 420.5,611 v -6.28998"
       style="fill:none;stroke:#262626;stroke-width:0.833333;stroke-linecap:square;stroke-linejoin:round;stroke-miterlimit:10;stroke-dasharray:none;stroke-opacity:1"
       transform="matrix(0.80000002,0,0,0.79999997,-15.199903,-40.266118)" />
    <path
       id="path28"
       d="m 499.125,611 v -6.28998"
       style="fill:none;stroke:#262626;stroke-width:0.833333;stroke-linecap:square;stroke-linejoin:round;stroke-miterlimit:10;stroke-dasharray:none;stroke-opacity:1"
       transform="matrix(0.80000002,0,0,0.79999997,-15.199903,-40.266118)" />
    <path
       id="path29"
       d="m 577.75,611 v -6.28998"
       style="fill:none;stroke:#262626;stroke-width:0.833333;stroke-linecap:square;stroke-linejoin:round;stroke-miterlimit:10;stroke-dasharray:none;stroke-opacity:1"
       transform="matrix(0.80000002,0,0,0.79999997,-15.199903,-40.266118)" />
    <path
       id="path30"
       d="m 656.375,611 v -6.28998"
       style="fill:none;stroke:#262626;stroke-width:0.833333;stroke-linecap:square;stroke-linejoin:round;stroke-miterlimit:10;stroke-dasharray:none;stroke-opacity:1"
       transform="matrix(0.80000002,0,0,0.79999997,-15.199903,-40.266118)" />
    <path
       id="path31"
       d="m 735,611 v -6.28998"
       style="fill:none;stroke:#262626;stroke-width:0.833333;stroke-linecap:square;stroke-linejoin:round;stroke-miterlimit:10;stroke-dasharray:none;stroke-opacity:1"
       transform="matrix(0.80000002,0,0,0.79999997,-15.199903,-40.266118)" />
    <path
       id="path32"
       d="m 106,51.999992 v 6.289994"
       style="fill:none;stroke:#262626;stroke-width:0.833333;stroke-linecap:square;stroke-linejoin:round;stroke-miterlimit:10;stroke-dasharray:none;stroke-opacity:1"
       transform="matrix(0.80000002,0,0,0.79999997,-15.199903,-40.266118)" />
    <path
       id="path33"
       d="m 184.625,51.999992 v 6.289994"
       style="fill:none;stroke:#262626;stroke-width:0.833333;stroke-linecap:square;stroke-linejoin:round;stroke-miterlimit:10;stroke-dasharray:none;stroke-opacity:1"
       transform="matrix(0.80000002,0,0,0.79999997,-15.199903,-40.266118)" />
    <path
       id="path34"
       d="m 263.25,51.999992 v 6.289994"
       style="fill:none;stroke:#262626;stroke-width:0.833333;stroke-linecap:square;stroke-linejoin:round;stroke-miterlimit:10;stroke-dasharray:none;stroke-opacity:1"
       transform="matrix(0.80000002,0,0,0.79999997,-15.199903,-40.266118)" />
    <path
       id="path35"
       d="m 341.875,51.999992 v 6.289994"
       style="fill:none;stroke:#262626;stroke-width:0.833333;stroke-linecap:square;stroke-linejoin:round;stroke-miterlimit:10;stroke-dasharray:none;stroke-opacity:1"
       transform="matrix(0.80000002,0,0,0.79999997,-15.199903,-40.266118)" />
    <path
       id="path36"
       d="m 420.5,51.999992 v 6.289994"
       style="fill:none;stroke:#262626;stroke-width:0.833333;stroke-linecap:square;stroke-linejoin:round;stroke-miterlimit:10;stroke-dasharray:none;stroke-opacity:1"
       transform="matrix(0.80000002,0,0,0.79999997,-15.199903,-40.266118)" />
    <path
       id="path37"
       d="m 499.125,51.999992 v 6.289994"
       style="fill:none;stroke:#262626;stroke-width:0.833333;stroke-linecap:square;stroke-linejoin:round;stroke-miterlimit:10;stroke-dasharray:none;stroke-opacity:1"
       transform="matrix(0.80000002,0,0,0.79999997,-15.199903,-40.266118)" />
    <path
       id="path38"
       d="m 577.75,51.999992 v 6.289994"
       style="fill:none;stroke:#262626;stroke-width:0.833333;stroke-linecap:square;stroke-linejoin:round;stroke-miterlimit:10;stroke-dasharray:none;stroke-opacity:1"
       transform="matrix(0.80000002,0,0,0.79999997,-15.199903,-40.266118)" />
    <path
       id="path39"
       d="m 656.375,51.999992 v 6.289994"
       style="fill:none;stroke:#262626;stroke-width:0.833333;stroke-linecap:square;stroke-linejoin:round;stroke-miterlimit:10;stroke-dasharray:none;stroke-opacity:1"
       transform="matrix(0.80000002,0,0,0.79999997,-15.199903,-40.266118)" />
    <path
       id="path40"
       d="m 735,51.999992 v 6.289994"
       style="fill:none;stroke:#262626;stroke-width:0.833333;stroke-linecap:square;stroke-linejoin:round;stroke-miterlimit:10;stroke-dasharray:none;stroke-opacity:1"
       transform="matrix(0.80000002,0,0,0.79999997,-15.199903,-40.266118)" />
    <text
       id="text40"
       xml:space="preserve"
       transform="matrix(0.80000002,0,0,0.79999997,61.600099,472.53386)"><tspan
         style="font-variant:normal;font-weight:normal;font-size:23.333px;font-family:'Times New Roman';writing-mode:lr-tb;fill:#262626;fill-opacity:1;fill-rule:nonzero;stroke:none"
         x="0 7.7698889"
         y="0"
         sodipodi:role="line"
         id="tspan40">-2</tspan></text>
    <text
       id="text41"
       xml:space="preserve"
       transform="matrix(0.80000002,0,0,0.79999997,117.7001,472.53386)"><tspan
         style="font-variant:normal;font-weight:normal;font-size:23.333px;font-family:'Times New Roman';writing-mode:lr-tb;fill:#262626;fill-opacity:1;fill-rule:nonzero;stroke:none"
         x="0 7.7698889 19.43639 25.269638"
         y="0"
         sodipodi:role="line"
         id="tspan41">-1.5</tspan></text>
    <text
       id="text42"
       xml:space="preserve"
       transform="matrix(0.80000002,0,0,0.79999997,187.4001,472.53386)"><tspan
         style="font-variant:normal;font-weight:normal;font-size:23.333px;font-family:'Times New Roman';writing-mode:lr-tb;fill:#262626;fill-opacity:1;fill-rule:nonzero;stroke:none"
         x="0 7.7698889"
         y="0"
         sodipodi:role="line"
         id="tspan42">-1</tspan></text>
    <text
       id="text43"
       xml:space="preserve"
       transform="matrix(0.80000002,0,0,0.79999997,243.5001,472.53386)"><tspan
         style="font-variant:normal;font-weight:normal;font-size:23.333px;font-family:'Times New Roman';writing-mode:lr-tb;fill:#262626;fill-opacity:1;fill-rule:nonzero;stroke:none"
         x="0 7.7698889 19.43639 25.269638"
         y="0"
         sodipodi:role="line"
         id="tspan43">-0.5</tspan></text>
    <text
       id="text44"
       xml:space="preserve"
       transform="matrix(0.80000002,0,0,0.79999997,316.40011,472.53386)"><tspan
         style="font-variant:normal;font-weight:normal;font-size:23.333px;font-family:'Times New Roman';writing-mode:lr-tb;fill:#262626;fill-opacity:1;fill-rule:nonzero;stroke:none"
         x="0"
         y="0"
         id="tspan44">0</tspan></text>
    <text
       id="text45"
       xml:space="preserve"
       transform="matrix(0.80000002,0,0,0.79999997,372.10011,472.53386)"><tspan
         style="font-variant:normal;font-weight:normal;font-size:23.333px;font-family:'Times New Roman';writing-mode:lr-tb;fill:#262626;fill-opacity:1;fill-rule:nonzero;stroke:none"
         x="0 11.6665 17.49975"
         y="0"
         sodipodi:role="line"
         id="tspan45">0.5</tspan></text>
    <text
       id="text46"
       xml:space="preserve"
       transform="matrix(0.80000002,0,0,0.79999997,442.20011,472.53386)"><tspan
         style="font-variant:normal;font-weight:normal;font-size:23.333px;font-family:'Times New Roman';writing-mode:lr-tb;fill:#262626;fill-opacity:1;fill-rule:nonzero;stroke:none"
         x="0"
         y="0"
         id="tspan46">1</tspan></text>
    <text
       id="text47"
       xml:space="preserve"
       transform="matrix(0.80000002,0,0,0.79999997,497.90011,472.53386)"><tspan
         style="font-variant:normal;font-weight:normal;font-size:23.333px;font-family:'Times New Roman';writing-mode:lr-tb;fill:#262626;fill-opacity:1;fill-rule:nonzero;stroke:none"
         x="0 11.6665 17.49975"
         y="0"
         sodipodi:role="line"
         id="tspan47">1.5</tspan></text>
    <text
       id="text48"
       xml:space="preserve"
       transform="matrix(0.80000002,0,0,0.79999997,568.00011,472.53386)"><tspan
         style="font-variant:normal;font-weight:normal;font-size:23.333px;font-family:'Times New Roman';writing-mode:lr-tb;fill:#262626;fill-opacity:1;fill-rule:nonzero;stroke:none"
         x="0"
         y="0"
         id="tspan48">2</tspan></text>
    <path
       id="path48"
       d="m -0.84110255,6.4656127 c -0.19531245,0 -0.29296875,-0.1464844 -0.29296875,-0.4296875 0.068359,-0.4833985 0.20996094,-0.7226563 0.4296875,-0.7226563 0.70312498,0 1.19140622,-0.068359 1.46484371,-0.1953125 C 1.0338974,5.0007689 1.2487411,4.6785033 1.4049911,4.1609251 L 5.154991,-10.839076 c 0.1660157,-0.415039 0.2539063,-0.947265 0.2539063,-1.601562 0,-0.947266 -0.3271484,-1.425781 -0.9765625,-1.425781 -0.703125,0 -1.2255859,0.419921 -1.5624999,1.25 -0.3271485,0.820312 -0.6445313,1.870117 -0.9570313,3.144531 0,0.1464844 -0.097656,0.2148438 -0.2929687,0.2148438 h -0.390625 c -0.053711,0 -0.1123047,-0.039063 -0.1757812,-0.1171875 -0.0683594,-0.087891 -0.0976563,-0.1660157 -0.0976563,-0.234375 0.2441406,-0.9619143 0.4785156,-1.7773443 0.703125,-2.4414063 0.2197265,-0.673828 0.5664062,-1.289063 1.0351562,-1.835938 0.46875,-0.55664 1.0546875,-0.839843 1.7578125,-0.839843 0.7666015,0 1.4355468,0.214843 2.0117187,0.644531 0.571289,0.429687 0.9423828,1.010742 1.1132812,1.738281 0.5957031,-0.703125 1.2695312,-1.274414 2.0117187,-1.71875 0.7421873,-0.439453 1.5039063,-0.664062 2.2851563,-0.664062 0.922851,0 1.728515,0.249023 2.421875,0.742187 0.688476,0.498047 1.201172,1.152344 1.542969,1.972656 0.351562,0.810547 0.527343,1.674805 0.527343,2.5976568 0,1.4355469 -0.366211,2.919922 -1.09375,4.4531252 -0.732422,1.5234375 -1.728515,2.7929688 -2.988281,3.8085939 -1.25,1.01562502 -2.5927733,1.52343754 -4.0234373,1.52343754 -0.6542968,0 -1.2402343,-0.18554688 -1.7578124,-0.54687502 C 5.9801863,-0.55098916 5.5700301,-1.0343876 5.2721785,-1.6203251 l -1.5039062,5.917969 c -0.068359,0.3222656 -0.097656,0.5126953 -0.097656,0.5664062 0,0.2978516 0.727539,0.4492188 2.1874999,0.4492188 0.234375,0 0.3515625,0.1367188 0.3515625,0.4101563 -0.078125,0.2978516 -0.1464843,0.4931641 -0.1953125,0.5859375 -0.053711,0.1025391 -0.1855468,0.15625 -0.390625,0.15625 z M 8.2995222,-0.50704385 c 0.7666016,0 1.484375,-0.31250001 2.1484378,-0.93750005 0.664062,-0.6347656 1.201172,-1.3525391 1.621093,-2.1484376 0.297852,-0.5957031 0.576172,-1.328125 0.839844,-2.1875001 0.273438,-0.8691406 0.507813,-1.7968751 0.703125,-2.7734376 0.195313,-0.9765625 0.292969,-1.7480468 0.292969,-2.3242188 0,-0.507813 -0.07324,-0.981445 -0.214844,-1.425781 -0.131836,-0.439454 -0.351562,-0.810547 -0.664062,-1.113282 -0.3125,-0.297851 -0.722657,-0.449218 -1.230469,-0.449218 -0.810547,0 -1.577149,0.292968 -2.3046876,0.878906 -0.7177734,0.576172 -1.3671874,1.289062 -1.9531249,2.148437 v 0.117188 L 5.701866,-3.3781377 c 0.1416016,0.7958984 0.4296875,1.4746094 0.859375,2.0312501 0.4394531,0.56152343 1.0205078,0.83984375 1.7382812,0.83984375 z m 0,0"
       style="fill:#262626;fill-opacity:1;fill-rule:nonzero;stroke:none"
       aria-label="p"
       transform="matrix(0.80000002,0,0,0.79999997,260.82523,499.73376)" />
    <path
       id="path49"
       d="M 0.60583443,4.528814 V 3.7085014 c 0.53222657,0 0.96679687,-0.048828 1.30859367,-0.1367187 C 2.2513422,3.4790092 2.4222406,3.2788139 2.4222406,2.9663139 V -8.2836866 c 0,-0.4296875 -0.1513671,-0.6933594 -0.4492187,-0.8007813 -0.3027344,-0.102539 -0.7568359,-0.15625 -1.36718747,-0.15625 V -10.06103 l 3.45703117,-0.253907 v 1.4453129 c 0.415039,-0.46875 0.9033203,-0.8251954 1.4648437,-1.0742188 0.5712891,-0.2441411 1.1767578,-0.3710941 1.8164062,-0.3710941 0.9228516,0 1.7480468,0.249024 2.4804687,0.7421879 0.7421878,0.4980468 1.3183598,1.1523438 1.7382808,1.9726563 0.415039,0.8105469 0.625,1.6601563 0.625,2.5585939 0,0.9375 -0.234375,1.8164063 -0.703125,2.6367188 -0.458984,0.8105469 -1.083984,1.4550782 -1.8749995,1.93359385 C 8.813842,0.0073294 7.9398186,0.25147003 6.992553,0.25147003 c -1.1328124,0 -2.0898437,-0.45410158 -2.8710937,-1.36718753 v 4.0820314 c 0,0.3125 0.1660157,0.5126953 0.5078125,0.6054688 0.3515625,0.087891 0.7910156,0.1367187 1.328125,0.1367187 V 4.528814 Z M 4.1214593,-2.2680613 c 0.2734375,0.546875 0.6494141,1.0058594 1.1328125,1.36718753 0.4931641,0.36621095 1.0253906,0.54687503 1.6015625,0.54687503 0.546875,0 1.0205078,-0.14160157 1.4257812,-0.42968752 0.415039,-0.28320314 0.7617187,-0.66894534 1.0351562,-1.15234384 0.2832031,-0.493164 0.4931641,-1.0058594 0.625,-1.5429688 0.1416013,-0.5322266 0.2148433,-1.0546875 0.2148433,-1.5625 0,-0.6250001 -0.117187,-1.2939454 -0.351562,-2.0117189 C 9.5804436,-7.7807569 9.2435295,-8.3911085 8.789428,-8.8891554 8.3304436,-9.3969679 7.7786858,-9.6508742 7.1292718,-9.6508742 c -0.6396485,0 -1.2255859,0.1660157 -1.7578125,0.4882813 -0.5224609,0.3271485 -0.9375,0.7714844 -1.25,1.3281251 z m 0,0"
       style="fill:#262626;fill-opacity:1;fill-rule:nonzero;stroke:none"
       aria-label="p"
       transform="matrix(0.80000002,0,0,0.79999997,274.24189,490.05664)" />
    <path
       id="path50"
       d="m 5.8179311,0.25147003 c -0.9521484,0 -1.8115233,-0.24414063 -2.5781249,-0.72265628 C 2.4683219,-0.96435033 1.8628531,-1.6137644 1.4234,-2.4243113 0.99371252,-3.2446239 0.77886877,-4.1137645 0.77886877,-5.0414989 c 0,-0.9228517 0.21484375,-1.8017579 0.64453123,-2.6367189 0.4394531,-0.8447266 1.0449219,-1.5234376 1.8164062,-2.0312501 0.7666016,-0.5078121 1.6259765,-0.7617191 2.5781249,-0.7617191 0.9082032,0 1.7382813,0.185547 2.4804687,0.5468753 0.7519531,0.3515626 1.1328125,0.9375001 1.1328125,1.7578126 0,0.3027344 -0.1123047,0.5615235 -0.3320312,0.78125 -0.2246094,0.2246094 -0.4882813,0.3320313 -0.8007813,0.3320313 -0.3125,0 -0.5810546,-0.1074219 -0.8007812,-0.3320313 -0.2099609,-0.2197265 -0.3125,-0.4785156 -0.3125,-0.78125 0,-0.2734375 0.083008,-0.5078125 0.2539063,-0.703125 0.180664,-0.2050782 0.4003906,-0.3369141 0.6640624,-0.390625 -0.5468749,-0.3515625 -1.3037109,-0.5273438 -2.2656249,-0.5273438 -0.7421875,0 -1.3427734,0.2490234 -1.796875,0.7421875 -0.4589843,0.4980469 -0.7763671,1.1083985 -0.9570312,1.8359376 -0.1855469,0.7324219 -0.2734375,1.4550782 -0.2734375,2.1679689 0,0.7568359 0.1074219,1.484375 0.3320313,2.1875 0.2197265,0.7031251 0.5761718,1.2841798 1.0742187,1.7382814 0.493164,0.45898437 1.118164,0.68359375 1.8749999,0.68359375 0.7421875,0 1.3671875,-0.21972657 1.875,-0.66406255 0.5175781,-0.4541016 0.8789062,-1.0449219 1.0742187,-1.7773438 0,-0.087891 0.058594,-0.1367188 0.1757813,-0.1367188 h 0.2929687 c 0.039063,0 0.078125,0.019531 0.1171875,0.058594 0.039063,0.039063 0.058594,0.087891 0.058594,0.1367187 v 0.078125 c -0.234375,0.9277344 -0.703125,1.6552735 -1.40625,2.18750005 -0.6933594,0.5371094 -1.5136719,0.80078128 -2.4609377,0.80078118 z m 0,0"
       style="fill:#262626;fill-opacity:1;fill-rule:nonzero;stroke:none"
       aria-label="c"
       transform="matrix(0.80000002,0,0,0.79999997,285.13081,490.05664)" />
    <path
       id="path51"
       d="m 5.8186436,0.25147003 c -0.9521484,0 -1.8115234,-0.24414063 -2.5781249,-0.72265628 C 2.4690343,-0.96435033 1.8635656,-1.6137644 1.4241125,-2.4243113 0.99442501,-3.2446239 0.77958127,-4.1137645 0.77958127,-5.0414989 c 0,-0.9228517 0.21484374,-1.8017579 0.64453123,-2.6367189 0.4394531,-0.8447266 1.0449218,-1.5234376 1.8164062,-2.0312501 0.7666015,-0.5078121 1.6259765,-0.7617191 2.5781249,-0.7617191 0.9082031,0 1.7382812,0.185547 2.4804687,0.5468753 0.7519531,0.3515626 1.1328125,0.9375001 1.1328125,1.7578126 0,0.3027344 -0.1123047,0.5615235 -0.3320312,0.78125 -0.2246094,0.2246094 -0.4882813,0.3320313 -0.8007813,0.3320313 -0.3125,0 -0.5810546,-0.1074219 -0.8007812,-0.3320313 -0.2099609,-0.2197265 -0.3125,-0.4785156 -0.3125,-0.78125 0,-0.2734375 0.083008,-0.5078125 0.2539062,-0.703125 0.1806641,-0.2050782 0.4003907,-0.3369141 0.6640625,-0.390625 -0.546875,-0.3515625 -1.3037109,-0.5273438 -2.2656249,-0.5273438 -0.7421875,0 -1.3427734,0.2490234 -1.796875,0.7421875 -0.4589843,0.4980469 -0.7763671,1.1083985 -0.9570312,1.8359376 -0.1855469,0.7324219 -0.2734375,1.4550782 -0.2734375,2.1679689 0,0.7568359 0.1074219,1.484375 0.3320313,2.1875 0.2197265,0.7031251 0.5761718,1.2841798 1.0742187,1.7382814 0.493164,0.45898437 1.118164,0.68359375 1.8749999,0.68359375 0.7421875,0 1.3671875,-0.21972657 1.875,-0.66406255 0.5175781,-0.4541016 0.8789062,-1.0449219 1.0742187,-1.7773438 0,-0.087891 0.058594,-0.1367188 0.1757813,-0.1367188 h 0.2929687 c 0.039063,0 0.078125,0.019531 0.1171875,0.058594 0.039063,0.039063 0.058594,0.087891 0.058594,0.1367187 v 0.078125 C 9.451456,-1.8090769 8.9827061,-1.0815378 8.2795811,-0.54931125 7.5862217,-0.01220185 6.7659092,0.25147003 5.8186436,0.25147003 Z m 0,0"
       style="fill:#262626;fill-opacity:1;fill-rule:nonzero;stroke:none"
       aria-label="c"
       transform="matrix(0.80000002,0,0,0.79999997,293.42712,490.05664)" />
    <path
       id="path52"
       d="m 1.8772986,7.6765503 c 0,-0.068359 0.00977,-0.1123047 0.039063,-0.1367188 L 13.498392,-24.589076 c 0.03906,-0.126953 0.107422,-0.22461 0.214844,-0.292969 0.117187,-0.07813 0.24414,-0.117187 0.390625,-0.117187 0.195312,0 0.351562,0.05859 0.46875,0.175781 0.126953,0.117187 0.195312,0.283203 0.195312,0.488281 v 0.136719 L 3.1858923,7.9304565 C 3.0540563,8.203894 2.8392126,8.3406128 2.541361,8.3406128 c -0.1855468,0 -0.3417968,-0.068359 -0.4687499,-0.1953125 -0.131836,-0.131836 -0.1953125,-0.288086 -0.1953125,-0.46875 z m 0,0"
       style="fill:#262626;fill-opacity:1;fill-rule:nonzero;stroke:none"
       aria-label="/"
       transform="matrix(0.80000002,0,0,0.79999997,303.05675,499.73376)" />
    <path
       id="path53"
       d="M 10.332651,8.2624878 C 9.0924169,7.2859252 8.0279638,6.1628783 7.1295263,4.9031126 6.2408545,3.6384641 5.5133154,2.2908078 4.9420264,0.86014371 4.3658545,-0.57052041 3.936167,-2.0695439 3.6529639,-3.632044 3.3795264,-5.1945441 3.2428077,-6.7619269 3.2428077,-8.3390754 c 0,-1.5869142 0.1367187,-3.1640626 0.4101562,-4.7265626 0.2832031,-1.5625 0.7128906,-3.066407 1.2890625,-4.511719 0.5859375,-1.445313 1.3281249,-2.792969 2.2265624,-4.042969 0.9082031,-1.259766 1.9628906,-2.368164 3.1640622,-3.320313 0,-0.03906 0.05859,-0.05859 0.175781,-0.05859 h 0.292969 c 0.06348,0 0.122071,0.03418 0.175781,0.09766 0.06348,0.05371 0.09766,0.117187 0.09766,0.195312 0,0.09277 -0.0293,0.166016 -0.07813,0.214844 -1.0839846,1.054688 -1.9873049,2.197266 -2.714844,3.417969 -0.7177734,1.210938 -1.298828,2.509766 -1.7382812,3.886719 -0.4296874,1.367187 -0.7421874,2.788086 -0.9374999,4.257813 -0.1953125,1.474609 -0.2929688,3.0029294 -0.2929688,4.5898436 0,7.0703128 1.8847656,12.4414068 5.6640619,16.1132819 0.06348,0.063477 0.09766,0.15625 0.09766,0.2734375 0,0.048828 -0.03418,0.1074219 -0.09766,0.1757813 -0.05371,0.078125 -0.112304,0.1171875 -0.175781,0.1171875 H 10.50843 c -0.117187,0 -0.175781,-0.029297 -0.175781,-0.078125 z m 0,0"
       style="fill:#262626;fill-opacity:1;fill-rule:nonzero;stroke:none"
       aria-label="("
       transform="matrix(0.80000002,0,0,0.79999997,316.39013,499.73376)" />
    <path
       id="path54"
       d="M 0.8608601,6.4656127 V 5.3132689 c 0.7666015,0 1.3916015,-0.068359 1.8749999,-0.1953125 C 3.2290241,4.9861205 3.4780475,4.6931517 3.4780475,4.2390501 V -11.835169 c 0,-0.610352 -0.2246093,-0.986329 -0.6640625,-1.132813 -0.4296874,-0.15625 -1.0839843,-0.234375 -1.9531249,-0.234375 v -1.171875 l 4.9414061,-0.351562 v 2.070312 c 0.5957031,-0.673828 1.2988281,-1.191406 2.109375,-1.542969 0.8203124,-0.351562 1.6845702,-0.527343 2.5976558,-0.527343 1.298828,0 2.480469,0.361328 3.535157,1.074218 1.054687,0.703125 1.874999,1.635743 2.460937,2.792969 0.595703,1.1474612 0.898437,2.3730472 0.898437,3.6718754 0,1.3427735 -0.332031,2.5927735 -0.996093,3.7500001 -0.654297,1.1621095 -1.542969,2.0849611 -2.675781,2.77343765 -1.132813,0.68847659 -2.37793,1.03515629 -3.730469,1.03515629 -1.616211,0 -2.9833985,-0.6542969 -4.1015625,-1.97265634 v 5.839844 c 0,0.4541016 0.2441406,0.7470704 0.7421875,0.8789063 0.493164,0.1269531 1.1132812,0.1953125 1.8554687,0.1953125 V 6.4656127 Z M 5.8999225,-3.241419 c 0.390625,0.7958985 0.9277343,1.4550782 1.6210937,1.9726564 0.6884765,0.50781249 1.4501953,0.76171875 2.2851562,0.76171875 0.7666016,0 1.4453126,-0.20019532 2.0312496,-0.60546875 0.595703,-0.4150391 1.09375,-0.9667969 1.484375,-1.6601563 0.400391,-0.7031251 0.703125,-1.4306642 0.898438,-2.1875001 0.195312,-0.7666016 0.292969,-1.5087892 0.292969,-2.2265626 0,-0.8984376 -0.166016,-1.8603517 -0.488282,-2.8906254 -0.327148,-1.040039 -0.815429,-1.914062 -1.464843,-2.617187 -0.654297,-0.712891 -1.445313,-1.074219 -2.382813,-1.074219 -0.8984374,0 -1.7285155,0.234375 -2.4804686,0.703125 -0.7568359,0.458984 -1.3574218,1.083984 -1.7968749,1.875 z m 0,0"
       style="fill:#262626;fill-opacity:1;fill-rule:nonzero;stroke:none"
       aria-label="p"
       transform="matrix(0.80000002,0,0,0.79999997,326.76053,499.73376)" />
    <path
       id="path55"
       d="m 2.7915043,-1.8351689 c 0,-0.5078125 0.1806641,-0.9375 0.546875,-1.2890626 0.3759766,-0.3613281 0.8105469,-0.546875 1.3085937,-0.546875 0.2978516,0 0.5908203,0.087891 0.8789063,0.2539063 0.2978515,0.15625 0.5273437,0.3857422 0.6835937,0.6835938 0.1660156,0.2880859 0.2539062,0.5859375 0.2539062,0.8984375 0,0.4833985 -0.1855468,0.91308597 -0.5468749,1.28906255 C 5.5649418,-0.1798954 5.1401371,7.6867503e-4 4.646973,7.6867503e-4 4.1489262,7.6867503e-4 3.7143559,-0.1798954 3.3383793,-0.54610635 2.9721684,-0.92208293 2.7915043,-1.3517704 2.7915043,-1.8351689 Z m 0,0"
       style="fill:#262626;fill-opacity:1;fill-rule:nonzero;stroke:none"
       aria-label="."
       transform="matrix(0.80000002,0,0,0.79999997,341.57539,499.73376)" />
    <path
       id="path56"
       d="m 3.5956926,-3.9640752 v -7.3632818 c 0,-0.595703 -0.092773,-1.02539 -0.2734374,-1.289062 -0.1708985,-0.273438 -0.4248047,-0.434571 -0.7617188,-0.488282 -0.3417968,-0.06348 -0.859375,-0.09766 -1.56249994,-0.09766 v -1.171875 l 5.03906234,-0.351562 v 10.7617188 c 0,0.859375 0.058594,1.5332031 0.1757813,2.0117188 0.1269531,0.4833984 0.3955078,0.8496094 0.8007812,1.09375004 0.4150391,0.23437501 1.0644531,0.35156251 1.953125,0.35156251 1.1962887,0 2.1484377,-0.49316405 2.8515627,-1.48437505 0.703125,-1.0009766 1.054687,-2.138672 1.054687,-3.4179689 v -5.9179692 c 0,-0.595703 -0.09277,-1.02539 -0.273437,-1.289062 -0.185547,-0.273438 -0.444336,-0.434571 -0.78125,-0.488282 -0.327149,-0.06348 -0.839844,-0.09766 -1.542969,-0.09766 v -1.171875 l 5.019531,-0.351562 v 11.6992188 c 0,0.5859375 0.08789,1.015625 0.273438,1.2890625 0.180664,0.2636719 0.439453,0.4248048 0.78125,0.4882813 0.336914,0.053711 0.859375,0.078125 1.5625,0.078125 V 7.6867503e-4 L 12.970692,0.37186244 V -2.4406377 c -0.405273,0.834961 -0.976562,1.51367196 -1.71875,2.03125011 -0.742187,0.51757814 -1.5576167,0.78125003 -2.4414057,0.78125003 -1.6015625,0 -2.8710937,-0.34179689 -3.8085937,-1.01562504 -0.9375,-0.6738282 -1.40625,-1.7822266 -1.40625,-3.3203126 z m 0,0"
       style="fill:#262626;fill-opacity:1;fill-rule:nonzero;stroke:none"
       aria-label="u"
       transform="matrix(0.80000002,0,0,0.79999997,348.98282,499.73376)" />
    <path
       id="path57"
       d="m 2.791962,-1.8351689 c 0,-0.5078125 0.180664,-0.9375 0.5468749,-1.2890626 0.3759766,-0.3613281 0.8105469,-0.546875 1.3085938,-0.546875 0.2978515,0 0.5908203,0.087891 0.8789062,0.2539063 0.2978515,0.15625 0.5273437,0.3857422 0.6835937,0.6835938 0.1660156,0.2880859 0.2539063,0.5859375 0.2539063,0.8984375 0,0.4833985 -0.1855469,0.91308597 -0.546875,1.28906255 C 5.5653994,-0.1798954 5.1405947,7.6867503e-4 4.6474307,7.6867503e-4 4.1493838,7.6867503e-4 3.7148135,-0.1798954 3.3388369,-0.54610635 2.972626,-0.92208293 2.791962,-1.3517704 2.791962,-1.8351689 Z m 0,0"
       style="fill:#262626;fill-opacity:1;fill-rule:nonzero;stroke:none"
       aria-label="."
       transform="matrix(0.80000002,0,0,0.79999997,363.79768,499.73376)" />
    <path
       id="path58"
       d="m 2.170368,8.3406128 c -0.1953124,0 -0.2929687,-0.097656 -0.2929687,-0.2929688 0,-0.1074219 0.019531,-0.1757812 0.058594,-0.2148437 3.798828,-3.7109377 5.7031248,-9.1015629 5.7031248,-16.1718757 0,-7.0556646 -1.8749999,-12.4218756 -5.6249998,-16.0937506 -0.092774,-0.04883 -0.1367188,-0.141602 -0.1367188,-0.273438 0,-0.07813 0.024414,-0.141601 0.078125,-0.195312 0.063477,-0.06348 0.1367188,-0.09766 0.2148437,-0.09766 h 0.3125 c 0.063477,0 0.1171875,0.01953 0.15625,0.05859 1.6015625,1.264649 2.9296875,2.792969 3.9843749,4.589844 1.0644531,1.796875 1.8457031,3.720704 2.34375,5.761719 0.493164,2.045899 0.7421875,4.13086 0.7421875,6.2500006 0,1.5771485 -0.1367188,3.1250001 -0.4101563,4.6484377 C 9.0356023,-2.1672002 8.6156804,-0.66329385 8.0297429,0.82108121 7.453571,2.3054563 6.7211492,3.6726438 5.8227117,4.9226439 c -0.8886718,1.25 -1.9482421,2.3632813 -3.1835937,3.3398439 -0.039063,0.048828 -0.092773,0.078125 -0.15625,0.078125 z m 0,0"
       style="fill:#262626;fill-opacity:1;fill-rule:nonzero;stroke:none"
       aria-label=")"
       transform="matrix(0.80000002,0,0,0.79999997,371.20511,499.73376)" />
    <path
       id="path59"
       d="M 106,611 V 51.999992"
       style="fill:none;stroke:#262626;stroke-width:0.833333;stroke-linecap:square;stroke-linejoin:round;stroke-miterlimit:10;stroke-dasharray:none;stroke-opacity:1"
       transform="matrix(0.80000002,0,0,0.79999997,-15.199903,-40.266118)" />
    <path
       id="path60"
       d="M 735,611 V 51.999992"
       style="fill:none;stroke:#262626;stroke-width:0.833333;stroke-linecap:square;stroke-linejoin:round;stroke-miterlimit:10;stroke-dasharray:none;stroke-opacity:1"
       transform="matrix(0.80000002,0,0,0.79999997,-15.199903,-40.266118)" />
    <path
       id="path61"
       d="m 106,585.59088 h 6.28999"
       style="fill:none;stroke:#262626;stroke-width:0.833333;stroke-linecap:square;stroke-linejoin:round;stroke-miterlimit:10;stroke-dasharray:none;stroke-opacity:1"
       transform="matrix(0.80000002,0,0,0.79999997,-15.199903,-40.266118)" />
    <path
       id="path62"
       d="m 106,522.06818 h 6.28999"
       style="fill:none;stroke:#262626;stroke-width:0.833333;stroke-linecap:square;stroke-linejoin:round;stroke-miterlimit:10;stroke-dasharray:none;stroke-opacity:1"
       transform="matrix(0.80000002,0,0,0.79999997,-15.199903,-40.266118)" />
    <path
       id="path63"
       d="m 106,458.54544 h 6.28999"
       style="fill:none;stroke:#262626;stroke-width:0.833333;stroke-linecap:square;stroke-linejoin:round;stroke-miterlimit:10;stroke-dasharray:none;stroke-opacity:1"
       transform="matrix(0.80000002,0,0,0.79999997,-15.199903,-40.266118)" />
    <path
       id="path64"
       d="m 106,395.02274 h 6.28999"
       style="fill:none;stroke:#262626;stroke-width:0.833333;stroke-linecap:square;stroke-linejoin:round;stroke-miterlimit:10;stroke-dasharray:none;stroke-opacity:1"
       transform="matrix(0.80000002,0,0,0.79999997,-15.199903,-40.266118)" />
    <path
       id="path65"
       d="m 106,331.5 h 6.28999"
       style="fill:none;stroke:#262626;stroke-width:0.833333;stroke-linecap:square;stroke-linejoin:round;stroke-miterlimit:10;stroke-dasharray:none;stroke-opacity:1"
       transform="matrix(0.80000002,0,0,0.79999997,-15.199903,-40.266118)" />
    <path
       id="path66"
       d="m 106,267.97726 h 6.28999"
       style="fill:none;stroke:#262626;stroke-width:0.833333;stroke-linecap:square;stroke-linejoin:round;stroke-miterlimit:10;stroke-dasharray:none;stroke-opacity:1"
       transform="matrix(0.80000002,0,0,0.79999997,-15.199903,-40.266118)" />
    <path
       id="path67"
       d="m 106,204.45454 h 6.28999"
       style="fill:none;stroke:#262626;stroke-width:0.833333;stroke-linecap:square;stroke-linejoin:round;stroke-miterlimit:10;stroke-dasharray:none;stroke-opacity:1"
       transform="matrix(0.80000002,0,0,0.79999997,-15.199903,-40.266118)" />
    <path
       id="path68"
       d="m 106,140.93182 h 6.28999"
       style="fill:none;stroke:#262626;stroke-width:0.833333;stroke-linecap:square;stroke-linejoin:round;stroke-miterlimit:10;stroke-dasharray:none;stroke-opacity:1"
       transform="matrix(0.80000002,0,0,0.79999997,-15.199903,-40.266118)" />
    <path
       id="path69"
       d="m 106,77.409088 h 6.28999"
       style="fill:none;stroke:#262626;stroke-width:0.833333;stroke-linecap:square;stroke-linejoin:round;stroke-miterlimit:10;stroke-dasharray:none;stroke-opacity:1"
       transform="matrix(0.80000002,0,0,0.79999997,-15.199903,-40.266118)" />
    <path
       id="path70"
       d="m 735,585.59088 h -6.28998"
       style="fill:none;stroke:#262626;stroke-width:0.833333;stroke-linecap:square;stroke-linejoin:round;stroke-miterlimit:10;stroke-dasharray:none;stroke-opacity:1"
       transform="matrix(0.80000002,0,0,0.79999997,-15.199903,-40.266118)" />
    <path
       id="path71"
       d="m 735,522.06818 h -6.28998"
       style="fill:none;stroke:#262626;stroke-width:0.833333;stroke-linecap:square;stroke-linejoin:round;stroke-miterlimit:10;stroke-dasharray:none;stroke-opacity:1"
       transform="matrix(0.80000002,0,0,0.79999997,-15.199903,-40.266118)" />
    <path
       id="path72"
       d="m 735,458.54544 h -6.28998"
       style="fill:none;stroke:#262626;stroke-width:0.833333;stroke-linecap:square;stroke-linejoin:round;stroke-miterlimit:10;stroke-dasharray:none;stroke-opacity:1"
       transform="matrix(0.80000002,0,0,0.79999997,-15.199903,-40.266118)" />
    <path
       id="path73"
       d="m 735,395.02274 h -6.28998"
       style="fill:none;stroke:#262626;stroke-width:0.833333;stroke-linecap:square;stroke-linejoin:round;stroke-miterlimit:10;stroke-dasharray:none;stroke-opacity:1"
       transform="matrix(0.80000002,0,0,0.79999997,-15.199903,-40.266118)" />
    <path
       id="path74"
       d="m 735,331.5 h -6.28998"
       style="fill:none;stroke:#262626;stroke-width:0.833333;stroke-linecap:square;stroke-linejoin:round;stroke-miterlimit:10;stroke-dasharray:none;stroke-opacity:1"
       transform="matrix(0.80000002,0,0,0.79999997,-15.199903,-40.266118)" />
    <path
       id="path75"
       d="m 735,267.97726 h -6.28998"
       style="fill:none;stroke:#262626;stroke-width:0.833333;stroke-linecap:square;stroke-linejoin:round;stroke-miterlimit:10;stroke-dasharray:none;stroke-opacity:1"
       transform="matrix(0.80000002,0,0,0.79999997,-15.199903,-40.266118)" />
    <path
       id="path76"
       d="m 735,204.45454 h -6.28998"
       style="fill:none;stroke:#262626;stroke-width:0.833333;stroke-linecap:square;stroke-linejoin:round;stroke-miterlimit:10;stroke-dasharray:none;stroke-opacity:1"
       transform="matrix(0.80000002,0,0,0.79999997,-15.199903,-40.266118)" />
    <path
       id="path77"
       d="m 735,140.93182 h -6.28998"
       style="fill:none;stroke:#262626;stroke-width:0.833333;stroke-linecap:square;stroke-linejoin:round;stroke-miterlimit:10;stroke-dasharray:none;stroke-opacity:1"
       transform="matrix(0.80000002,0,0,0.79999997,-15.199903,-40.266118)" />
    <path
       id="path78"
       d="m 735,77.409088 h -6.28998"
       style="fill:none;stroke:#262626;stroke-width:0.833333;stroke-linecap:square;stroke-linejoin:round;stroke-miterlimit:10;stroke-dasharray:none;stroke-opacity:1"
       transform="matrix(0.80000002,0,0,0.79999997,-15.199903,-40.266118)" />
    <text
       id="text78"
       xml:space="preserve"
       transform="matrix(0.80000002,0,0,0.79999997,47.200093,435.00657)"><tspan
         style="font-variant:normal;font-weight:normal;font-size:23.333px;font-family:'Times New Roman';writing-mode:lr-tb;fill:#262626;fill-opacity:1;fill-rule:nonzero;stroke:none"
         x="0 7.7698889"
         y="0"
         sodipodi:role="line"
         id="tspan78">-2</tspan></text>
    <text
       id="text79"
       xml:space="preserve"
       transform="matrix(0.80000002,0,0,0.79999997,33.600092,384.1884)"><tspan
         style="font-variant:normal;font-weight:normal;font-size:23.333px;font-family:'Times New Roman';writing-mode:lr-tb;fill:#262626;fill-opacity:1;fill-rule:nonzero;stroke:none"
         x="0 7.7698889 19.43639 25.269638"
         y="0"
         sodipodi:role="line"
         id="tspan79">-1.5</tspan></text>
    <text
       id="text80"
       xml:space="preserve"
       transform="matrix(0.80000002,0,0,0.79999997,47.200093,333.37022)"><tspan
         style="font-variant:normal;font-weight:normal;font-size:23.333px;font-family:'Times New Roman';writing-mode:lr-tb;fill:#262626;fill-opacity:1;fill-rule:nonzero;stroke:none"
         x="0 7.7698889"
         y="0"
         sodipodi:role="line"
         id="tspan80">-1</tspan></text>
    <text
       id="text81"
       xml:space="preserve"
       transform="matrix(0.80000002,0,0,0.79999997,33.600092,282.55206)"><tspan
         style="font-variant:normal;font-weight:normal;font-size:23.333px;font-family:'Times New Roman';writing-mode:lr-tb;fill:#262626;fill-opacity:1;fill-rule:nonzero;stroke:none"
         x="0 7.7698889 19.43639 25.269638"
         y="0"
         sodipodi:role="line"
         id="tspan81">-0.5</tspan></text>
    <text
       id="text82"
       xml:space="preserve"
       transform="matrix(0.80000002,0,0,0.79999997,53.600093,231.73387)"><tspan
         style="font-variant:normal;font-weight:normal;font-size:23.333px;font-family:'Times New Roman';writing-mode:lr-tb;fill:#262626;fill-opacity:1;fill-rule:nonzero;stroke:none"
         x="0"
         y="0"
         id="tspan82">0</tspan></text>
    <text
       id="text83"
       xml:space="preserve"
       transform="matrix(0.80000002,0,0,0.79999997,39.200092,180.91568)"><tspan
         style="font-variant:normal;font-weight:normal;font-size:23.333px;font-family:'Times New Roman';writing-mode:lr-tb;fill:#262626;fill-opacity:1;fill-rule:nonzero;stroke:none"
         x="0 11.6665 17.49975"
         y="0"
         sodipodi:role="line"
         id="tspan83">0.5</tspan></text>
    <text
       id="text84"
       xml:space="preserve"
       transform="matrix(0.80000002,0,0,0.79999997,53.600093,130.09751)"><tspan
         style="font-variant:normal;font-weight:normal;font-size:23.333px;font-family:'Times New Roman';writing-mode:lr-tb;fill:#262626;fill-opacity:1;fill-rule:nonzero;stroke:none"
         x="0"
         y="0"
         id="tspan84">1</tspan></text>
    <text
       id="text85"
       xml:space="preserve"
       transform="matrix(0.80000002,0,0,0.79999997,39.200092,79.279335)"><tspan
         style="font-variant:normal;font-weight:normal;font-size:23.333px;font-family:'Times New Roman';writing-mode:lr-tb;fill:#262626;fill-opacity:1;fill-rule:nonzero;stroke:none"
         x="0 11.6665 17.49975"
         y="0"
         sodipodi:role="line"
         id="tspan85">1.5</tspan></text>
    <text
       id="text86"
       xml:space="preserve"
       transform="matrix(0.80000002,0,0,0.79999997,53.600093,28.461149)"><tspan
         style="font-variant:normal;font-weight:normal;font-size:23.333px;font-family:'Times New Roman';writing-mode:lr-tb;fill:#262626;fill-opacity:1;fill-rule:nonzero;stroke:none"
         x="0"
         y="0"
         id="tspan86">2</tspan></text>
    <path
       id="path86"
       d="m 4.9019991,6.0351525 c 0.078125,-0.4833984 0.2197266,-0.7226562 0.4296875,-0.7226562 0.8056641,0 1.435547,-0.068359 1.8945314,-0.1953124 C 7.694968,4.985348 7.9977024,4.6679652 8.1441868,4.1601527 L 9.5699684,-1.5039096 C 8.3053198,-0.2539097 7.0357885,0.37109022 5.7613744,0.37109017 4.3648899,0.37109011 3.2662571,-0.15625368 2.4605931,-1.2109412 1.6646946,-2.2656287 1.2691869,-3.5156287 1.2691869,-4.9609411 c 1e-7,-1.4160156 0.3613283,-2.890625 1.0937503,-4.4140624 0.7421876,-1.5332035 1.7382814,-2.8124995 2.9882815,-3.8281245 1.2500001,-1.015625 2.6025392,-1.523438 4.0625003,-1.523438 0.664062,0 1.269531,0.205079 1.816406,0.605469 0.546875,0.390625 0.957032,0.917969 1.230469,1.582032 0.126953,-0.25879 0.488281,-0.688477 1.074219,-1.289063 0.595703,-0.595703 1.020508,-0.898437 1.269531,-0.898437 0.244141,0 0.371094,0.136718 0.371094,0.410156 l -4.66797,18.6132805 c -0.06836,0.3222656 -0.09766,0.5126953 -0.09766,0.5664063 0,0.2978515 0.727539,0.4492187 2.1875,0.4492188 0.102539,0 0.185547,0.039063 0.253906,0.1171875 0.06348,0.087891 0.09766,0.1855469 0.09766,0.2929687 -0.07813,0.2978516 -0.146484,0.4931641 -0.195312,0.5859375 -0.05371,0.1025391 -0.185547,0.15625 -0.390625,0.15625 l -7.1289067,-3e-7 c -0.2246093,0 -0.3320312,-0.1464844 -0.3320312,-0.4296875 z m 0.9179691,-6.54296856 c 0.78125,4e-8 1.5429688,-0.29296867 2.2851564,-0.87890614 0.7519531,-0.5957031 1.4062501,-1.298828 1.9531254,-2.1093748 l 1.875,-7.5 c -0.131836,-0.78125 -0.419922,-1.450195 -0.859375,-2.011719 -0.444336,-0.571289 -1.02539,-0.859375 -1.7382811,-0.859375 -0.756836,0 -1.459961,0.307618 -2.1093751,0.917969 -0.6396485,0.615234 -1.1816408,1.337891 -1.6210939,2.167969 -0.444336,0.8984371 -0.8593752,2.124023 -1.2500003,3.6718745 -0.390625,1.5527344 -0.5859376,2.7539062 -0.5859376,3.6132812 -1e-7,0.7714843 0.1611327,1.4599609 0.4882811,2.0703124 0.3222657,0.61523442 0.8447266,0.91796881 1.5625001,0.91796884 z m 0,0"
       style="fill:#262626;fill-opacity:1;fill-rule:nonzero;stroke:none"
       aria-label="q"
       transform="matrix(-3.5e-8,-0.79999997,0.80000002,-3.5e-8,20.000003,285.03097)" />
    <path
       id="path87"
       d="m 0.60787577,4.5329255 3e-8,-0.8203124 c 0.5322266,0 0.9667969,-0.048828 1.3085938,-0.1367187 0.3369141,-0.092774 0.5078126,-0.2929688 0.5078126,-0.6054687 l 5e-7,-11.2499998 c 0,-0.4296875 -0.1513672,-0.6933593 -0.4492188,-0.8007812 -0.3027344,-0.1025391 -0.7568359,-0.15625 -1.36718753,-0.1562501 l 4e-8,-0.8203126 3.45703139,-0.253906 v 1.4453125 c 0.4150391,-0.46875 0.9033203,-0.8251952 1.4648438,-1.0742186 0.5712891,-0.2441409 1.1767579,-0.3710939 1.8164064,-0.3710939 0.9228516,0 1.7480469,0.249024 2.4804688,0.7421878 0.7421872,0.4980469 1.3183592,1.1523438 1.7382812,1.9726563 0.415039,0.8105468 0.625,1.6601562 0.625,2.5585937 0,0.9375 -0.234375,1.8164062 -0.703125,2.6367186 -0.458985,0.8105469 -1.083985,1.45507807 -1.8750004,1.93359365 C 8.8158841,0.01144163 7.9418607,0.25558221 6.994595,0.25558217 5.8617824,0.25558212 4.9047512,-0.19851947 4.1235012,-1.1116054 l -2e-7,4.0820311 c 0,0.3125 0.1660156,0.5126953 0.5078125,0.6054688 0.3515625,0.087891 0.7910156,0.1367188 1.328125,0.1367188 V 4.5329258 Z M 4.1235012,-2.2639491 c 0.2734375,0.546875 0.6494141,1.0058593 1.1328125,1.36718747 0.4931641,0.36621095 1.0253907,0.54687503 1.6015626,0.54687506 0.546875,2e-8 1.0205078,-0.14160152 1.4257813,-0.42968743 0.4150391,-0.2832031 0.7617188,-0.6689453 1.0351563,-1.1523437 0.2832032,-0.493164 0.4931642,-1.0058593 0.6250001,-1.5429687 0.141602,-0.5322265 0.214844,-1.0546874 0.214844,-1.5624999 0,-0.625 -0.117188,-1.2939453 -0.3515626,-2.0117187 C 9.5824861,-7.7766441 9.245572,-8.3869956 8.7914705,-8.8850425 8.3324861,-9.392855 7.7807283,-9.6467613 7.1313142,-9.6467613 c -0.6396485,-1e-7 -1.225586,0.1660155 -1.7578126,0.4882811 -0.522461,0.3271484 -0.9375001,0.7714843 -1.2500001,1.3281249 z m 0,0"
       style="fill:#262626;fill-opacity:1;fill-rule:nonzero;stroke:none"
       aria-label="p"
       transform="matrix(-3.5e-8,-0.79999997,0.80000002,-3.5e-8,10.322878,272.16989)" />
    <path
       id="path88"
       d="M 5.819974,0.25558271 C 4.8678255,0.25558267 4.0084505,0.01144201 3.2418489,-0.46707363 2.4703645,-0.96023772 1.8648957,-1.6096518 1.4254426,-2.4201987 0.99575516,-3.2405112 0.78091144,-4.1096518 0.78091148,-5.0373861 c 4e-8,-0.9228516 0.21484384,-1.8017578 0.64453142,-2.6367187 0.4394532,-0.8447265 1.044922,-1.5234374 1.8164064,-2.0312499 0.7666016,-0.5078123 1.6259767,-0.7617183 2.5781251,-0.7617183 0.9082032,0 1.7382814,0.185547 2.4804689,0.5468748 0.7519531,0.3515625 1.1328125,0.9375001 1.1328124,1.7578125 0,0.3027344 -0.1123047,0.5615234 -0.3320313,0.78125 -0.2246094,0.2246094 -0.4882812,0.3320312 -0.8007813,0.3320312 -0.3125,0 -0.5810547,-0.1074219 -0.8007812,-0.3320313 -0.209961,-0.2197265 -0.3125,-0.4785156 -0.3125,-0.78125 0,-0.2734375 0.083008,-0.5078125 0.2539063,-0.7031249 0.1806641,-0.2050782 0.4003906,-0.3369141 0.6640625,-0.390625 -0.546875,-0.3515625 -1.3037109,-0.5273438 -2.265625,-0.5273438 -0.7421876,-10e-8 -1.3427736,0.2490233 -1.7968752,0.7421874 -0.4589844,0.4980468 -0.7763672,1.1083983 -0.9570313,1.8359374 -0.1855469,0.7324218 -0.2734376,1.4550781 -0.2734376,2.1679687 -10e-8,0.7568359 0.1074218,1.4843749 0.3320311,2.1874999 0.2197266,0.703125 0.5761719,1.2841797 1.0742188,1.7382813 0.493164,0.45898436 1.118164,0.68359376 1.875,0.68359379 0.7421875,3e-8 1.3671876,-0.2197265 1.8750001,-0.66406239 0.5175782,-0.4541015 0.8789064,-1.0449218 1.0742189,-1.7773437 0,-0.087891 0.058594,-0.1367187 0.1757813,-0.1367187 h 0.2929687 c 0.039063,0 0.078125,0.019531 0.1171875,0.058594 0.039063,0.039063 0.058594,0.087891 0.058594,0.1367187 v 0.078125 C 9.4527867,-1.804964 8.9840367,-1.0774249 8.2809116,-0.54519841 7.5875522,-0.00808908 6.7672396,0.25558275 5.819974,0.25558271 Z m 0,0"
       style="fill:#262626;fill-opacity:1;fill-rule:nonzero;stroke:none"
       aria-label="c"
       transform="matrix(-3.5e-8,-0.79999997,0.80000002,-3.5e-8,10.322878,261.28098)" />
    <path
       id="path89"
       d="M 5.8206882,0.25558317 C 4.8685397,0.25558312 4.0091647,0.01144247 3.2425631,-0.46707318 2.4710787,-0.96023726 1.86561,-1.6096513 1.4261568,-2.4201982 0.99646936,-3.2405107 0.78162564,-4.1096513 0.78162568,-5.0373857 c 4e-8,-0.9228515 0.21484384,-1.8017577 0.64453142,-2.6367186 0.4394532,-0.8447265 1.044922,-1.5234374 1.8164064,-2.0312499 0.7666016,-0.5078128 1.6259767,-0.7617188 2.5781251,-0.7617188 0.9082032,0 1.7382814,0.185547 2.4804689,0.5468753 0.7519531,0.3515625 1.1328125,0.9375 1.1328124,1.7578125 0,0.3027344 -0.1123047,0.5615234 -0.3320313,0.78125 -0.2246093,0.2246093 -0.4882812,0.3320312 -0.8007813,0.3320312 -0.3125,-1e-7 -0.5810547,-0.1074219 -0.8007812,-0.3320313 -0.209961,-0.2197266 -0.3125,-0.4785156 -0.3125,-0.78125 0,-0.2734375 0.083008,-0.5078125 0.2539063,-0.703125 0.1806641,-0.2050781 0.4003906,-0.336914 0.6640625,-0.3906249 -0.546875,-0.3515626 -1.3037109,-0.5273438 -2.265625,-0.5273439 -0.7421876,0 -1.3427735,0.2490234 -1.7968752,0.7421874 -0.4589844,0.4980469 -0.7763672,1.1083984 -0.9570313,1.8359374 -0.1855469,0.7324219 -0.2734376,1.4550781 -0.2734376,2.1679687 -10e-8,0.7568359 0.1074218,1.484375 0.3320311,2.1875 0.2197266,0.703125 0.5761719,1.2841797 1.0742188,1.7382812 0.493164,0.45898442 1.118164,0.68359381 1.875,0.68359385 0.7421875,3e-8 1.3671876,-0.2197265 1.8750001,-0.66406245 0.5175782,-0.4541015 0.8789064,-1.0449218 1.0742189,-1.7773436 0,-0.087891 0.058594,-0.1367188 0.1757813,-0.1367188 l 0.2929687,10e-8 c 0.039063,0 0.078125,0.019531 0.1171875,0.058594 0.039063,0.039063 0.058594,0.087891 0.058594,0.1367188 v 0.078125 c -0.2343753,0.927734 -0.7031253,1.655273 -1.4062504,2.18749954 -0.6933594,0.53710934 -1.513672,0.80078117 -2.4609376,0.80078113 z m 0,0"
       style="fill:#262626;fill-opacity:1;fill-rule:nonzero;stroke:none"
       aria-label="c"
       transform="matrix(-3.5e-8,-0.79999997,0.80000002,-3.5e-8,10.322877,252.98468)" />
    <path
       id="path90"
       d="m 1.874459,7.6757796 c 0,-0.068359 0.00977,-0.1123047 0.039063,-0.1367187 L 13.495555,-24.589844 c 0.03906,-0.126953 0.107422,-0.224609 0.214843,-0.292969 C 13.827586,-24.960938 13.954539,-25 14.101023,-25 c 0.195313,0 0.351563,0.05859 0.46875,0.175781 0.126954,0.117187 0.195313,0.283203 0.195313,0.488281 v 0.136719 L 3.1830528,7.9296859 c -0.131836,0.2734375 -0.3466797,0.4101562 -0.6445313,0.4101562 -0.1855469,0 -0.3417969,-0.068359 -0.46875,-0.1953125 C 1.9379355,8.0126937 1.874459,7.8564437 1.874459,7.6757796 Z m 0,0"
       style="fill:#262626;fill-opacity:1;fill-rule:nonzero;stroke:none"
       aria-label="/"
       transform="matrix(-3.5e-8,-0.79999997,0.80000002,-3.5e-8,20.000001,243.35504)" />
    <path
       id="path91"
       d="M 10.329813,8.2617182 C 9.089579,7.2851556 8.0251259,6.1621088 7.1266884,4.9023431 6.2380165,3.6376947 5.5104775,2.2900384 4.9391885,0.85937438 4.3630166,-0.57128967 3.9333292,-2.0703131 3.6501261,-3.6328131 3.3766887,-5.195313 3.23997,-6.7626958 3.23997,-8.3398442 c 10e-8,-1.586914 0.1367189,-3.1640628 0.4101565,-4.7265628 0.2832032,-1.5625 0.7128908,-3.066406 1.2890628,-4.511718 0.5859376,-1.445313 1.3281251,-2.792969 2.2265627,-4.042969 0.9082033,-1.259765 1.9628909,-2.368164 3.164063,-3.320312 0,-0.03906 0.05859,-0.05859 0.175781,-0.05859 h 0.292969 c 0.06348,0 0.12207,0.03418 0.175781,0.09766 0.06348,0.05371 0.09766,0.117187 0.09766,0.195312 0,0.09277 -0.0293,0.166016 -0.07813,0.214844 -1.0839841,1.054687 -1.9873045,2.197265 -2.7148437,3.417968 -0.7177735,1.210938 -1.2988283,2.509766 -1.7382815,3.886719 -0.4296876,1.367187 -0.7421876,2.788086 -0.9375002,4.257812 -0.1953126,1.47461 -0.2929689,3.0029299 -0.292969,4.5898439 -3e-7,7.0703123 1.8847652,12.441406 5.6640624,16.1132811 0.06348,0.063476 0.09766,0.15625 0.09766,0.2734375 0,0.048828 -0.03418,0.1074218 -0.09766,0.1757812 -0.05371,0.078125 -0.112305,0.1171875 -0.175782,0.1171875 h -0.292968 c -0.117188,0 -0.175782,-0.029297 -0.175782,-0.078125 z m 0,0"
       style="fill:#262626;fill-opacity:1;fill-rule:nonzero;stroke:none"
       aria-label="("
       transform="matrix(-3.5e-8,-0.79999997,0.80000002,-3.5e-8,20.000001,230.02166)" />
    <path
       id="path92"
       d="m 0.85802254,6.4648434 5e-8,-1.1523437 c 0.76660161,0 1.39160161,-0.068359 1.87500011,-0.1953125 C 3.2261868,4.9853513 3.4752102,4.6923826 3.4752102,4.238281 l 8e-7,-16.074218 c 0,-0.610352 -0.2246094,-0.986328 -0.6640625,-1.132813 C 2.381461,-13.125 1.7271641,-13.203125 0.8580234,-13.203125 l 5e-8,-1.171875 4.94140645,-0.351562 -10e-8,2.070312 c 0.5957032,-0.673828 1.2988283,-1.191406 2.1093752,-1.542968 0.8203126,-0.351563 1.6845704,-0.527344 2.597656,-0.527344 1.298829,0 2.480469,0.361328 3.535157,1.074219 1.054687,0.703125 1.875,1.635742 2.460937,2.792969 0.595703,1.1474607 0.898438,2.3730466 0.898438,3.6718747 0,1.3427734 -0.332032,2.5927734 -0.996094,3.7499999 -0.654297,1.1621093 -1.542969,2.0849608 -2.675782,2.77343727 -1.132812,0.68847649 -2.37793,1.03515612 -3.7304688,1.03515606 -1.616211,-7e-8 -2.9833985,-0.65429699 -4.1015626,-1.97265643 l -2e-7,5.8398437 c -1e-7,0.4541015 0.2441406,0.7470703 0.7421874,0.8789062 C 7.1324369,5.2441406 7.7525541,5.3125 8.4947417,5.3125 l -1e-7,1.1523437 z M 5.8970857,-3.2421874 c 0.390625,0.7958984 0.9277343,1.4550781 1.6210937,1.9726563 0.6884766,0.50781248 1.4501954,0.76171876 2.2851563,0.76171879 0.7666013,4e-8 1.4453123,-0.20019524 2.0312503,-0.60546869 0.595703,-0.415039 1.09375,-0.9667968 1.484375,-1.6601561 0.400391,-0.703125 0.703125,-1.430664 0.898438,-2.1874999 0.195312,-0.7666015 0.292968,-1.508789 0.292968,-2.2265624 10e-7,-0.8984375 -0.166015,-1.8603516 -0.488281,-2.8906246 -0.327148,-1.040039 -0.815429,-1.914063 -1.464843,-2.617188 -0.654297,-0.712891 -1.445313,-1.074219 -2.382813,-1.074219 -0.8984375,0 -1.7285156,0.234375 -2.4804688,0.703125 -0.756836,0.458984 -1.357422,1.083984 -1.7968752,1.875 z m 0,0"
       style="fill:#262626;fill-opacity:1;fill-rule:nonzero;stroke:none"
       aria-label="p"
       transform="matrix(-3.5e-8,-0.79999997,0.80000002,-3.5e-8,20,219.65126)" />
    <path
       id="path93"
       d="m 2.7935504,-1.8359368 c 0,-0.5078125 0.1806641,-0.9374999 0.546875,-1.2890624 0.3759766,-0.3613281 0.810547,-0.546875 1.3085939,-0.5468749 0.2978515,0 0.5908203,0.087891 0.8789062,0.2539062 0.2978516,0.15625 0.5273438,0.3857422 0.6835938,0.6835938 0.1660156,0.2880859 0.2539062,0.5859375 0.2539062,0.8984375 0,0.4833984 -0.1855469,0.9130859 -0.5468751,1.28906243 C 5.5669879,-0.18066325 5.1421832,7.8654184e-7 4.6490191,7.6496591e-7 4.1509722,7.4317636e-7 3.7164019,-0.18066333 3.3404253,-0.54687428 2.9742144,-0.92285085 2.7935503,-1.3525383 2.7935504,-1.8359368 Z m 0,0"
       style="fill:#262626;fill-opacity:1;fill-rule:nonzero;stroke:none"
       aria-label="."
       transform="matrix(-3.5e-8,-0.79999997,0.80000002,-3.5e-8,20,204.8364)" />
    <path
       id="path94"
       d="m 3.5928576,-3.9648425 4e-7,-7.3632815 c 0,-0.595703 -0.092773,-1.02539 -0.2734375,-1.289062 -0.1708984,-0.273438 -0.4248047,-0.43457 -0.7617188,-0.488281 -0.3417968,-0.06348 -0.859375,-0.09766 -1.56250002,-0.09766 l 5e-8,-1.171875 5.03906277,-0.351562 -5e-7,10.7617186 c 0,0.859375 0.058594,1.5332031 0.1757812,2.0117187 0.1269531,0.4833984 0.3955078,0.8496094 0.8007812,1.09374999 0.4150391,0.23437502 1.0644532,0.35156254 1.9531251,0.35156258 1.1962895,5e-8 2.1484375,-0.49316397 2.8515625,-1.48437487 0.703125,-1.0009765 1.054688,-2.1386717 1.054688,-3.4179686 v -5.9179684 c 0,-0.595703 -0.09277,-1.025391 -0.273437,-1.289063 -0.185547,-0.273437 -0.444336,-0.43457 -0.78125,-0.488281 -0.327149,-0.06348 -0.839844,-0.09766 -1.542969,-0.09766 v -1.171875 l 5.019531,-0.351562 v 11.699218 c 0,0.5859374 0.08789,1.0156249 0.273437,1.2890624 0.180664,0.2636719 0.439453,0.4248047 0.78125,0.4882813 0.336914,0.053711 0.859375,0.078125 1.5625,0.078125 V -5.3498046e-6 L 12.967858,0.37109527 V -2.4414047 c -0.405274,0.8349609 -0.976563,1.51367184 -1.71875,2.03124992 C 10.50692,0.1074233 9.6914905,0.37109513 8.8077014,0.37109509 7.2061389,0.37109502 5.9366076,0.0292981 4.9991076,-0.64453005 4.0616075,-1.3183582 3.5928576,-2.4267566 3.5928576,-3.9648425 Z m 0,0"
       style="fill:#262626;fill-opacity:1;fill-rule:nonzero;stroke:none"
       aria-label="u"
       transform="matrix(-3.5e-8,-0.79999997,0.80000002,-3.5e-8,19.999999,197.42897)" />
    <path
       id="path95"
       d="m 2.7940109,-1.8359356 c 0,-0.5078124 0.1806641,-0.9374999 0.5468751,-1.2890624 0.3759766,-0.3613281 0.8105469,-0.5468749 1.3085938,-0.5468749 0.2978516,0 0.5908203,0.087891 0.8789063,0.2539063 0.2978515,0.15625 0.5273437,0.3857422 0.6835937,0.6835937 0.1660156,0.288086 0.2539063,0.5859375 0.2539062,0.8984375 0,0.4833984 -0.1855469,0.91308591 -0.546875,1.28906245 C 5.5674484,-0.18066204 5.1426437,2.0018434e-6 4.6494796,1.9802675e-6 4.1514327,1.9584779e-6 3.7168624,-0.18066212 3.3408859,-0.54687306 2.9746749,-0.92284963 2.7940109,-1.3525371 2.7940109,-1.8359356 Z m 0,0"
       style="fill:#262626;fill-opacity:1;fill-rule:nonzero;stroke:none"
       aria-label="."
       transform="matrix(-3.5e-8,-0.79999997,0.80000002,-3.5e-8,19.999999,182.61411)" />
    <path
       id="path96"
       d="m 2.1675353,8.3398458 c -0.1953125,0 -0.2929687,-0.097656 -0.2929687,-0.2929687 0,-0.1074219 0.019531,-0.1757813 0.058594,-0.2148438 3.7988285,-3.7109372 5.7031257,-9.101562 5.703126,-16.1718743 3e-7,-7.055664 -1.8749996,-12.421875 -5.6249996,-16.09375 -0.092773,-0.04883 -0.1367187,-0.141601 -0.1367187,-0.273437 0,-0.07813 0.024414,-0.141602 0.078125,-0.195313 0.063477,-0.06348 0.1367188,-0.09766 0.2148438,-0.09766 h 0.3125 c 0.063477,0 0.1171875,0.01953 0.15625,0.05859 1.6015625,1.264648 2.9296875,2.792968 3.984375,4.589843 1.0644531,1.796875 1.845703,3.720704 2.3437498,5.761719 0.493164,2.045899 0.7421874,4.130859 0.7421873,6.2500001 -10e-8,1.5771484 -0.1367189,3.1249999 -0.4101565,4.6484373 C 9.0327705,-2.1679661 8.6128485,-0.66405992 8.0269109,0.82031501 7.4507389,2.30469 6.718317,3.6718774 5.8198794,4.9218773 4.9312074,6.1718772 3.871637,7.2851584 2.6362853,8.2617208 c -0.039063,0.048828 -0.092773,0.078125 -0.15625,0.078125 z m 0,0"
       style="fill:#262626;fill-opacity:1;fill-rule:nonzero;stroke:none"
       aria-label=")"
       transform="matrix(-3.5e-8,-0.79999997,0.80000002,-3.5e-8,19.999998,175.20668)" />
    <path
       id="path97"
       d="M 106,77.409088 H 735"
       style="fill:none;stroke:#7daa42;stroke-width:3.33333;stroke-linecap:butt;stroke-linejoin:round;stroke-miterlimit:10;stroke-dasharray:none;stroke-opacity:1"
       transform="matrix(0.80000002,0,0,0.79999997,-15.199903,-40.266118)" />
    <path
       id="path98"
       d="M 106,585.59088 H 735"
       style="fill:none;stroke:#7daa42;stroke-width:3.33333;stroke-linecap:butt;stroke-linejoin:bevel;stroke-miterlimit:1;stroke-dasharray:12, 12;stroke-dashoffset:0;stroke-opacity:1"
       transform="matrix(0.80000002,0,0,0.79999997,-15.199903,-40.266118)" />
    <path
       id="path99"
       d="M 672.09998,611 V 51.999992"
       style="fill:none;stroke:#fad63d;stroke-width:3.33333;stroke-linecap:butt;stroke-linejoin:round;stroke-miterlimit:10;stroke-dasharray:none;stroke-opacity:1"
       transform="matrix(0.80000002,0,0,0.79999997,-15.199903,-40.266118)" />
    <path
       id="path100"
       d="M 184.625,611 V 51.999992"
       style="fill:none;stroke:#fad63d;stroke-width:3.33333;stroke-linecap:butt;stroke-linejoin:bevel;stroke-miterlimit:1;stroke-dasharray:12, 12;stroke-dashoffset:0;stroke-opacity:1"
       transform="matrix(0.80000002,0,0,0.79999997,-15.199903,-40.266118)" />
    <path
       id="path101"
       d="m 447.68451,459.2731 0.0508,0.0359 1.98935,1.40347 1.37964,0.9686 0.66052,0.46237 2.04013,1.42258 0.7013,0.48709 1.33883,0.92719 2.04016,1.40603 0.0565,0.0388 1.98364,1.35901 1.486,1.01303 0.55413,0.37671 2.04017,1.38165 0.91003,0.61371 1.1301,0.75989 2.04013,1.36569 0.36944,0.24646 1.67072,1.11133 1.90494,1.26071 0.13519,0.0892 2.04013,1.34217 1.43692,0.94067 0.60324,0.39377 2.04013,1.32672 1.0062,0.65155 1.03393,0.66757 2.04016,1.31156 0.6135,0.39291 1.42663,0.9111 2.04013,1.29654 0.25956,0.16443 1.78061,1.1247 1.98522,1.24734 0.0549,0.0344 2.04013,1.27442 1.71106,1.06323 0.3291,0.20392 2.04013,1.25992 1.47796,0.90823 0.56217,0.34445 2.04016,1.24558 1.28683,0.78201 0.7533,0.45648 2.04013,1.23142 1.13852,0.68414 0.90164,0.54025 2.04013,1.21744 1.03394,0.61438 1.00619,0.59616 2.04013,1.20361 0.97406,0.57227 1.06611,0.62454 2.04016,1.18997 0.95984,0.55756 1.08026,0.62567 2.04016,1.17652 0.99231,0.56985 1.04785,0.59995 2.0401,1.16317 1.07263,0.60892 0.96753,0.54767 2.04016,1.14548 1.26166,0.67892 0.77844,0.41776 2.04016,1.09085 1.62244,0.8634 0.41772,0.22174 2.0401,1.07935 2.03504,1.07098 0.005,0.003 2.04017,1.06793 2.0401,1.06231 0.46069,0.23914 1.57947,0.81757 2.04016,1.05102 0.98096,0.50342 1.05914,0.54211 2.04016,1.03992 1.55719,0.79004 0.48297,0.24432 2.0401,1.02893 2.04016,1.02344 0.15064,0.0754 1.88952,0.94257 2.0401,1.01251 0.84326,0.41693 1.1969,0.59021 2.04017,1.00171 1.59637,0.78015 0.44373,0.21625 2.04016,0.99103 2.04016,0.98571 0.3717,0.17908 1.6684,0.80133 2.04016,0.97516 1.25128,0.59552 0.78882,0.37439 2.04016,0.96466 2.04016,0.95953 0.15674,0.0735 1.88342,0.8808 2.0401,0.94909 1.17029,0.54218 0.86987,0.40179 2.04016,0.93891 2.0401,0.93378 0.21381,0.0975 1.82636,0.83112 2.04016,0.92364 1.36975,0.61731 0.67035,0.30127 2.04016,0.91357 2.04016,0.90851 0.56024,0.24872 1.47986,0.65491 2.04016,0.89862 1.8681,0.81848 0.17206,0.0752 2.0401,0.88874 2.04016,0.88379 1.21558,0.52435 0.82458,0.35461 2.0401,0.62421 2.04017,0.32782 2.04016,0.29907 2.0401,0.26715 2.04016,0.23157 2.04016,0.19122 0.98852,0.0764 1.05158,-0.0837 2.04016,-0.16846 2.04016,-0.17657 2.0401,-0.18482 2.04016,-0.19305 2.04016,-0.20148 2.0401,-0.2099 2.04016,-0.2185 2.0401,-0.22718 2.04017,-0.2359 2.04016,-0.24475 1.83453,-0.22772 0.20557,-0.026 2.04016,-0.26282 2.04016,-0.27203 2.0401,-0.28131 2.04016,-0.29071 2.04016,-0.30036 2.0401,-0.30993 2.04016,-0.31983 1.914,-0.30908 0.12616,-0.0207 2.0401,-0.33936 2.04017,-0.34393 v -1.66803 -2.37207 -2.37207 -2.37201 -2.37207 -2.37207 -2.37201 -2.37207 -2.37207 -2.37201 -2.37207 -2.37207 -2.37201 -2.37207 -2.37207 -2.37201 -1.91659 -0.45548 -2.37204 -2.37204 -2.37207 -2.37204 -2.37207 -2.37204 -2.37204 -2.37207 -2.37204 -2.37204 -2.37207 -2.37204 -2.37204 -2.37207 -2.37204 -2.37204 -2.37207 -2.37204 -2.37204 -2.37204 -2.37207 -2.37204 l -2.04017,-1.62521 -1.08093,-0.74683 -0.95917,-0.66467 -2.04016,-1.41998 -0.41143,-0.28742 -1.62873,-1.14108 -1.74817,-1.23096 -0.29193,-0.20614 -2.04016,-1.44578 -1.0116,-0.72012 -1.02856,-0.73437 -2.0401,-1.46326 -0.24237,-0.17441 -1.79779,-1.29776 -1.48102,-1.07431 -0.55914,-0.4068 -2.0401,-1.49011 -0.64795,-0.47513 -1.39221,-1.02408 -1.8238,-1.34796 -0.21637,-0.1604 -2.0401,-1.51761 -0.92889,-0.69406 -1.11127,-0.83288 -2.0401,-1.53632 -0.004,-0.003 -2.03638,-1.54297 -1.08905,-0.82907 -0.95111,-0.72632 -2.0401,-1.565 -0.10492,-0.0808 -1.93524,-1.49402 -1.13202,-0.87802 -0.90814,-0.70654 -2.0401,-1.59448 -0.0906,-0.071 -1.94958,-1.53348 -1.06122,-0.83859 -0.97894,-0.77597 -2.00421,-1.59607 -0.0359,-0.0287 -2.04016,-1.63504 -0.87983,-0.70832 -1.16034,-0.9371 -1.76867,-1.43497 -0.27143,-0.22095 -2.04016,-1.66647 -0.59088,-0.48462 -1.44928,-1.1925 -1.427,-1.17954 -0.6131,-0.50842 -2.04016,-1.69882 -0.1972,-0.1648 -1.84296,-1.54504 -0.98206,-0.82703 -1.05804,-0.89392 -1.74176,-1.47812 -0.2984,-0.25406 -2.04016,-1.74353 -0.4364,-0.37445 -1.6037,-1.38052 -1.14679,-0.99155 -0.89337,-0.77502 -1.83283,-1.59702 -0.20734,-0.18124 -2.0401,-1.7901 -0.45483,-0.4007 -1.58533,-1.40136 -1.09332,-0.97071 -0.94684,-0.84344 -1.70843,-1.5286 -0.33167,-0.29779 -2.04016,-1.83874 -0.26031,-0.23551 -1.77985,-1.61572 -0.82953,-0.75632 -1.21063,-1.10757 -1.3761,-1.2645 -0.664,-0.61221 -1.90045,-1.75983 -0.13971,-0.12979 -2.0401,-1.90271 -0.36261,-0.33954 -1.67755,-1.57644 -0.84302,-0.79563 -1.19714,-1.13376 -1.30188,-1.23828 -0.73822,-0.70468 -1.73938,-1.66736 -0.30079,-0.28933 -2.04016,-1.97062 -0.1156,-0.11212 -1.9245,-1.87259 -0.51111,-0.49945 -1.52905,-1.49954 -0.88586,-0.8725 -1.1543,-1.14093 -1.24017,-1.23114 -0.79993,-0.79693 -1.57428,-1.57511 -0.46588,-0.46783 -1.88825,-1.90421 -0.15191,-0.15374 -2.0401,-2.07322 -0.14227,-0.14511 -1.89789,-1.94354 -0.41669,-0.4285 -1.62347,-1.67581 -0.67163,-0.69623 -1.36847,-1.42398 -0.90735,-0.94806 -1.13282,-1.18823 -1.1239,-1.18384 -0.91626,-0.96881 -1.32147,-1.40323 -0.71863,-0.76602 -1.50036,-1.60602 -0.5398,-0.58004 -1.66064,-1.79203 -0.37952,-0.4111 -1.80249,-1.96094 -0.23761,-0.25955 -1.92615,-2.11249 -0.11401,-0.12558 -2.03162,-2.24649 -0.009,-0.009 -2.0401,-2.27414 -0.079,-0.0884 -1.96112,-2.2041 -0.14881,-0.16794 -1.89135,-2.14337 -0.20093,-0.2287 -1.83917,-2.10168 -0.23566,-0.27036 -1.8045,-2.07937 -0.25293,-0.29267 -1.78724,-2.07675 -0.25305,-0.29532 -1.78708,-2.09417 -0.23611,-0.27787 -1.80402,-2.13198 -0.2023,-0.24006 -1.83783,-2.19052 -0.15167,-0.18152 -1.88849,-2.2702 -0.0844,-0.10187 -1.95575,-2.37133 -6.1e-4,-7.1e-4 -1.93994,-2.37204 -0.0996,-0.12234 -1.8241,-2.24973 -0.21606,-0.26767 -1.69147,-2.10437 -0.34866,-0.43573 -1.54288,-1.93631 -0.49725,-0.62695 -1.37836,-1.74512 -0.6618,-0.84176 -1.198,-1.53028 -0.84213,-1.08071 -1.00202,-1.29133 -1.03811,-1.3442 -0.79047,-1.02787 -1.2497,-1.63275 -0.56344,-0.73929 -1.47669,-1.94693 -0.32107,-0.42511 -1.71906,-2.28723 -0.0635,-0.0848 -1.7674,-2.37207 -0.20926,-0.28216 -1.54312,-2.08988 -0.49701,-0.67645 -1.24045,-1.69559 -0.79968,-1.09866 -0.92294,-1.27341 -1.11722,-1.54937 -0.59067,-0.82267 -1.44946,-2.02929 -0.24378,-0.34274 -1.67868,-2.37208 -0.11767,-0.16702 -1.5466,-2.20502 -0.49356,-0.70745 -1.15631,-1.66458 -0.88382,-1.27921 -0.7518,-1.09285 -1.28833,-1.88309 -0.3331,-0.48896 -1.60733,-2.37204 -0.0997,-0.14788 -1.49359,-2.22418 -0.54654,-0.8185 -1.03283,-1.55355 -1.0073,-1.52382 -0.55825,-0.84824 -1.48191,-2.26479 -0.0698,-0.10725 -1.53809,-2.37205 -0.43219,-0.67032 -1.09231,-1.70172 -0.94782,-1.48555 -0.56311,-0.88651 -1.47705,-2.33951 -0.0205,-0.0325 -1.4841,-2.37204 -0.53558,-0.86129 -0.93524,-1.51077 -1.10489,-1.79617 -0.35266,-0.57588 -1.4444,-2.37204 -0.2431,-0.40134 -1.1882,-1.97072 -0.85193,-1.42223 -0.56635,-0.94981 -1.4053,-2.37205 -0.0685,-0.11615 -1.32395,-2.25591 -0.71621,-1.22867 -0.6634,-1.14337 -1.36682,-2.37205 -0.01,-0.0173 -1.3442,-2.35477 -0.69593,-1.22775 -0.64556,-1.14429 -1.32892,-2.37205 -0.0657,-0.11779 -1.25073,-2.25427 -0.7894,-1.43332 -0.51455,-0.93872 -1.29154,-2.37205 -0.23404,-0.4323 -1.04516,-1.93974 -0.995,-1.86098 -0.27191,-0.51108 -1.2547,-2.37205 -0.51352,-0.97751 -0.729,-1.39453 -1.23041,-2.37206 -0.0807,-0.15648 -1.1376,-2.21556 -0.90256,-1.77251 -0.30377,-0.59954 -1.19437,-2.37206 -0.54199,-1.08432 -0.64044,-1.28772 -1.1706,-2.37205 -0.22909,-0.46709 -0.92969,-1.90497 -1.11047,-2.2961 -0.0365,-0.0759 -1.13532,-2.37205 -0.86828,-1.83087 -0.25535,-0.54117 -1.11199,-2.37206 -0.6728,-1.44731 -0.42764,-0.92474 -1.0889,-2.37204 -0.52362,-1.14966 -0.5538,-1.2224 -1.06595,-2.37205 -0.42038,-0.94249 -0.63418,-1.42955 -1.04322,-2.37206 -0.36273,-0.83088 -0.66916,-1.54116 -1.02063,-2.37205 -0.35037,-0.82041 -0.659,-1.55165 -0.99816,-2.37204 -0.38297,-0.91716 -0.60406,-1.45489 -0.97593,-2.37203 -0.46014,-1.12798 -0.50467,-1.24408 -0.95377,-2.37206 -0.58169,-1.46035 -0.36108,-0.91168 -0.9318,-2.37206 -0.74728,-1.9228 -0.17359,-0.44925 -0.90994,-2.37205 -0.89908,-2.37206 -0.0575,-0.15275 -0.83075,-2.21929 -0.87744,-2.37205 -0.33194,-0.90506 -0.53476,-1.467 -0.85596,-2.37204 -0.64944,-1.819921 -0.19581,-0.552131 -0.83456,-2.37204 -0.82391,-2.372055 -0.18585,-0.539322 -0.62748,-1.832733 -0.80273,-2.37204 -0.60993,-1.823547 -0.18228,-0.548508 -0.78164,-2.372055 -0.77115,-2.37204 -0.30509,-0.947426 -0.45559,-1.424629 -0.75028,-2.37204 h -0.83426 -2.04016 -2.04013 -2.04013 -2.04013 -2.04016 -2.04013 -2.04013 -2.04016 -2.04013 -2.04014 -2.04016 -2.04013 -2.04013 -2.04016 -2.04013 -2.04013 -2.04016 -2.04013 -2.04016 -2.04013 -2.04013 -2.04013 -2.04017 -2.04013 -2.04013 -2.04016 -2.04013 -0.31228 -1.72785 -2.04016 -2.04013 -2.04013 -2.04016 -0.86939 l -1.17074,2.055527 -0.17908,0.316513 -1.33234,2.372055 -0.52871,0.950005 -0.78623,1.422035 -1.25394,2.291641 -0.0437,0.08041 -1.28042,2.372055 -0.71604,1.340439 -0.5473,1.031601 -1.24627,2.372055 -0.24656,0.473076 -0.98281,1.898979 -1.05735,2.066521 -0.15518,0.305519 -1.19577,2.372056 -0.68918,1.3823 -0.48993,0.98974 -1.1625,2.37206 -0.3877,0.79861 -0.7583,1.57344 -1.12958,2.37204 -0.15228,0.32237 -0.96094,2.04969 -1.07919,2.33335 -0.0177,0.0387 -1.08075,2.37205 -0.94165,2.09623 -0.12296,0.27583 -1.04852,2.37203 -0.86868,1.99304 -0.16385,0.37902 -1.01663,2.37206 -0.85965,2.03517 -0.14115,0.33686 -0.98495,2.37205 -0.91403,2.23586 -0.0552,0.13618 -0.95355,2.37206 -0.93796,2.37205 -0.0934,0.23836 -0.82898,2.13368 -0.90693,2.37206 -0.30423,0.80485 -0.58721,1.56719 -0.87638,2.37205 -0.57654,1.58039 -0.28671,0.79167 -0.85061,2.37204 -0.83805,2.37205 -0.0648,0.18482 -0.76074,2.18724 -0.81235,2.37204 -0.46704,1.39337 -0.32278,0.97868 -0.76477,2.37204 -0.7403,2.37206 -0.21228,0.69481 -0.50397,1.67724 -0.69271,2.37204 -0.66962,2.37206 -0.17386,0.62928 -0.47305,1.74277 -0.62467,2.37204 -0.60278,2.37206 -0.33963,1.37536 -0.24158,0.99668 -0.56006,2.37205 -0.53918,2.37206 -0.51865,2.37204 -0.18066,0.84869 -0.31775,1.52336 -0.47848,2.37204 -0.45878,2.37206 -0.43939,2.37205 -0.34576,1.94342 -0.0745,0.42862 -0.40134,2.37206 -0.38263,2.37205 -0.36417,2.37204 -0.34594,2.37206 -0.32788,2.37205 -0.14371,1.08275 0.63327,1.28929 1.17288,2.37206 0.23398,0.47082 0.94897,1.90122 1.09119,2.17031 0.10187,0.20174 1.20318,2.37206 0.73508,1.43946 0.47827,0.93258 1.22354,2.37205 0.33832,0.65244 0.89548,1.71962 1.14468,2.18322 0.0994,0.18882 1.25439,2.37205 0.68634,1.28963 0.57843,1.08241 1.27518,2.37206 0.18652,0.34539 1.09909,2.02666 0.94107,1.72423 0.35502,0.64783 1.30661,2.37204 0.3785,0.68362 0.93866,1.68843 1.10148,1.9691 0.22631,0.40296 1.33844,2.37203 0.47541,0.83799 0.87375,1.53405 1.16638,2.03574 0.19348,0.33634 1.37067,2.37203 0.47598,0.81943 0.90548,1.55261 1.13468,1.93442 0.25772,0.43765 1.40329,2.37204 0.37912,0.6377 1.03516,1.73434 1.00497,1.6745 0.42032,0.69757 1.43634,2.37204 0.1835,0.3017 1.26398,2.07034 0.77615,1.26444 0.68253,1.1076 1.3576,2.19159 0.11225,0.18048 1.48114,2.37204 0.44677,0.71198 1.04572,1.66006 0.99441,1.57059 0.5094,0.80148 1.51529,2.37204 0.0154,0.0241 1.51133,2.34793 0.52884,0.81748 1.00946,1.55459 1.03067,1.57935 0.51925,0.79269 1.52088,2.31052 0.0407,0.0615 1.57327,2.37207 0.42621,0.63956 1.15884,1.73248 0.88129,1.31128 0.71558,1.06076 1.32455,1.95429 0.28421,0.41775 1.62073,2.37207 0.13522,0.19712 1.4975,2.17492 0.54263,0.78449 1.1022,1.58755 0.93793,1.34491 0.71903,1.02716 1.32113,1.87891 0.34803,0.49313 1.68142,2.37204 0.0107,0.015 1.68308,2.35702 0.35705,0.49784 1.34913,1.8742 0.69104,0.95581 1.02761,1.41623 1.01252,1.38944 0.71869,0.98263 1.32144,1.79911 0.42236,0.57293 1.61777,2.18537 0.13873,0.18667 1.76926,2.37207 0.13217,0.17652 1.6499,2.19552 0.39023,0.51715 1.40478,1.85489 0.63538,0.83557 1.17261,1.53647 0.86752,1.13217 0.95352,1.2399 1.08661,1.40732 0.74756,0.96472 1.2926,1.66147 0.55481,0.71057 1.48532,1.8949 0.3754,0.47717 1.66473,2.10794 0.20935,0.2641 1.83081,2.301 0.0567,0.071 1.90112,2.37207 0.0823,0.10227 1.83245,2.26977 0.20768,0.25626 1.72079,2.11578 0.31937,0.39121 1.62292,1.98086 0.41721,0.50733 1.53897,1.86471 0.50116,0.60501 1.46902,1.76703 0.57114,0.68448 1.41315,1.68759 0.62698,0.74604 1.37146,1.626 0.66867,0.78995 1.34406,1.58209 0.69607,0.81647 1.33103,1.55557 0.70913,0.82584 1.33246,1.54623 0.70767,0.8183 1.34848,1.55374 0.69168,0.79416 1.37919,1.57788 0.66095,0.75357 1.42465,1.6185 0.61548,0.69678 1.48504,1.67526 0.55512,0.62406 1.56039,1.74798 0.47974,0.53559 1.65088,1.83648 0.38925,0.43152 1.75659,1.94052 0.28357,0.3122 1.87762,2.05984 0.16251,0.17771 2.0141,2.19433 0.026,0.0283 2.04013,2.20789 0.12604,0.13589 1.91412,2.05744 0.29373,0.3146 1.7464,1.86435 0.4773,0.50769 1.56283,1.65708 0.67676,0.71499 1.3634,1.43576 0.89225,0.93628 1.14789,1.20062 1.12396,1.17142 0.91617,0.95181 1.372,1.42026 0.66816,0.68946 1.63644,1.68258 0.40369,0.41376 1.91751,1.95828 0.12262,0.12488 2.04016,2.0701 0.17511,0.17709 1.86502,1.8801 0.48978,0.49194 1.55035,1.55249 0.82141,0.81955 1.21875,1.21228 1.17017,1.15979 0.83404,0.8241 0.0359,0.0268 2.04013,1.51841 0.004,0.003 2.0365,1.50665 1.17527,0.86539 0.86486,0.63495 2.04014,1.49142 0.33724,0.24567 1.70292,1.23691 1.57025,1.13516 0.46988,0.33865 2.04013,1.46512 0.79458,0.56827 1.24558,0.88822 2.04013,1.4479 z"
       style="fill:#b5b4d6;fill-opacity:0.901961;fill-rule:nonzero;stroke:none"
       transform="matrix(0.80000002,0,0,0.79999997,-15.199903,-40.266118)" />
    <path
       id="path102"
       d="m 332.65646,611 -3.55444,-5.64648 -3.46564,-5.64643 -3.37811,-5.64648 -3.29193,-5.64649 -3.20688,-5.64648 -3.12302,-5.64642 -3.04031,-5.64649 -2.95859,-5.64648 -2.87793,-5.64643 -2.79828,-5.64648 -2.71945,-5.64649 -2.64163,-5.64642 -2.56457,-5.64648 -2.48841,-5.64649 -2.41296,-5.64642 -2.33832,-5.64648 -2.26434,-5.64649 -2.19107,-5.64642 -2.11844,-5.64649 -2.04645,-5.64645 -1.97504,-5.64645 -1.90423,-5.64649 -1.83393,-5.64645 -1.76419,-5.64649 -1.69488,-5.64645 -1.62613,-5.64645 -1.55774,-5.64649 -1.48981,-5.64645 -1.4223,-5.64646 -1.35516,-5.64648 -1.28839,-5.64646 -1.22196,-5.64645 -1.15582,-5.64648 -1.09003,-5.64646 -1.0245,-5.64645 -0.95923,-5.64649 -0.89423,-5.64645 -0.82945,-5.64645 -0.76488,-5.64649 -0.70051,-5.64645 -0.63633,-5.64646 -0.57228,-5.64648 -0.5084,-5.64645 -0.44465,-5.64649 -0.38101,-5.64645 -0.31746,-5.64646 -0.25398,-5.64648 -0.1906,-5.64645 -0.12727,-5.64646 -0.0639,-5.64648 -6.6e-4,-5.64646 0.0626,-5.64645 0.12593,-5.64648 0.18927,-5.64646 0.25264,-5.64645 0.31607,-5.64649 0.37958,-5.64645 0.44316,-5.64648 0.50687,-5.64646 0.57071,-5.64645 0.63466,-5.64649 0.69877,-5.64645 0.76306,-5.64647 0.82755,-5.64645 0.89223,-5.64647 0.95713,-5.64647 1.02227,-5.64646 1.0877,-5.64646 1.15335,-5.64647 1.21933,-5.64647 1.28565,-5.64646 1.35226,-5.64647 1.41922,-5.64647 1.48658,-5.64645 1.55432,-5.64647 1.62249,-5.64647 1.69108,-5.64645 1.76013,-5.64647 1.82971,-5.64647 1.89975,-5.64645 1.97034,-5.64647 2.04147,-5.64647 2.11322,-5.64646 2.18555,-5.64646 2.25854,-5.64647 2.33222,-5.64646 2.40658,-5.64647 2.48166,-5.64647 2.55756,-5.64646 2.63418,-5.64646 2.71173,-5.646468 2.79007,-5.646461 2.86939,-5.646469 2.94967,-5.646462 3.03089,-5.646476 3.11322,-5.646454 3.19659,-5.646477 3.28116,-5.64645 3.36685,-5.646481"
       style="fill:none;stroke:#edb120;stroke-width:2.5;stroke-linecap:butt;stroke-linejoin:round;stroke-miterlimit:10;stroke-dasharray:none;stroke-opacity:1"
       transform="matrix(0.80000002,0,0,0.79999997,-15.199903,-40.266118)" />
    <path
       id="path103"
       d="m 204.00485,51.999992 5.56476,22.982933 5.56476,20.232399 5.56477,18.255056 5.56478,16.74289 5.56475,15.53658 5.56476,14.54393 5.56479,13.70787 5.56476,12.99049 5.56476,12.36565 5.56476,11.81462 5.56479,11.32368 5.56475,10.88236 5.56476,10.48259 5.56479,10.11809 5.56476,9.78375 5.56476,9.47552 5.56476,9.19004 5.56475,8.92456 5.56479,8.67669 5.56476,8.44458 5.56476,8.22641 5.56476,8.02088 5.56479,7.82672 5.56475,7.64282 5.56476,7.46829 5.56479,7.30234 5.56476,7.14423 5.56476,6.99322 5.56476,6.84891 5.56479,6.71069 5.56475,6.5781 5.56476,6.45077 5.56476,6.32834 5.56479,6.21045 5.56476,6.0968 5.56476,5.98715 5.56475,5.88123 5.56479,5.77878 5.56476,5.67959 5.56476,5.58356 5.56479,5.49042 5.56476,5.40005 5.56475,5.31229 5.56476,5.22699 5.56479,5.14401 5.56476,5.06323 5.56476,4.98459 5.56476,4.90793 5.56479,4.83325 5.56475,4.76035 5.56476,4.68912 5.56476,4.61953 5.56479,4.55164 5.56476,4.48526 5.56476,4.4201 5.56478,4.35651 5.56476,4.29437 5.56476,4.23322 5.56476,4.17334 5.56476,4.11487 5.56476,4.05725 5.56475,4.00073 5.56482,3.9455 5.56476,3.89105 5.56476,3.83746 5.56476,3.78522 5.56476,3.73334 5.56476,3.6828 5.56475,3.63275 5.56476,3.58355 5.56482,3.53547 5.56476,3.48755 5.56476,3.44097 5.56476,3.39454 5.56475,3.34924 5.56476,3.30426 5.56476,3.26007 5.56476,3.21655 5.56482,3.1734 5.56476,3.13111 2.39441,1.32922"
       style="fill:none;stroke:#0072bd;stroke-width:2.5;stroke-linecap:butt;stroke-linejoin:round;stroke-miterlimit:10;stroke-dasharray:none;stroke-opacity:1"
       transform="matrix(0.80000002,0,0,0.79999997,-15.199903,-40.266118)" />
    <path
       id="path104"
       d="m 151.79855,51.999992 6.36428,22.455826 6.36424,19.792587 6.36426,17.863235 6.36427,16.37968 6.36424,15.19101 6.36426,14.20949 6.36427,13.38024 6.36425,12.66677 6.36425,12.04377 6.36428,11.49315 6.36424,11.0015 6.36426,10.55864 6.36427,10.15668 6.36424,9.7895 6.36426,9.4521 6.36427,9.14045 6.36425,8.85137 6.36425,8.58194 6.36426,8.33011 6.36426,8.09375 6.36426,7.87134 6.36426,7.66141 6.36425,7.46268 6.36426,7.27432 6.36426,7.09518 6.36426,6.9245 6.36425,6.76166 6.36426,6.60593 6.36426,6.45684 6.36426,6.31376 6.36426,6.17633 6.36425,6.04416 6.36426,5.9168 6.36426,5.79398 6.36426,5.67545 6.36425,5.56082 6.36426,5.44989 6.36426,5.3425 6.36426,5.2384 6.36426,5.13727 6.36425,5.03909 6.36426,4.94363 6.36426,4.8508 6.36426,4.76053 6.36426,4.67252 6.36425,4.58664 6.36426,4.50284 6.36426,4.42105 6.36426,4.34128 6.36425,4.2633 6.36426,4.18683 6.36426,4.11206 6.36426,4.03906 6.36426,3.96747 6.36425,3.89706 6.36429,3.82828 6.36426,3.76096 6.36426,3.69436 6.36425,3.62943 6.36426,3.56561 6.36426,3.5025 6.36426,3.44111 6.36426,3.38012 6.36425,3.32025 6.36426,3.26185 6.36426,3.20343 6.36426,3.14697 6.36426,3.09015 6.36425,3.03534 6.36426,2.98022 6.36426,2.92682 6.36426,2.87335 6.36425,2.82123 6.36426,2.7691 6.36426,2.71851 6.36426,2.66742 6.36426,2.61829 6.36425,2.56811 6.36426,2.52051 6.36426,2.47107 6.36426,2.42474 6.36425,2.37659 6.36426,2.3305 6.36426,2.28473 6.36426,2.23773 6.36426,2.19428 6.36425,2.14801 6.36426,2.10413 6.36426,2.06115 6.36426,2.01538 6.36425,1.97412 4.12897,1.25312"
       style="fill:none;stroke:#0072bd;stroke-width:2.5;stroke-linecap:butt;stroke-linejoin:round;stroke-miterlimit:10;stroke-dasharray:none;stroke-opacity:1"
       transform="matrix(0.80000002,0,0,0.79999997,-15.199903,-40.266118)" />
    <path
       id="path105"
       d="m 118.8408,51.999992 6.78029,18.93261 6.78029,17.399712 6.78029,16.164496 6.78031,15.1402 6.78028,14.2719 6.78029,13.52279 6.78031,12.86734 6.78029,12.28697 6.78028,11.76795 6.78031,11.2998 6.78029,10.87448 6.78029,10.48552 6.7803,10.12786 6.78029,9.79725 6.78029,9.49028 6.7803,9.20418 6.78029,8.93649 6.7803,8.68515 6.78029,8.44858 6.78028,8.2251 6.7803,8.0137 6.7803,7.81299 6.78028,7.62216 6.7803,7.4404 6.7803,7.26682 6.78028,7.1008 6.7803,6.9418 6.78031,6.78928 6.78027,6.6427 6.7803,6.50164 6.78031,6.36579 6.78027,6.23477 6.7803,6.10821 6.78031,5.98591 6.78027,5.86752 6.78031,5.75284 6.7803,5.64166 6.78027,5.53375 6.78031,5.42893 6.7803,5.32702 6.78027,5.22791 6.78031,5.13141 6.7803,5.03738 6.78028,4.94571 6.7803,4.8562 6.7803,4.76886 6.78028,4.68353 6.7803,4.60016 6.78027,4.51871 6.78031,4.43887 6.7803,4.36063 6.78028,4.28409 6.7803,4.20916 6.7803,4.13566 6.78028,4.06332 6.7803,3.99252 6.78031,3.92322 6.7803,3.85471 6.78027,3.78747 6.78028,3.7218 6.78033,3.65671 6.78027,3.59271 6.78028,3.53022 6.78033,3.46801 6.78028,3.40717 6.78027,3.34735 6.78033,3.28772 6.78028,3.22992 6.78027,3.17181 6.78033,3.1156 6.78028,3.05915 6.78027,3.00409 6.78034,2.9494 6.78027,2.89544 6.78027,2.84229 6.78028,2.78955 6.78033,2.73755 6.78027,2.68616 6.78028,2.63501 6.78033,2.5852 6.78028,2.53455 6.78033,2.48639 6.78027,2.43622 6.78028,2.38934 6.78033,2.34027 6.78027,2.29352 6.78028,2.24695 6.78033,2.19885 6.78028,2.15472 6.78027,2.10755 6.00781,1.82727"
       style="fill:none;stroke:#0072bd;stroke-width:2.5;stroke-linecap:butt;stroke-linejoin:round;stroke-miterlimit:10;stroke-dasharray:none;stroke-opacity:1"
       transform="matrix(0.80000002,0,0,0.79999997,-15.199903,-40.266118)" />
    <path
       id="path106"
       d="m 106,398.2081 6.35354,4.34647 6.35352,4.26824 6.35355,4.1915 6.35354,4.11609 6.35352,4.04202 6.35355,3.96949 6.35354,3.89755 6.35352,3.82706 6.35354,3.75772 6.35353,3.68939 6.35354,3.62204 6.35354,3.55566 6.35353,3.49021 6.35353,3.42563 6.35355,3.36187 6.35353,3.29889 6.35353,3.2367 6.35353,3.17526 6.35353,3.11447 6.35355,3.05435 6.35353,2.99491 6.35353,2.936 6.35355,2.87769 6.35354,2.81997 6.35352,2.76273 6.35355,2.70602 6.35351,2.64972 6.35355,2.59394 6.35354,2.53851 6.35352,2.48352 6.35354,2.42889 6.35355,2.37464 6.35352,2.32064 6.35354,2.26703 6.35355,2.21369 6.35351,2.16061 6.35355,2.10773 6.35355,2.05511 6.35351,2.00269 6.35355,1.95044 6.35354,1.89837 6.35352,1.84638 6.35355,1.79462 6.35351,1.74279 6.35355,1.69117 6.35354,1.63958 6.35352,1.58796 6.35355,1.53643 6.35354,1.48481 6.35352,1.43316 6.35354,1.38153 6.35355,1.32971 6.35352,1.27784 6.35354,1.22583 6.35355,1.17358 6.35351,1.12128 6.35355,1.0686 6.35352,1.01581 6.35354,0.96265 6.35355,0.90936 6.35351,0.85541 6.35355,0.8012 6.35355,0.74665 6.35354,0.69153 6.35352,0.63598 6.35351,0.5799 6.35358,0.52319 6.35352,0.46576 6.35351,0.40771 6.35358,0.34888 6.35351,0.28925 6.35352,0.22864 6.35358,0.16717 6.35351,0.10455 6.35352,0.0408 6.35357,-0.0241 6.35352,-0.0904 6.35351,-0.15814 6.35358,-0.22742 6.35352,-0.29846 6.35351,-0.37134 6.35358,-0.44622 6.35351,-0.52338 6.35352,-0.60297 6.35358,-0.68524 6.35351,-0.77045 6.35352,-0.85882 6.35358,-0.95093 6.35351,-1.047 6.35352,-1.14752 6.35351,-1.25299 6.35358,-1.36413 6.35351,-1.48169 6.35352,-1.60645 6.35358,-1.7395 6.35351,-1.8822 6.35352,-2.03595 6.35357,-2.20282 6.35352,-2.3852"
       style="fill:none;stroke:#41c765;stroke-width:2.5;stroke-linecap:butt;stroke-linejoin:round;stroke-miterlimit:10;stroke-dasharray:none;stroke-opacity:1"
       transform="matrix(0.80000002,0,0,0.79999997,-15.199903,-40.266118)" />
    <path
       id="path107"
       d="m 371.76562,51.999992 4.69132,16.593979 4.69134,15.049713 4.69132,13.853096 4.69131,12.88944 4.69132,12.09096 4.69131,11.41464 4.69132,10.83177 4.69131,10.32222 4.69132,9.87156 4.69131,9.46901 4.69132,9.10631 4.69131,8.77718 4.69132,8.47654 4.69131,8.20043 4.69132,7.94552 4.69131,7.70919 4.69132,7.48912 4.69131,7.28351 4.69131,7.09076 4.69132,6.90948 4.69131,6.73859 4.69132,6.57702 4.69131,6.42392 4.69135,6.27857 4.69131,6.14023 4.69132,6.00833 4.69131,5.88241 4.69132,5.76193 4.69131,5.64652 4.69132,5.53583 4.69128,5.42944 4.69135,5.32712 4.69128,5.22858 4.69135,5.13351 4.69134,5.04181 4.69129,4.95318 4.69134,4.86744 4.69128,4.78445 4.69135,4.70404 4.69128,4.62604 4.69135,4.55035 4.69128,4.47681 4.69135,4.40536 4.69128,4.33585 4.69135,4.26816 4.69128,4.20224 4.69135,4.13797 4.69128,4.07529 4.69135,4.01419 4.69134,3.95449 4.69129,3.89615 4.69134,3.83914 4.69129,3.78339 4.69128,3.72891 4.69134,3.67551 4.69129,3.62317 4.69134,3.57199 4.69135,3.52188 4.69128,3.47257 4.69135,3.42425 4.69128,3.37702 4.69135,3.33038 4.69128,3.2847 4.69135,3.23999 4.69128,3.19574 4.69135,3.1524 4.69128,3.10993 4.69135,3.06781 4.69128,3.02673 4.69135,2.98605 4.69128,2.94599 4.69135,2.9068 4.69128,2.86779 4.69134,2.82981 4.69135,2.79193 4.69128,2.75491 4.69135,2.71826 2.078,1.18802"
       style="fill:none;stroke:#0072bd;stroke-width:2.5;stroke-linecap:butt;stroke-linejoin:bevel;stroke-miterlimit:1;stroke-dasharray:8, 8;stroke-dashoffset:0;stroke-opacity:1"
       transform="matrix(0.80000002,0,0,0.79999997,-15.199903,-40.266118)" />
    <path
       id="path108"
       d="M 5,0 C 5,-2.7614238 2.7614238,-5 0,-5 -2.7614238,-5 -5,-2.7614238 -5,0 -5,2.7614238 -2.7614238,5 0,5 2.7614238,5 5,2.7614238 5,0 Z"
       style="fill:#9d69d0;fill-opacity:1;fill-rule:nonzero;stroke:none"
       transform="matrix(0.80000002,0,0,0.79999997,192.53187,128.67407)" />
    <path
       id="path109"
       d="M 5,0 C 5,-2.7614238 2.7614238,-5 0,-5 -2.7614238,-5 -5,-2.7614238 -5,0 -5,2.7614238 -2.7614238,5 0,5 2.7614238,5 5,2.7614238 5,0 Z"
       style="fill:#9d69d0;fill-opacity:1;fill-rule:nonzero;stroke:none"
       transform="matrix(0.80000002,0,0,0.79999997,328.23233,316.44724)" />
    <path
       id="path110"
       d="M 5,0 C 5,-2.7614238 2.7614238,-5 0,-5 -2.7614238,-5 -5,-2.7614238 -5,0 -5,2.7614238 -2.7614238,5 0,5 2.7614238,5 5,2.7614238 5,0 Z"
       style="fill:#9d69d0;fill-opacity:1;fill-rule:nonzero;stroke:none"
       transform="matrix(0.80000002,0,0,0.79999997,408.01471,368.26145)" />
    <path
       id="path111"
       d="M 5,0 C 5,-2.7614238 2.7614238,-5 0,-5 -2.7614238,-5 -5,-2.7614238 -5,0 -5,2.7614238 -2.7614238,5 0,5 2.7614238,5 5,2.7614238 5,0 Z"
       style="fill:#9d69d0;fill-opacity:1;fill-rule:nonzero;stroke:none"
       transform="matrix(0.80000002,0,0,0.79999997,481.54479,403.50896)" />
    <path
       id="path112"
       d="M 5,0 C 5,-2.7614238 2.7614238,-5 0,-5 -2.7614238,-5 -5,-2.7614238 -5,0 -5,2.7614238 -2.7614238,5 0,5 2.7614238,5 5,2.7614238 5,0 Z"
       style="fill:#9d69d0;fill-opacity:1;fill-rule:nonzero;stroke:none"
       transform="matrix(0.80000002,0,0,0.79999997,522.48009,398.7219)" />
    <path
       id="path113"
       d="M 5,0 C 5,-2.7614238 2.7614238,-5 0,-5 -2.7614238,-5 -5,-2.7614238 -5,0 -5,2.7614238 -2.7614238,5 0,5 2.7614238,5 5,2.7614238 5,0 Z"
       style="fill:#9d69d0;fill-opacity:1;fill-rule:nonzero;stroke:none"
       transform="matrix(0.80000002,0,0,0.79999997,522.48009,325.10667)" />
    <path
       id="path114"
       d="M 5,0 C 5,-2.7614238 2.7614238,-5 0,-5 -2.7614238,-5 -5,-2.7614238 -5,0 -5,2.7614238 -2.7614238,5 0,5 2.7614238,5 5,2.7614238 5,0 Z"
       style="fill:#9d69d0;fill-opacity:1;fill-rule:nonzero;stroke:none"
       transform="matrix(0.80000002,0,0,0.79999997,288.16502,21.661149)" />
    <path
       id="path115"
       d="M 5,0 C 5,-2.7614238 2.7614238,-5 0,-5 -2.7614238,-5 -5,-2.7614238 -5,0 -5,2.7614238 -2.7614238,5 0,5 2.7614238,5 5,2.7614238 5,0 Z"
       style="fill:#9d69d0;fill-opacity:1;fill-rule:nonzero;stroke:none"
       transform="matrix(0.80000002,0,0,0.79999997,233.55525,21.661149)" />
    <circle
       style="fill:none;fill-opacity:1"
       id="path116"
       cx="223.94742"
       cy="131.34093"
       r="7.5687995" />
    <use
       xlink:href="#g126"
       id="use127" />
    <use
       xlink:href="#g127"
       id="use128" />
    <use
       xlink:href="#g128"
       id="use129" />
    <use
       xlink:href="#g129"
       id="use130" />
    <use
       xlink:href="#g130"
       id="use131" />
    <use
       xlink:href="#g131"
       id="use132" />
    <use
       xlink:href="#g132"
       id="use133" />
    <use
       xlink:href="#g134"
       id="use134" />
  </g>
</svg>
